<svg width="24" height="24" viewBox="0 0 24 24" fill="none" xmlns="http://www.w3.org/2000/svg">
<path d="M14.1818 13.0909H10.9091V15.2728H14.1818C15.6239 15.2728 15.6239 13.0909 14.1818 13.0909Z" fill="#1F2431"/>
<path d="M14.1818 8.72729H10.9091V10.9091H14.1818C15.6239 10.9091 15.6239 8.72729 14.1818 8.72729Z" fill="#1F2431"/>
<path d="M12 0C5.51033 0 0 5.29164 0 12C0 18.6257 5.40182 24 12 24C18.6168 24 24 18.6168 24 12C24 5.3832 18.6168 0 12 0ZM14.1818 17.4545H13.0909V18.5455C13.0909 19.9835 10.9091 19.9894 10.9091 18.5455V17.4545H7.63636C6.19833 17.4545 6.19244 15.2727 7.63636 15.2727H8.72727V8.72727H7.63636C6.19833 8.72727 6.19244 6.54545 7.63636 6.54545H10.9091V5.45455C10.9091 4.01651 13.0909 4.01062 13.0909 5.45455V6.54545H14.1818C16.9819 6.54545 18.521 9.87353 16.6033 12C18.521 14.1265 16.9819 17.4545 14.1818 17.4545Z" fill="#1F2431"/>
</svg>
