<svg width="470" height="305" viewBox="0 0 470 305" fill="none" xmlns="http://www.w3.org/2000/svg">
<path d="M389.295 46.0484L234.385 8.7373V300.715L389.295 260.165V46.0484Z" fill="#535461"/>
<path opacity="0.1" d="M389.295 46.0484L234.385 8.7373V300.715L389.295 260.165V46.0484Z" fill="black"/>
<path d="M79.4814 46.0484L234.385 8.7373V300.715L79.4814 260.971V46.0484Z" fill="#535461"/>
<path opacity="0.17" d="M79.4814 44.7579L234.385 7.44678V300.715L79.4814 260.971V44.7579Z" fill="black"/>
<path d="M246.323 83.45H145.527C145.242 83.45 145.011 83.6811 145.011 83.9662V84.8309C145.011 85.116 145.242 85.3471 145.527 85.3471H246.323C246.608 85.3471 246.839 85.116 246.839 84.8309V83.9662C246.839 83.6811 246.608 83.45 246.323 83.45Z" fill="#E0E0E0"/>
<path d="M203.224 89.135H145.527C145.242 89.135 145.011 89.3661 145.011 89.6512V90.5159C145.011 90.801 145.242 91.0322 145.527 91.0322H203.224C203.509 91.0322 203.74 90.801 203.74 90.5159V89.6512C203.74 89.3661 203.509 89.135 203.224 89.135Z" fill="#E0E0E0"/>
<g opacity="0.5">
<path opacity="0.5" d="M259.139 33.0199V30.187H248.846V33.0199H241.645V46.9131H266.34V33.0199H259.139ZM250.104 31.2195H257.848V33.0199H250.104V31.2195Z" fill="url(#paint0_linear)"/>
</g>
<path d="M287.319 83.1144H220.905V85.9408H287.319V83.1144Z" fill="#E0E0E0"/>
<path d="M287.319 88.0637H220.905V90.8901H287.319V88.0637Z" fill="#E0E0E0"/>
<path opacity="0.6" d="M287.319 78.1714H266.36V80.9978H287.319V78.1714Z" fill="#3AD29F"/>
<path d="M265.179 99.6017H244.22V102.428H265.179V99.6017Z" fill="#6C63FF"/>
<path opacity="0.07" d="M327.656 188.795V259.352L389.295 242.322V171.759L327.656 188.795Z" fill="black"/>
<path d="M353.914 28.1221H308.227V72.0152H353.914V28.1221Z" fill="url(#paint1_linear)"/>
<g opacity="0.5">
<path opacity="0.5" d="M334.987 36.5432V34.3621H327.16V36.5174H321.681V47.0873H340.466V36.5432H334.987ZM328.14 35.1751H334.013V36.5432H328.14V35.1751Z" fill="url(#paint2_linear)"/>
</g>
<path opacity="0.6" d="M327.489 34.9299V37.4401H328.386V35.6462H333.761V37.4401H334.651V34.9299H327.489Z" fill="#6C63FF"/>
<g opacity="0.6">
<path opacity="0.6" d="M339.401 54.1017H323.456V56.2505H339.401V54.1017Z" fill="#6C63FF"/>
</g>
<path opacity="0.1" d="M77.4551 157.569L164.235 179.464L233.985 122.691V87.8186L79.0748 48.8878L77.4551 157.569Z" fill="black"/>
<path opacity="0.1" d="M390.515 157.569L303.735 179.464L233.985 122.691V87.8186L388.895 48.8878L390.515 157.569Z" fill="black"/>
<path d="M389.295 46.0485L469.59 111.74L315.492 150.671L234.385 87.4121L389.295 46.0485Z" fill="#535461"/>
<path d="M123.618 64.3111C122.343 63.037 120.848 62.0041 119.205 61.2621V29.7847C119.205 29.602 119.169 29.421 119.099 29.2522C119.029 29.0833 118.927 28.9299 118.798 28.8007C118.668 28.6714 118.515 28.5689 118.346 28.499C118.177 28.4291 117.996 28.3931 117.813 28.3931H110.021C109.838 28.3931 109.657 28.4291 109.489 28.499C109.32 28.5689 109.166 28.6714 109.037 28.8007C108.908 28.9299 108.805 29.0833 108.735 29.2522C108.665 29.421 108.629 29.602 108.629 29.7847V60.6583C105.813 61.5926 103.361 63.3903 101.624 65.7963C99.8865 68.2023 98.9509 71.0944 98.95 74.0622V141.585C98.95 143.227 99.6019 144.8 100.762 145.961C101.923 147.121 103.497 147.773 105.138 147.773H121.829C123.463 147.773 125.029 147.124 126.184 145.969C127.339 144.814 127.988 143.248 127.988 141.614V74.8581C127.991 72.8988 127.606 70.9585 126.856 69.1484C126.106 67.3384 125.006 65.6945 123.618 64.3111Z" fill="#CCCCCC"/>
<path d="M127.988 83.9604H98.9501V122.32H127.988V83.9604Z" fill="#2AD2BE" fill-opacity="0.5"/>
<path d="M119.833 30.5441H119.205V29.7847C119.205 29.602 119.169 29.421 119.099 29.2522C119.029 29.0833 118.927 28.9299 118.798 28.8007C118.668 28.6714 118.515 28.5689 118.346 28.499C118.177 28.4291 117.996 28.3931 117.814 28.3931H110.021C109.838 28.3931 109.658 28.4291 109.489 28.499C109.32 28.5689 109.166 28.6714 109.037 28.8007C108.908 28.9299 108.805 29.0833 108.736 29.2522C108.666 29.421 108.63 29.602 108.63 29.7847V30.5441H108.002V33.7705H108.63V50.2615H119.205V33.7705H119.833V30.5441Z" fill="#2AD2BE" fill-opacity="0.5"/>
<path d="M150.721 64.3111C149.446 63.037 147.95 62.0041 146.308 61.2621V29.7847C146.308 29.602 146.272 29.421 146.202 29.2522C146.132 29.0833 146.029 28.9299 145.9 28.8007C145.771 28.6714 145.617 28.5689 145.449 28.499C145.28 28.4291 145.099 28.3931 144.916 28.3931H137.124C136.941 28.3931 136.76 28.4291 136.591 28.499C136.422 28.5689 136.269 28.6714 136.14 28.8007C136.01 28.9299 135.908 29.0833 135.838 29.2522C135.768 29.421 135.732 29.602 135.732 29.7847V60.6583C132.915 61.5926 130.464 63.3903 128.726 65.7963C126.989 68.2023 126.053 71.0944 126.052 74.0622V141.585C126.052 143.227 126.704 144.8 127.865 145.961C129.025 147.121 130.599 147.773 132.24 147.773H148.932C150.565 147.773 152.132 147.124 153.287 145.969C154.442 144.814 155.091 143.248 155.091 141.614V74.8581C155.093 72.8988 154.708 70.9585 153.958 69.1484C153.208 67.3384 152.108 65.6945 150.721 64.3111Z" fill="#CCCCCC"/>
<path d="M155.091 83.9604H126.052V122.32H155.091V83.9604Z" fill="#2AD2BE" fill-opacity="0.5"/>
<path d="M146.935 30.5441H146.308V29.7847C146.308 29.602 146.272 29.421 146.202 29.2522C146.132 29.0833 146.029 28.9299 145.9 28.8007C145.771 28.6714 145.617 28.5689 145.449 28.499C145.28 28.4291 145.099 28.3931 144.916 28.3931H137.124C136.941 28.3931 136.76 28.4291 136.591 28.499C136.422 28.5689 136.269 28.6714 136.14 28.8007C136.01 28.9299 135.908 29.0833 135.838 29.2522C135.768 29.421 135.732 29.602 135.732 29.7847V30.5441H135.105V33.7705H135.732V50.2615H146.308V33.7705H146.935V30.5441Z" fill="#2AD2BE" fill-opacity="0.5"/>
<path d="M178.469 64.3111C177.193 63.037 175.698 62.0041 174.055 61.2621V29.7847C174.055 29.602 174.019 29.421 173.95 29.2522C173.88 29.0833 173.777 28.9299 173.648 28.8007C173.519 28.6714 173.365 28.5689 173.196 28.499C173.028 28.4291 172.847 28.3931 172.664 28.3931H164.871C164.689 28.3931 164.508 28.4291 164.339 28.499C164.17 28.5689 164.017 28.6714 163.887 28.8007C163.758 28.9299 163.656 29.0833 163.586 29.2522C163.516 29.421 163.48 29.602 163.48 29.7847V60.6583C160.663 61.5926 158.212 63.3903 156.474 65.7963C154.737 68.2023 153.801 71.0944 153.8 74.0622V141.585C153.8 143.227 154.452 144.8 155.613 145.961C156.773 147.121 158.347 147.773 159.988 147.773H176.68C178.313 147.773 179.88 147.124 181.035 145.969C182.19 144.814 182.839 143.248 182.839 141.614V74.8581C182.841 72.8988 182.456 70.9585 181.706 69.1484C180.956 67.3384 179.856 65.6945 178.469 64.3111Z" fill="#CCCCCC"/>
<path d="M182.839 83.9604H153.8V122.32H182.839V83.9604Z" fill="#2AD2BE" fill-opacity="0.5"/>
<path d="M174.683 30.5441H174.056V29.7847C174.056 29.602 174.02 29.421 173.95 29.2522C173.88 29.0833 173.777 28.9299 173.648 28.8007C173.519 28.6714 173.365 28.5689 173.196 28.499C173.028 28.4291 172.847 28.3931 172.664 28.3931H164.871C164.689 28.3931 164.508 28.4291 164.339 28.499C164.17 28.5689 164.017 28.6714 163.887 28.8007C163.758 28.9299 163.656 29.0833 163.586 29.2522C163.516 29.421 163.48 29.602 163.48 29.7847V30.5441H162.852V33.7705H163.48V50.2615H174.056V33.7705H174.683V30.5441Z" fill="#2AD2BE" fill-opacity="0.5"/>
<path d="M206.216 64.3111C204.941 63.037 203.446 62.0041 201.803 61.2621V29.7847C201.803 29.602 201.767 29.421 201.697 29.2522C201.627 29.0833 201.525 28.9299 201.396 28.8007C201.266 28.6714 201.113 28.5689 200.944 28.499C200.775 28.4291 200.594 28.3931 200.412 28.3931H192.619C192.436 28.3931 192.255 28.4291 192.087 28.499C191.918 28.5689 191.764 28.6714 191.635 28.8007C191.506 28.9299 191.403 29.0833 191.333 29.2522C191.264 29.421 191.228 29.602 191.228 29.7847V60.6583C188.411 61.5926 185.96 63.3903 184.222 65.7963C182.485 68.2023 181.549 71.0944 181.548 74.0622V141.585C181.548 143.227 182.2 144.8 183.36 145.961C184.521 147.121 186.095 147.773 187.736 147.773H204.427C206.061 147.773 207.628 147.124 208.783 145.969C209.938 144.814 210.586 143.248 210.586 141.614V74.8581C210.589 72.8988 210.204 70.9585 209.454 69.1484C208.704 67.3384 207.604 65.6945 206.216 64.3111Z" fill="#CCCCCC"/>
<path d="M210.586 83.9604H181.548V122.32H210.586V83.9604Z" fill="#2AD2BE" fill-opacity="0.5"/>
<path d="M202.431 30.5441H201.803V29.7847C201.803 29.602 201.767 29.421 201.697 29.2522C201.627 29.0833 201.525 28.9299 201.396 28.8007C201.266 28.6714 201.113 28.5689 200.944 28.499C200.775 28.4291 200.594 28.3931 200.412 28.3931H192.619C192.436 28.3931 192.256 28.4291 192.087 28.499C191.918 28.5689 191.764 28.6714 191.635 28.8007C191.506 28.9299 191.403 29.0833 191.334 29.2522C191.264 29.421 191.228 29.602 191.228 29.7847V30.5441H190.6V33.7705H191.228V50.2615H201.803V33.7705H202.431V30.5441Z" fill="#2AD2BE" fill-opacity="0.5"/>
<path d="M233.964 64.3111C232.689 63.037 231.194 62.0041 229.551 61.2621V29.7847C229.551 29.602 229.515 29.421 229.445 29.2522C229.375 29.0833 229.273 28.9299 229.143 28.8007C229.014 28.6714 228.861 28.5689 228.692 28.499C228.523 28.4291 228.342 28.3931 228.159 28.3931H220.367C220.184 28.3931 220.003 28.4291 219.834 28.499C219.666 28.5689 219.512 28.6714 219.383 28.8007C219.254 28.9299 219.151 29.0833 219.081 29.2522C219.011 29.421 218.975 29.602 218.975 29.7847V60.6583C216.158 61.5926 213.707 63.3903 211.97 65.7963C210.232 68.2023 209.297 71.0944 209.296 74.0622V141.585C209.296 143.227 209.948 144.8 211.108 145.961C212.269 147.121 213.843 147.773 215.484 147.773H232.175C233.809 147.773 235.375 147.124 236.53 145.969C237.685 144.814 238.334 143.248 238.334 141.614V74.8581C238.337 72.8988 237.952 70.9585 237.202 69.1484C236.452 67.3384 235.352 65.6945 233.964 64.3111Z" fill="#CCCCCC"/>
<path d="M238.334 83.9604H209.296V122.32H238.334V83.9604Z" fill="#2AD2BE" fill-opacity="0.5"/>
<path d="M230.178 30.5441H229.551V29.7847C229.551 29.602 229.515 29.421 229.445 29.2522C229.375 29.0833 229.273 28.9299 229.144 28.8007C229.014 28.6714 228.861 28.5689 228.692 28.499C228.523 28.4291 228.342 28.3931 228.159 28.3931H220.367C220.184 28.3931 220.003 28.4291 219.834 28.499C219.666 28.5689 219.512 28.6714 219.383 28.8007C219.254 28.9299 219.151 29.0833 219.081 29.2522C219.011 29.421 218.975 29.602 218.975 29.7847V30.5441H218.348V33.7705H218.975V50.2615H229.551V33.7705H230.178V30.5441Z" fill="#2AD2BE" fill-opacity="0.5"/>
<path d="M219.122 44.9522C217.847 43.6781 216.352 42.6452 214.709 41.9032V10.4258C214.709 10.2431 214.673 10.0621 214.603 9.89327C214.533 9.72443 214.431 9.57101 214.302 9.44179C214.172 9.31256 214.019 9.21005 213.85 9.14011C213.681 9.07018 213.5 9.03418 213.318 9.03418H205.525C205.342 9.03418 205.162 9.07018 204.993 9.14011C204.824 9.21005 204.67 9.31256 204.541 9.44179C204.412 9.57101 204.309 9.72443 204.239 9.89327C204.17 10.0621 204.134 10.2431 204.134 10.4258V41.2994C201.317 42.2337 198.866 44.0314 197.128 46.4374C195.391 48.8434 194.455 51.7355 194.454 54.7033V122.227C194.454 123.868 195.106 125.442 196.266 126.602C197.427 127.762 199.001 128.414 200.642 128.414H217.333C218.967 128.414 220.534 127.765 221.689 126.61C222.844 125.455 223.492 123.889 223.492 122.255V55.4992C223.495 53.54 223.11 51.5996 222.36 49.7896C221.61 47.9795 220.51 46.3356 219.122 44.9522Z" fill="#CCCCCC"/>
<path d="M223.493 64.6014H194.454V102.961H223.493V64.6014Z" fill="#2AD2BE" fill-opacity="0.5"/>
<path d="M215.337 11.1852H214.709V10.4258C214.709 10.2431 214.673 10.0621 214.603 9.89327C214.533 9.72443 214.431 9.57101 214.302 9.44179C214.172 9.31256 214.019 9.21005 213.85 9.14011C213.681 9.07018 213.5 9.03418 213.318 9.03418H205.525C205.343 9.03418 205.162 9.07018 204.993 9.14011C204.824 9.21005 204.67 9.31256 204.541 9.44179C204.412 9.57101 204.309 9.72443 204.24 9.89327C204.17 10.0621 204.134 10.2431 204.134 10.4258V11.1852H203.506V14.4117H204.134V30.9026H214.709V14.4117H215.337V11.1852Z" fill="#2AD2BE" fill-opacity="0.5"/>
<path d="M259.776 40.4351C258.501 39.161 257.006 38.1281 255.363 37.3861V5.90874C255.363 5.72599 255.327 5.54502 255.257 5.37618C255.187 5.20734 255.085 5.05392 254.955 4.9247C254.826 4.79547 254.673 4.69296 254.504 4.62302C254.335 4.55309 254.154 4.51709 253.971 4.51709H246.179C245.996 4.51709 245.815 4.55309 245.646 4.62302C245.478 4.69296 245.324 4.79547 245.195 4.9247C245.066 5.05392 244.963 5.20734 244.893 5.37618C244.823 5.54502 244.787 5.72599 244.787 5.90874V36.7823C241.97 37.7166 239.519 39.5143 237.782 41.9203C236.044 44.3263 235.109 47.2185 235.108 50.1862V117.709C235.108 119.351 235.76 120.924 236.92 122.085C238.081 123.245 239.654 123.897 241.296 123.897H257.987C259.621 123.897 261.187 123.248 262.342 122.093C263.497 120.938 264.146 119.372 264.146 117.738V50.9821C264.149 49.0229 263.764 47.0825 263.014 45.2725C262.264 43.4624 261.164 41.8185 259.776 40.4351Z" fill="#CCCCCC"/>
<path d="M264.146 60.0844H235.108V98.4437H264.146V60.0844Z" fill="#2AD2BE" fill-opacity="0.5"/>
<path d="M255.99 6.66808H255.363V5.90874C255.363 5.72599 255.327 5.54502 255.257 5.37618C255.187 5.20734 255.085 5.05392 254.955 4.9247C254.826 4.79547 254.673 4.69296 254.504 4.62302C254.335 4.55309 254.154 4.51709 253.971 4.51709H246.179C245.996 4.51709 245.815 4.55309 245.646 4.62302C245.478 4.69296 245.324 4.79547 245.195 4.9247C245.066 5.05392 244.963 5.20734 244.893 5.37618C244.823 5.54502 244.787 5.72599 244.787 5.90874V6.66808H244.16V9.89457H244.787V26.3855H255.363V9.89457H255.99V6.66808Z" fill="#2AD2BE" fill-opacity="0.5"/>
<path d="M300.43 35.918C299.155 34.6439 297.66 33.611 296.017 32.869V1.39165C296.017 1.2089 295.981 1.02793 295.911 0.859091C295.841 0.690248 295.738 0.536834 295.609 0.407607C295.48 0.27838 295.327 0.17587 295.158 0.105933C294.989 0.0359954 294.808 0 294.625 0H286.833C286.65 -2.64817e-07 286.469 0.0359955 286.3 0.105933C286.131 0.17587 285.978 0.27838 285.849 0.407607C285.719 0.536834 285.617 0.690248 285.547 0.859091C285.477 1.02793 285.441 1.2089 285.441 1.39165V32.2652C282.624 33.1995 280.173 34.9972 278.436 37.4032C276.698 39.8093 275.763 42.7014 275.762 45.6692V113.192C275.762 114.833 276.414 116.407 277.574 117.568C278.734 118.728 280.308 119.38 281.949 119.38H298.641C300.274 119.38 301.841 118.731 302.996 117.576C304.151 116.421 304.8 114.855 304.8 113.221V46.465C304.802 44.5058 304.417 42.5654 303.668 40.7554C302.918 38.9454 301.817 37.3014 300.43 35.918Z" fill="#CCCCCC"/>
<path d="M304.8 55.5673H275.762V93.9266H304.8V55.5673Z" fill="#2AD2BE" fill-opacity="0.5"/>
<path d="M296.644 2.15099H296.017V1.39165C296.017 1.2089 295.981 1.02793 295.911 0.859092C295.841 0.690248 295.738 0.536834 295.609 0.407607C295.48 0.27838 295.327 0.17587 295.158 0.105933C294.989 0.0359954 294.808 0 294.625 0H286.833C286.65 -2.64817e-07 286.469 0.0359955 286.3 0.105933C286.131 0.17587 285.978 0.27838 285.849 0.407607C285.719 0.536834 285.617 0.690248 285.547 0.859092C285.477 1.02793 285.441 1.2089 285.441 1.39165V2.15099H284.814V5.37748H285.441V21.8684H296.017V5.37748H296.644V2.15099Z" fill="#2AD2BE" fill-opacity="0.5"/>
<path d="M261.712 64.3111C260.437 63.037 258.942 62.0041 257.299 61.2621V29.7847C257.299 29.602 257.263 29.421 257.193 29.2522C257.123 29.0833 257.021 28.9299 256.891 28.8007C256.762 28.6714 256.609 28.5689 256.44 28.499C256.271 28.4291 256.09 28.3931 255.907 28.3931H248.115C247.932 28.3931 247.751 28.4291 247.582 28.499C247.413 28.5689 247.26 28.6714 247.131 28.8007C247.002 28.9299 246.899 29.0833 246.829 29.2522C246.759 29.421 246.723 29.602 246.723 29.7847V60.6583C243.906 61.5926 241.455 63.3903 239.718 65.7963C237.98 68.2023 237.045 71.0944 237.044 74.0622V141.585C237.044 143.227 237.696 144.8 238.856 145.961C240.016 147.121 241.59 147.773 243.231 147.773H259.923C261.557 147.773 263.123 147.124 264.278 145.969C265.433 144.814 266.082 143.248 266.082 141.614V74.8581C266.084 72.8988 265.7 70.9585 264.95 69.1484C264.2 67.3384 263.099 65.6945 261.712 64.3111Z" fill="#CCCCCC"/>
<path d="M266.082 83.9604H237.044V122.32H266.082V83.9604Z" fill="#2AD2BE" fill-opacity="0.5"/>
<path d="M257.926 30.5441H257.299V29.7847C257.299 29.602 257.263 29.421 257.193 29.2522C257.123 29.0833 257.021 28.9299 256.891 28.8007C256.762 28.6714 256.609 28.5689 256.44 28.499C256.271 28.4291 256.09 28.3931 255.907 28.3931H248.115C247.932 28.3931 247.751 28.4291 247.582 28.499C247.413 28.5689 247.26 28.6714 247.131 28.8007C247.002 28.9299 246.899 29.0833 246.829 29.2522C246.759 29.421 246.723 29.602 246.723 29.7847V30.5441H246.096V33.7705H246.723V50.2615H257.299V33.7705H257.926V30.5441Z" fill="#2AD2BE" fill-opacity="0.5"/>
<path d="M289.46 64.3111C288.185 63.037 286.689 62.0041 285.047 61.2621V29.7847C285.047 29.602 285.011 29.421 284.941 29.2522C284.871 29.0833 284.768 28.9299 284.639 28.8007C284.51 28.6714 284.356 28.5689 284.188 28.499C284.019 28.4291 283.838 28.3931 283.655 28.3931H275.863C275.68 28.3931 275.499 28.4291 275.33 28.499C275.161 28.5689 275.008 28.6714 274.879 28.8007C274.749 28.9299 274.647 29.0833 274.577 29.2522C274.507 29.421 274.471 29.602 274.471 29.7847V60.6583C271.654 61.5926 269.203 63.3903 267.466 65.7963C265.728 68.2023 264.792 71.0944 264.792 74.0622V141.585C264.792 143.227 265.443 144.8 266.604 145.961C267.764 147.121 269.338 147.773 270.979 147.773H287.671C289.304 147.773 290.871 147.124 292.026 145.969C293.181 144.814 293.83 143.248 293.83 141.614V74.8581C293.832 72.8988 293.447 70.9585 292.697 69.1484C291.947 67.3384 290.847 65.6945 289.46 64.3111Z" fill="#CCCCCC"/>
<path d="M293.83 83.9604H264.792V122.32H293.83V83.9604Z" fill="#2AD2BE" fill-opacity="0.5"/>
<path d="M285.674 30.5441H285.047V29.7847C285.047 29.602 285.011 29.421 284.941 29.2522C284.871 29.0833 284.768 28.9299 284.639 28.8007C284.51 28.6714 284.356 28.5689 284.188 28.499C284.019 28.4291 283.838 28.3931 283.655 28.3931H275.863C275.68 28.3931 275.499 28.4291 275.33 28.499C275.161 28.5689 275.008 28.6714 274.879 28.8007C274.749 28.9299 274.647 29.0833 274.577 29.2522C274.507 29.421 274.471 29.602 274.471 29.7847V30.5441H273.844V33.7705H274.471V50.2615H285.047V33.7705H285.674V30.5441Z" fill="#2AD2BE" fill-opacity="0.5"/>
<path d="M317.208 64.3111C315.932 63.037 314.437 62.0041 312.794 61.2621V29.7847C312.794 29.602 312.758 29.421 312.689 29.2522C312.619 29.0833 312.516 28.9299 312.387 28.8007C312.258 28.6714 312.104 28.5689 311.935 28.499C311.767 28.4291 311.586 28.3931 311.403 28.3931H303.61C303.428 28.3931 303.247 28.4291 303.078 28.499C302.909 28.5689 302.756 28.6714 302.626 28.8007C302.497 28.9299 302.395 29.0833 302.325 29.2522C302.255 29.421 302.219 29.602 302.219 29.7847V60.6583C299.402 61.5926 296.951 63.3903 295.213 65.7963C293.476 68.2023 292.54 71.0944 292.539 74.0622V141.585C292.539 143.227 293.191 144.8 294.352 145.961C295.512 147.121 297.086 147.773 298.727 147.773H315.419C317.052 147.773 318.619 147.124 319.774 145.969C320.929 144.814 321.578 143.248 321.578 141.614V74.8581C321.58 72.8988 321.195 70.9585 320.445 69.1484C319.695 67.3384 318.595 65.6945 317.208 64.3111Z" fill="#CCCCCC"/>
<path d="M321.578 83.9604H292.539V122.32H321.578V83.9604Z" fill="#2AD2BE" fill-opacity="0.5"/>
<path d="M313.422 30.5441H312.795V29.7847C312.795 29.602 312.759 29.421 312.689 29.2522C312.619 29.0833 312.516 28.9299 312.387 28.8007C312.258 28.6714 312.104 28.5689 311.935 28.499C311.767 28.4291 311.586 28.3931 311.403 28.3931H303.61C303.428 28.3931 303.247 28.4291 303.078 28.499C302.909 28.5689 302.756 28.6714 302.626 28.8007C302.497 28.9299 302.395 29.0833 302.325 29.2522C302.255 29.421 302.219 29.602 302.219 29.7847V30.5441H301.591V33.7705H302.219V50.2615H312.795V33.7705H313.422V30.5441Z" fill="#2AD2BE" fill-opacity="0.5"/>
<path d="M79.4813 46.0485L0 111.74L154.904 150.671L234.385 87.4121L79.4813 46.0485Z" fill="#535461"/>
<path d="M79.4814 46.0485V260.971L234.385 300.715L236.476 87.4121L79.4814 46.0485Z" fill="#535461"/>
<path opacity="0.07" d="M401.633 264.45L246.723 305V91.6968L401.633 50.3333V264.45Z" fill="black"/>
<path d="M389.295 260.165L234.385 300.715V87.4121L389.295 46.0485V260.165Z" fill="#535461"/>
<path opacity="0.07" d="M389.295 46.0485L469.59 111.74L315.492 150.671L234.385 87.4121L389.295 46.0485Z" fill="black"/>
<defs>
<linearGradient id="paint0_linear" x1="15855.9" y1="7263.4" x2="15855.9" y2="6829.86" gradientUnits="userSpaceOnUse">
<stop stop-color="#808080" stop-opacity="0.25"/>
<stop offset="0.54" stop-color="#808080" stop-opacity="0.12"/>
<stop offset="1" stop-color="#808080" stop-opacity="0.1"/>
</linearGradient>
<linearGradient id="paint1_linear" x1="24006.6" y1="17743.4" x2="24006.6" y2="14757.8" gradientUnits="userSpaceOnUse">
<stop stop-color="#808080" stop-opacity="0.25"/>
<stop offset="0.54" stop-color="#808080" stop-opacity="0.12"/>
<stop offset="1" stop-color="#808080" stop-opacity="0.1"/>
</linearGradient>
<linearGradient id="paint2_linear" x1="14442.3" y1="5541.35" x2="14442.3" y2="5290.54" gradientUnits="userSpaceOnUse">
<stop stop-color="#808080" stop-opacity="0.25"/>
<stop offset="0.54" stop-color="#808080" stop-opacity="0.12"/>
<stop offset="1" stop-color="#808080" stop-opacity="0.1"/>
</linearGradient>
</defs>
</svg>
