<svg width="574" height="294" viewBox="0 0 574 294" fill="none" xmlns="http://www.w3.org/2000/svg">
<path d="M285.738 72.5552L285.724 72.6554L285.683 72.945L281.464 103.215L255.636 112.691L255.231 112.498L240.771 105.63L233.293 76.9404L232.781 74.9709L232.937 74.911L264.927 62.8926L285.719 72.5437L285.738 72.5552Z" fill="#38C8E8"/>
<path d="M255.231 112.498L240.771 105.63L232.781 74.9709L232.937 74.911L253.778 83.7038L255.231 112.498Z" fill="#38C8E8"/>
<path opacity="0.2" d="M255.594 112.148L244.595 91.0688L246.007 85.093L239.354 77.2582L238.787 77.7395L245.197 85.2876L240.409 105.544L241.133 105.716L244.333 92.1748L254.935 112.491L255.594 112.148Z" fill="#30C1B0"/>
<path d="M285.738 72.9266L285.683 72.945L253.778 84.0757L233.293 76.9404L232.781 74.9709L232.937 74.911L264.927 62.8926L285.719 72.5437L285.724 72.6554L285.738 72.9266Z" fill="#30C1B0"/>
<path d="M254.336 84.6331L247.832 79.6163L249.318 74.0418L267.9 67.3521L280.535 68.0953L285.553 72.3693L285.924 73.4839L254.336 84.6331Z" fill="#38C8E8"/>
<path d="M233.152 74.9708L247.832 74.413L255.784 71.714L268.182 67.3519L270.501 64.0076L264.715 62.9719L233.152 74.9708Z" fill="#38C8E8"/>
<path d="M262.399 68.9906L254.745 71.6766L254.991 72.3778L262.645 69.6918L262.399 68.9906Z" fill="#CCCCCC"/>
<path d="M161.583 25.5292L157.994 43.4699L174.739 56.029L182.514 32.7054L161.583 25.5292Z" fill="#9F616A"/>
<path d="M175.039 41.975C183.956 41.975 191.186 34.7457 191.186 25.8279C191.186 16.9102 183.956 9.68091 175.039 9.68091C166.121 9.68091 158.891 16.9102 158.891 25.8279C158.891 34.7457 166.121 41.975 175.039 41.975Z" fill="#9F616A"/>
<path d="M140.053 148.172C140.127 153.381 162.816 211.36 159.666 218.909C154.7 223.985 144.018 251.003 139.455 258.211C138.857 258.211 135.867 267.181 135.867 267.181C135.867 267.181 143.043 278.544 150.818 273.76C160.593 250.768 185.076 237.944 185.508 207.977C186.69 217.444 190.178 278.207 190.178 278.207C190.178 278.207 189.509 278.491 204.571 279.934C206.909 244.668 216.465 184.669 195.072 146.975C188.494 143.985 140.053 148.172 140.053 148.172Z" fill="#2F2E41"/>
<path d="M190.177 277.024C189.478 278.369 184.464 290.78 189.027 292.024C194.289 293.459 199.39 291.448 199.39 291.448C199.39 291.448 208.601 294.327 214.238 290.669C216.869 288.038 216.271 285.646 215.016 283.912C214.378 283.057 213.561 282.353 212.622 281.847C211.684 281.341 210.646 281.046 209.582 280.983C206.721 280.779 205.813 280.249 205.485 278.938C205.007 277.024 190.177 277.024 190.177 277.024Z" fill="#2F2E41"/>
<path d="M140.97 266.187C140.97 266.187 128.116 270.246 130.822 274.981C132.58 277.916 135.146 280.283 138.213 281.797C138.213 281.797 140.894 292.848 148.336 292.848C152.056 292.848 153.325 290.734 153.663 288.62C153.816 287.565 153.737 286.489 153.431 285.468C153.125 284.446 152.6 283.504 151.892 282.707C150.013 280.54 149.746 279.522 150.441 278.364C151.456 276.673 140.97 266.187 140.97 266.187Z" fill="#2F2E41"/>
<path d="M198.065 149.922C198.065 149.922 195.671 154.706 186.102 152.91C176.534 151.12 138.86 152.91 138.86 152.91C138.86 152.91 140.95 110.152 136.165 84.4355C131.381 58.7187 150.218 44.0669 150.218 44.0669L156.2 38.0853C162.182 37.4923 174.813 56.0531 174.813 56.0531C178.969 56.7498 182.85 74.4182 186.16 91.1368C186.356 92.0924 186.54 93.0366 186.724 93.9808C188.25 101.776 190.374 110.452 191.646 118.241C191.738 118.794 191.825 119.341 191.905 119.888C193.418 130.003 195.474 140.029 198.065 149.922V149.922Z" fill="#30C1B0"/>
<path d="M156.149 15.774C156.149 15.774 153.13 9.13231 160.979 6.11336C160.979 6.11336 167.621 -4.75484 180.904 2.49064C180.904 2.49064 189.961 6.11336 189.961 15.774C189.961 25.4346 192.98 27.246 192.98 27.246C192.98 27.246 188.484 22.6338 187.276 19.011C186.069 15.3883 176.677 14.5664 173.055 18.1892C169.432 21.8119 160.375 21.2081 160.375 21.2081L160.979 34.4914C160.979 34.4914 157.96 26.6422 156.752 26.6422C155.545 26.6422 154.337 15.774 156.149 15.774Z" fill="#2F2E41"/>
<path opacity="0.2" d="M191.646 118.241C177.38 110.486 154.272 93.48 146.816 84.2802C136.989 72.1616 147.708 62.9503 147.708 62.9503C159.862 55.2818 174.393 81.5917 174.393 81.5917L186.16 91.1369C186.356 92.0926 186.54 93.0367 186.724 93.9809C188.25 101.776 190.374 110.452 191.646 118.241Z" fill="black"/>
<path d="M234.233 109.304C234.233 109.304 255.442 117.914 258.933 108.236C262.424 98.5569 242.188 98.723 242.188 98.723L234.244 99.8486L234.233 109.304Z" fill="#9F616A"/>
<path d="M144.99 59.0117C144.99 59.0117 134.275 68.2284 144.096 80.3431C153.916 92.4577 199.047 118.342 199.047 118.342L228.445 110.395L236.765 111.917L238.333 96.2982L226.077 97.4946L194.965 90.8701L175.126 74.7726C175.126 74.7726 157.14 51.3474 144.99 59.0117Z" fill="#E6E6E6"/>
<path opacity="0.2" d="M184.022 170.042L185.897 213.843L181.144 170.042H184.022Z" fill="black"/>
<path d="M386.404 138.71L369.387 142.653C368.071 142.958 366.688 142.738 365.531 142.039C364.374 141.34 363.536 140.218 363.194 138.911V138.911C362.995 138.153 362.971 137.36 363.122 136.591C363.274 135.822 363.598 135.098 364.069 134.472C364.541 133.846 365.148 133.335 365.845 132.977C366.542 132.619 367.311 132.424 368.095 132.406L384.532 132.024L386.404 138.71Z" fill="#FFB9B9"/>
<path d="M384.598 141.207L380.818 129.869L403.475 122.13L397.462 69.1735C408.289 71.142 413.442 79.6558 412.959 90.6496L415.89 126.786L384.598 141.207Z" fill="#3F3D56"/>
<path d="M400.252 57.4979H437.269V39.0894C437.282 34.1177 435.334 29.3415 431.847 25.7972C430.145 24.051 428.109 22.664 425.861 21.7181C423.613 20.7722 421.198 20.2867 418.759 20.2902C413.889 20.2992 409.217 22.2248 405.755 25.6506C402.293 29.0765 400.318 33.7274 400.258 38.5977C400.255 38.7663 400.252 38.9264 400.252 39.0894L400.252 57.4979Z" fill="#2F2E41"/>
<path d="M452.747 273.824L440.914 272.466L426.753 176.833L397.462 272.854L384.659 273.242L399.208 155.107L397.074 128.144L433.348 116.699C459.041 134.634 458.509 197.982 452.747 273.824Z" fill="#2F2E41"/>
<path d="M415.502 53.8491C423.216 53.8491 429.469 47.596 429.469 39.8824C429.469 32.1689 423.216 25.9158 415.502 25.9158C407.789 25.9158 401.536 32.1689 401.536 39.8824C401.536 47.596 407.789 53.8491 415.502 53.8491Z" fill="#FFB9B9"/>
<path d="M429.469 65.0999L405.803 71.3074C409.791 63.6394 411.066 56.4814 408.907 49.9694L425.589 47.2537C424.517 53.4805 425.908 59.8803 429.469 65.0999V65.0999Z" fill="#FFB9B9"/>
<path d="M437.422 121.936C424.149 130.378 408.686 140.075 397.268 130.666L391.836 104.284C387.52 100.439 389.434 88.5741 395.27 71.662C395.64 70.5885 396.251 69.6135 397.054 68.8109C397.858 68.0082 398.833 67.3991 399.907 67.0296L408.907 63.936C412.895 67.2901 419.433 65.2896 427.141 60.8323L436.064 63.1601L439.944 92.2572C434.343 100.648 435.322 111.821 437.422 121.936Z" fill="#38C8E8"/>
<path d="M426.364 133.279L409.347 137.222C408.031 137.527 406.648 137.306 405.491 136.608C404.334 135.909 403.496 134.787 403.154 133.48C402.955 132.722 402.931 131.928 403.082 131.16C403.234 130.391 403.558 129.666 404.029 129.04C404.501 128.414 405.108 127.903 405.805 127.546C406.502 127.188 407.271 126.993 408.055 126.974L424.492 126.592L426.364 133.279Z" fill="#FFB9B9"/>
<path d="M450.69 292.107C448.703 293.014 447.038 287.393 445.362 289.04C440.673 293.648 429.424 292.615 429.424 292.615C429.046 292.494 428.697 292.297 428.398 292.037C428.098 291.777 427.855 291.458 427.682 291.101C427.51 290.744 427.411 290.356 427.393 289.959C427.375 289.563 427.437 289.167 427.577 288.796V288.796C427.743 288.351 428.015 287.954 428.37 287.638C428.724 287.322 429.15 287.096 429.61 286.981L434.597 285.735L442.427 271.965L450.96 270.885L451.175 271.237C452.825 273.896 453.889 276.876 454.295 279.978C454.702 283.081 454.442 286.234 453.533 289.228C452.824 291.502 451.858 291.574 450.69 292.107Z" fill="#2F2E41"/>
<path d="M394.435 292.107C392.448 293.014 390.783 287.393 389.107 289.04C384.418 293.648 373.169 292.615 373.169 292.615C372.792 292.494 372.443 292.297 372.143 292.037C371.844 291.777 371.601 291.458 371.428 291.101C371.255 290.744 371.157 290.356 371.138 289.959C371.12 289.563 371.183 289.167 371.322 288.796V288.796C371.489 288.351 371.761 287.954 372.115 287.638C372.469 287.322 372.895 287.096 373.356 286.981L378.342 285.735L386.172 271.965L394.705 270.885L394.921 271.237C396.571 273.896 397.634 276.876 398.041 279.978C398.447 283.081 398.188 286.234 397.279 289.228C396.569 291.502 395.603 291.574 394.435 292.107Z" fill="#2F2E41"/>
<path d="M431.875 28.233L428.358 39.4246L397.945 38.8841C398.049 34.9684 399.374 31.183 401.734 28.0567C404.093 24.9303 407.371 22.6192 411.108 21.446C414.845 20.2729 418.856 20.2963 422.579 21.5131C426.302 22.7299 429.552 25.0793 431.875 28.233H431.875Z" fill="#2F2E41"/>
<path d="M424.558 135.776L420.778 124.438L443.435 116.699L434.865 62.5946C440.1 63.5465 444.814 66.3627 448.133 70.522C451.452 74.6812 453.152 79.9021 452.919 85.2183L455.85 121.355L424.558 135.776Z" fill="#38C8E8"/>
<path d="M370.442 105.209L346.876 110.277L342.062 87.0918L350.931 75.1822L358.912 73.6617L367.781 82.6572L370.442 105.209Z" fill="#CCCCCC"/>
<path d="M359.546 106.22H345.355L343.42 96.6693L341.302 86.2029L344.468 81.6433L350.553 83.5431L357.139 92.6681L358.792 101.966L358.907 102.628L359.546 106.22Z" fill="#E6E6E6"/>
<path d="M383.365 100.648L367.021 102.549L369.935 81.7707L376.523 75.8156L382.224 77.2093L386.026 85.9515L383.365 100.648Z" fill="#CCCCCC"/>
<path d="M385.516 88.356L383.996 96.7211L379.057 125.224L360.053 131.31L359.396 130.953L349.154 125.351L343.392 96.6577L343.42 96.6692L358.659 102.801L358.792 101.966L358.884 101.361L360.053 93.9346L365.245 88.356L382.603 84.1764L385.516 88.356Z" fill="#E6E6E6"/>
<path d="M373.482 87.4716C375.721 87.4716 377.537 85.6564 377.537 83.4173C377.537 81.1782 375.721 79.363 373.482 79.363C371.243 79.363 369.428 81.1782 369.428 83.4173C369.428 85.6564 371.243 87.4716 373.482 87.4716Z" fill="#E6E6E6"/>
<path d="M363.515 85.51L354.266 87.157L354.31 87.4064L363.559 85.7594L363.515 85.51Z" fill="white"/>
<path d="M359.396 130.953L349.154 125.351L343.392 96.6578L343.42 96.6693L341.302 86.2029L344.468 81.6433L350.553 83.5431L357.139 92.6681L358.792 101.966L358.884 101.361L358.907 102.628L358.97 106.22L359.396 130.953Z" fill="#F2F2F2"/>
<path d="M349.279 125.387L349.034 125.321L354.086 106.377L348.301 98.7506L348.503 98.5974L354.363 106.322L349.279 125.387Z" fill="#CCCCCC"/>
<path d="M352.132 114.572L351.903 114.682L359.939 131.364L360.167 131.254L352.132 114.572Z" fill="#CCCCCC"/>
<path opacity="0.2" d="M384.519 94.9851L383.567 100.242L383.519 100.247L379.26 124.821L360.255 130.902L360.141 130.957L360.065 130.798L349.359 124.948L349.237 124.915L349.302 124.666L343.595 96.2508L343.624 96.2622L342.992 93.143L343.464 92.4626L344.925 90.3594L351.006 92.2599L357.595 101.382L357.691 101.924L358.383 105.816L358.66 107.38L359.247 110.683L359.804 107.134L360.005 105.857L360.509 102.649L365.703 97.0744L368.013 96.5181L369.621 96.1305L371.833 95.5983C371.147 95.1814 370.6 94.5701 370.262 93.842C369.923 93.1139 369.809 92.3017 369.933 91.5084C370.057 90.7152 370.413 89.9765 370.957 89.3861C371.501 88.7958 372.208 88.3802 372.989 88.1921C373.769 88.0041 374.588 88.052 375.341 88.3298C376.095 88.6076 376.749 89.1028 377.22 89.7526C377.692 90.4025 377.96 91.1776 377.99 91.9799C378.02 92.7822 377.812 93.5755 377.391 94.2592L383.061 92.8934L384.458 94.899L384.519 94.9851Z" fill="black"/>
<path d="M360.002 116.205H345.812L341.758 96.1874L344.925 91.6261L351.006 93.5265L357.595 102.649L360.002 116.205Z" fill="#E6E6E6"/>
<path d="M379.513 135.21L360.509 141.291L349.613 135.337L343.848 106.64L359.115 112.785L360.509 103.916L365.703 98.3412L383.061 94.1604L385.975 98.3412L384.454 106.703L379.513 135.21Z" fill="#E6E6E6"/>
<path d="M373.939 97.4544C376.178 97.4544 377.993 95.6392 377.993 93.4001C377.993 91.161 376.178 89.3458 373.939 89.3458C371.699 89.3458 369.884 91.161 369.884 93.4001C369.884 95.6392 371.699 97.4544 373.939 97.4544Z" fill="#E6E6E6"/>
<path d="M359.863 140.74L349.621 135.138L343.858 106.445L343.887 106.456L341.768 95.99L344.934 91.4304L351.02 93.3303L357.606 102.455L359.258 111.753L359.35 111.148L359.373 112.415L359.437 116.007L359.863 140.74Z" fill="#F2F2F2"/>
<path d="M349.735 135.369L349.491 135.304L354.543 116.359L348.757 108.733L348.959 108.58L354.82 116.305L349.735 135.369Z" fill="#CCCCCC"/>
<path d="M352.588 124.554L352.359 124.664L360.395 141.346L360.623 141.236L352.588 124.554Z" fill="#CCCCCC"/>
<path d="M518.974 267.758L495.409 272.826L490.594 249.641L499.463 237.731L507.445 236.21L516.313 245.206L518.974 267.758Z" fill="#CCCCCC"/>
<path d="M508.078 268.769H493.887L491.953 259.218L489.834 248.752L493.001 244.192L499.086 246.092L505.672 255.217L507.324 264.515L507.439 265.177L508.078 268.769Z" fill="#E6E6E6"/>
<path d="M531.897 263.197L515.553 265.098L518.468 244.319L525.056 238.365L530.757 239.758L534.558 248.5L531.897 263.197Z" fill="#CCCCCC"/>
<path d="M534.049 250.905L532.529 259.27L527.589 287.773L508.585 293.858L507.929 293.501L497.687 287.9L491.924 259.206L491.953 259.218L507.192 265.349L507.324 264.514L507.417 263.91L508.585 256.483L513.778 250.905L531.136 246.725L534.049 250.905Z" fill="#E6E6E6"/>
<path d="M522.015 250.021C524.254 250.021 526.069 248.206 526.069 245.966C526.069 243.727 524.254 241.912 522.015 241.912C519.776 241.912 517.961 243.727 517.961 245.966C517.961 248.206 519.776 250.021 522.015 250.021Z" fill="#E6E6E6"/>
<path d="M512.047 248.059L502.798 249.706L502.843 249.955L512.092 248.308L512.047 248.059Z" fill="white"/>
<path d="M507.929 293.501L497.687 287.9L491.924 259.207L491.953 259.218L489.834 248.752L493.001 244.192L499.086 246.092L505.672 255.217L507.324 264.515L507.416 263.91L507.439 265.177L507.503 268.769L507.929 293.501Z" fill="#F2F2F2"/>
<path d="M497.812 287.935L497.567 287.87L502.618 268.926L496.834 261.299L497.036 261.146L502.895 268.871L497.812 287.935Z" fill="#CCCCCC"/>
<path d="M500.664 277.121L500.436 277.23L508.471 293.913L508.699 293.803L500.664 277.121Z" fill="#CCCCCC"/>
<path d="M565.54 291.647H549.996L547.693 261.711H567.843L565.54 291.647Z" fill="#E6E6E6"/>
<path d="M568.13 273.801H547.405V278.407H568.13V273.801Z" fill="#F2F2F2"/>
<path d="M573.456 263.86L570.142 262.884L570.1 261.671L555.373 257.333L554.679 258.329L551.366 257.353L549.285 260.341L573.584 267.499L573.456 263.86Z" fill="#CCCCCC"/>
<path d="M85.9681 253.863L85.9531 253.963L85.9122 254.254L81.694 284.523L55.8655 294L55.4608 293.806L41.0002 286.939L33.5229 258.248L33.0105 256.279L33.1665 256.22L65.1563 244.201L85.9491 253.852L85.9681 253.863Z" fill="#38C8E8"/>
<path d="M55.4608 293.807L41.0002 286.939L33.0105 256.279L33.1665 256.22L54.0077 265.013L55.4608 293.807Z" fill="#38C8E8"/>
<path opacity="0.2" d="M55.8233 293.456L44.8239 272.377L46.2367 266.402L39.5832 258.566L39.0167 259.048L45.4266 266.596L40.6385 286.853L41.3622 287.024L44.5625 273.484L55.1642 293.8L55.8233 293.456Z" fill="#30C1B0"/>
<path d="M85.9681 254.235L85.9122 254.254L54.0077 265.384L33.5229 258.248L33.0105 256.279L33.1665 256.22L65.1563 244.201L85.9491 253.852L85.9531 253.963L85.9681 254.235Z" fill="#30C1B0"/>
<path d="M54.5649 265.942L48.0612 260.925L49.5476 255.35L68.1292 248.661L80.7648 249.404L85.7821 253.678L86.1534 254.793L54.5649 265.942Z" fill="#38C8E8"/>
<path d="M33.3817 256.279L48.0611 255.722L56.0133 253.022L68.4118 248.661L70.7307 245.316L64.9449 244.281L33.3817 256.279Z" fill="#38C8E8"/>
<path d="M62.6283 250.299L54.9742 252.985L55.2203 253.686L62.8744 251L62.6283 250.299Z" fill="#CCCCCC"/>
<path d="M20.7255 292.336H5.18137L2.87854 262.399H23.0283L20.7255 292.336Z" fill="#38C8E8"/>
<path d="M23.3162 274.489H2.5907V279.095H23.3162V274.489Z" fill="#E6E6E6"/>
<path d="M24.1797 260.672H20.7255L20.3415 259.521H4.98966L4.60566 260.672H1.15141L0 264.127H25.3311L24.1797 260.672Z" fill="#30C1B0"/>
<path d="M465.367 291.983H116.433V293.135H465.367V291.983Z" fill="#3F3D56"/>
</svg>
