<svg width="24" height="24" viewBox="0 0 24 24" fill="none" xmlns="http://www.w3.org/2000/svg">
<path d="M22.5109 5.85382C22.0015 5.01164 21.3731 4.18691 20.604 3.42218C19.8262 2.64982 18.9873 2.01709 18.1287 1.50873L19.6364 0C19.6364 0 21.8182 0 22.9091 1.09091C24 2.18182 24 4.36364 24 4.36364L22.5109 5.85382ZM9.81818 18.5455H5.45455V14.1818L5.97818 13.6582C6.86509 14.0782 7.74655 14.6684 8.53964 15.4604C9.33382 16.2556 9.92291 17.1349 10.3418 18.0218L9.81818 18.5455ZM21.2509 7.11273L11.6007 16.7618C11.0913 15.9207 10.4629 15.0938 9.69382 14.3302C8.91709 13.5567 8.07709 12.9251 7.21855 12.4167L16.8873 2.74909C17.7742 3.16691 18.6556 3.75709 19.4487 4.55018C20.244 5.34436 20.8331 6.22582 21.2509 7.11273ZM3.27273 3.27273V20.7273H20.7273V13.0909L24 9.77673V21.8182C24 23.0236 23.0225 24 21.8182 24H2.18182C0.977455 24 0 23.0236 0 21.8182V2.18182C0 0.977455 0.977455 0 2.18182 0H14.1927L10.9189 3.27273H3.27273Z" fill="#2AD2BE"/>
</svg>
