<svg width="64" height="64" viewBox="0 0 64 64" fill="none" xmlns="http://www.w3.org/2000/svg">
<path fill-rule="evenodd" clip-rule="evenodd" d="M32 64C49.6731 64 64 49.6731 64 32C64 14.3269 49.6731 0 32 0C14.3269 0 0 14.3269 0 32C0 49.6731 14.3269 64 32 64Z" fill="#47B881"/>
<mask id="mask0" mask-type="alpha" maskUnits="userSpaceOnUse" x="18" y="18" width="29" height="29">
<path fill-rule="evenodd" clip-rule="evenodd" d="M32.2929 18C24.4032 18 18 24.4032 18 32.2929C18 40.1825 24.4032 46.5857 32.2929 46.5857C40.1825 46.5857 46.5857 40.1825 46.5857 32.2929C46.5857 24.4032 40.1825 18 32.2929 18ZM33.0218 29.42C33.0218 27.0617 31.0923 25.1321 28.7339 25.1321C26.3756 25.1321 24.4461 27.0617 24.4461 29.42C24.4461 31.7783 26.3756 33.7078 28.7339 33.7078C31.0923 33.7078 33.0218 31.7783 33.0218 29.42ZM28.7339 30.8493C27.9478 30.8493 27.3047 30.2061 27.3047 29.42C27.3047 28.6339 27.9478 27.9907 28.7339 27.9907C29.52 27.9907 30.1632 28.6339 30.1632 29.42C30.1632 30.2061 29.52 30.8493 28.7339 30.8493ZM40.8829 30.8493C40.8829 32.4358 39.6108 33.7079 38.0243 33.7079C36.4378 33.7079 35.1657 32.4358 35.1657 30.8493C35.1514 29.2628 36.4378 27.9907 38.0243 27.9907C39.6108 27.9907 40.8829 29.2628 40.8829 30.8493ZM28.7339 38.01C26.7472 38.01 24.4747 38.8247 23.5028 39.5965C25.4609 41.9548 28.348 43.4985 31.5925 43.6843V39.7108C31.5925 37.0095 35.8518 35.8518 38.0243 35.8518C39.2821 35.8518 41.2259 36.252 42.6552 37.0953C43.3412 35.6231 43.7271 33.9937 43.7271 32.2786C43.7271 25.9754 38.596 20.8443 32.2929 20.8443C25.9897 20.8443 20.8586 25.9754 20.8586 32.2786C20.8586 34.0366 21.2588 35.6946 21.9734 37.181C23.8887 35.7803 26.8759 35.1371 28.7339 35.1371C29.3628 35.1371 30.1203 35.2229 30.9207 35.3658C30.0203 36.1805 29.4057 37.1095 29.0627 38.0243C29.0036 38.0243 28.9445 38.0205 28.8874 38.0168C28.834 38.0133 28.7823 38.01 28.7339 38.01Z" fill="white"/>
</mask>
<g mask="url(#mask0)">
<rect x="13.5925" y="14.9932" width="36" height="36" fill="white"/>
</g>
</svg>
