<svg width="1004" height="837" viewBox="0 0 1004 837" fill="none" xmlns="http://www.w3.org/2000/svg">
<g clip-path="url(#clip0)">
<path opacity="0.1" d="M713.5 836.77C770.142 836.77 816.06 832.244 816.06 826.66C816.06 821.076 770.142 816.55 713.5 816.55C656.858 816.55 610.94 821.076 610.94 826.66C610.94 832.244 656.858 836.77 713.5 836.77Z" fill="#2AD2BE"/>
<path opacity="0.1" d="M439.53 12.2399C484.7 -4.5501 539.69 9.8899 586.65 30.9499C734.14 97.1099 841.59 222.7 926.96 350.65C957.87 396.98 987.23 445.35 998.85 497.07C1022.51 602.34 960.8 711.32 855.85 749.51C820.16 762.51 780.95 767.84 741.68 770.81C671.85 776.1 599.55 774 530.28 754.41C480.88 740.41 434.15 717.89 389.33 693.01C264.16 623.49 149.85 533.21 67.54 422.93C31.44 374.56 0.900009 320.03 0.0200093 264.22C-0.859991 208.41 35.51 152.33 95.35 142.84C120.09 138.92 146.26 143 171.79 147.2C209.38 153.39 247.48 159.9 284.64 157.2C323.03 154.39 372.96 139.39 379.96 102.74C387.37 63.3899 394.42 29.0099 439.53 12.2399Z" fill="#2AD2BE"/>
<path opacity="0.1" d="M277.26 817.13C296.126 817.13 311.42 814.547 311.42 811.36C311.42 808.173 296.126 805.59 277.26 805.59C258.394 805.59 243.1 808.173 243.1 811.36C243.1 814.547 258.394 817.13 277.26 817.13Z" fill="#2AD2BE"/>
<path opacity="0.1" d="M198.11 773.3C208.747 773.3 217.37 771.84 217.37 770.04C217.37 768.24 208.747 766.78 198.11 766.78C187.473 766.78 178.85 768.24 178.85 770.04C178.85 771.84 187.473 773.3 198.11 773.3Z" fill="#2AD2BE"/>
<path d="M816.05 521.62C815.42 518.099 815.056 514.536 814.96 510.96C814.96 506.67 809.13 502.87 809.13 502.87C809.13 502.87 805.53 494.54 803.13 493.31C800.73 492.08 793.32 481.18 793.32 481.18C793.235 479.03 792.452 476.966 791.09 475.3C788.87 472.382 786.842 469.322 785.02 466.14C784.02 464.92 784.52 464.06 783.02 456.95C782.94 456.58 782.85 456.22 782.74 455.88C782.74 455.72 782.64 455.58 782.58 455.42C784.172 453.823 785.282 451.81 785.782 449.612C786.283 447.413 786.154 445.119 785.41 442.99C785.141 442.144 784.65 441.384 783.99 440.79C782.3 439.41 779.6 439.98 777.86 438.67L779.71 430.49C780.15 428.49 780.38 425.96 778.63 424.88C777.973 424.568 777.282 424.337 776.57 424.19C773.57 423.19 771.83 420.02 771.05 416.97C770.3 414.032 770.097 410.981 770.45 407.97C770.79 405.07 771.64 402.25 771.95 399.34C772.514 393.958 771.219 388.544 768.28 384C767.137 382.039 765.453 380.449 763.43 379.42C761.58 378.59 759.43 378.42 757.7 377.42C753.98 375.05 754.17 369.42 751.2 366.19C748.23 362.96 742.97 362.97 738.64 364.08C734.31 365.19 730 367.08 725.56 366.61C722.7 366.29 720.02 364.99 717.15 364.69C716.329 364.612 715.501 364.649 714.69 364.8V364.71C712.57 365.09 710.62 366.27 710.12 368.28C710.008 368.758 709.961 369.249 709.98 369.74C709.98 370.91 710.26 372.13 710.28 373.25C710.317 373.695 710.264 374.143 710.125 374.567C709.986 374.991 709.763 375.383 709.47 375.72C708.9 376.33 708.06 376.65 707.47 377.28C707.229 377.521 707.041 377.808 706.915 378.125C706.79 378.441 706.73 378.78 706.74 379.12C706.74 380.9 708.96 382.47 710.45 383.19H710.51C710.11 383.59 709.71 384.01 709.34 384.44C705.068 389.264 702.713 395.487 702.72 401.93C702.756 407.134 704.313 412.215 707.198 416.546C710.083 420.877 714.172 424.271 718.96 426.31L718.75 426.96C718.329 428.246 717.838 429.508 717.28 430.74C716.245 430.392 715.147 430.274 714.063 430.395C712.978 430.516 711.933 430.873 711 431.44C708.14 433.44 702.55 433.28 701.06 432.91C699.57 432.54 684.06 430.58 682.81 431.07C681.56 431.56 679.09 429.36 677.48 432.3C675.87 435.24 675.12 436.83 673.48 437.57C671.84 438.31 669.01 440.63 669.39 441.12C669.77 441.61 665.29 444.55 665.29 444.55C665.29 444.55 661.44 448.55 659.21 449.08C656.98 449.61 652.26 452.64 652.26 452.64L646.79 456.92C646.79 456.92 642.7 457.54 643.94 454.72C645.18 451.9 641.7 448.35 641.7 448.35C641.7 448.35 634.75 434.26 634.75 431.35C634.75 428.44 629.04 416.03 629.04 416.03L628.34 415.96L628.02 415.05C626.97 412.1 625.61 408.48 624.57 406.36C622.57 402.31 621.34 401.89 621.34 401.89C621.34 401.89 597.26 383.81 581.62 389.32C565.98 394.83 610.17 411.25 614.14 412.97C615.53 413.57 616.53 415.51 617.23 417.78C613.707 419.479 610.741 422.146 608.68 425.47C608.68 425.47 618.24 446.66 618.49 451.93C618.74 457.2 625.07 471.93 625.07 471.93C625.07 471.93 627.43 482.84 640.21 482.22C640.21 482.22 657.84 485.46 661.69 482.22C665.54 478.98 669.01 476.44 670.88 476.07C672.255 475.618 673.464 474.765 674.35 473.62C674.35 473.62 668.52 510.37 665.66 513.56C662.8 516.75 637.53 558.01 646.6 565.39C653.783 570.952 661.375 575.966 669.31 580.39C670.08 580.77 672.39 576.92 675.69 574.19C675.69 574.88 675.69 575.58 675.69 576.32C675.75 591 677.69 613.32 680.37 618.32C684.37 625.67 682.73 639.88 682.73 639.88C684.833 640.87 687.117 641.418 689.44 641.49C689.56 641.97 689.7 642.49 689.83 642.99C692.02 651.26 695.57 664.05 697.38 667.45C700.11 672.6 702.09 688.9 702.09 688.9C702.09 688.9 703.71 704.9 703.09 707.15C702.85 708 703.9 714.66 705.55 723.15C704.55 734.64 702.65 756.79 702.33 764.8C702.33 764.95 702.33 765.1 702.33 765.24V765.38C702.335 765.47 702.335 765.56 702.33 765.65C702.33 765.83 702.33 765.99 702.33 766.14C702.299 766.644 702.319 767.15 702.39 767.65C702.514 768.413 702.456 769.194 702.22 769.93C701.512 772.144 700.612 774.293 699.53 776.35C699.074 777.361 698.673 778.396 698.33 779.45C697.33 779.89 696.11 780.96 695.43 783.57C694.19 788.35 692.33 801.57 692.33 801.57C692.33 801.57 691.58 809.66 690.1 811.5C688.62 813.34 687.1 824.85 697.67 826.32C708.24 827.79 712.81 820.72 712.81 820.72L712.44 788.64V788.58C712.654 788.31 712.838 788.019 712.99 787.71V787.63C713.06 787.48 713.14 787.32 713.21 787.14L713.3 786.9L713.46 786.51C713.454 786.464 713.454 786.416 713.46 786.37C714.486 783.297 714.794 780.03 714.36 776.82V776.66V776.41C714.36 776.33 714.36 776.24 714.36 776.16V775.66C714.36 775.6 714.36 775.53 714.36 775.47C714.36 775.257 714.38 775.037 714.42 774.81C714.42 774.81 714.42 774.73 714.42 774.69L714.48 774.3V774.13C714.48 774 714.48 773.87 714.56 773.73C714.556 773.697 714.556 773.663 714.56 773.63C714.66 773.17 714.78 772.63 714.91 772.19V772.08L715.06 771.6C715.21 771.09 715.38 770.6 715.56 770.06V769.96C715.56 769.8 715.67 769.64 715.73 769.49V769.43C715.91 768.94 716.1 768.43 716.28 768.01L716.33 767.88L716.49 767.48L716.54 767.36L716.92 766.47L719.85 775.52C719.85 775.52 721.47 782.26 720.6 783.85C719.73 785.44 721.6 792.06 722.83 792.18L721.68 800.51C721.058 805.103 720.688 809.727 720.57 814.36C720.49 814.89 720.41 815.36 720.35 815.68C719.55 819.95 721.47 826.57 721.47 826.57C731.27 838.16 742.95 827.47 742.95 827.47C742.95 827.47 744.31 821.34 742.95 820.12C741.59 818.9 742.2 814.48 742.2 814.48C742.2 814.48 742.82 803.57 742.94 795.61C743.06 787.65 736.43 780.61 736.43 780.61L736.06 780.94C734.85 777.82 733.47 774.18 733.76 772.55C734.26 769.73 732.39 739.96 732.39 739.96C733.081 731.979 733.228 723.961 732.83 715.96V715.96C732.99 714.61 733.14 713.28 733.29 711.96C734.04 705.56 734.65 700.09 734.89 697.22V696.88C734.95 696.11 734.98 695.56 734.97 695.3C734.97 694.3 734.97 693.16 735.07 691.91C735.3 688.47 735.84 684.64 735.84 684.64L738.44 668.83C738.44 668.83 740.44 661.11 743.29 656.83L743.63 656.29C743.74 656.1 743.85 655.89 743.97 655.67L744.02 655.58C744.13 655.37 744.25 655.15 744.36 654.92L744.41 654.83C744.81 654.04 745.24 653.13 745.69 652.13C745.69 652.05 745.76 651.98 745.79 651.9L746.13 651.14C746.13 651.04 746.21 650.94 746.26 650.84C746.31 650.74 746.47 650.33 746.58 650.08C746.629 649.979 746.673 649.876 746.71 649.77C746.84 649.47 746.98 649.16 747.11 648.84L747.3 648.38C747.39 648.15 747.49 647.92 747.59 647.69L747.83 647.08C747.9 646.93 747.96 646.78 748.02 646.63L748.29 645.94C748.29 645.84 748.38 645.73 748.42 645.63C749.13 643.86 749.81 642.11 750.42 640.52C750.61 640.02 750.8 639.52 750.97 639.08C757.33 639.47 761.65 639.82 761.65 639.82C761.65 639.82 763.65 625.49 763.01 616.06C762.59 609.62 763.79 601.52 764.58 597.06C764.67 596.57 764.75 596.13 764.83 595.73L765 595.87C768.11 598.32 770.34 590.23 770.34 590.23C770.34 590.23 769.5 582.68 768.34 573.53L768.22 572.62C770.012 573.002 771.825 573.279 773.65 573.45C773.65 573.45 774.65 573.36 776.02 573.19C779.81 575.384 783.81 577.193 787.96 578.59L794.57 566.39C795.812 563.861 797.267 561.442 798.92 559.16C800.92 556.71 807.98 548.87 807.86 547.4C807.74 545.93 810.22 537.47 812.7 533.67C815.18 529.87 816.17 522.23 816.05 521.62ZM788.49 530.93C785.88 532.03 783.4 538.16 783.28 540C783.16 541.84 780.42 549.92 777.57 550.9C774.94 551.8 769.92 556.42 769.12 557.16C768.3 557.23 767.37 557.34 766.4 557.5C765.31 549.77 764.23 543.37 763.54 542.08C761.54 538.4 765.73 526.64 765.73 526.64C765.73 526.64 766.14 514.76 768.73 511.94C771.32 509.12 770.73 502.01 770.73 502.01C770.73 502.01 771.35 499.07 771.6 497.73C771.85 496.39 775.29 497.73 775.32 497.73C775.32 497.73 782.02 501.4 783.02 506.91C784.02 512.42 791.34 521.98 791.34 521.98C791.34 521.98 790.22 525.29 791.34 526.98C792.46 528.67 791.1 529.83 788.49 530.93V530.93Z" fill="url(#paint0_linear)"/>
<path d="M608.96 426.22C610.999 422.858 613.983 420.171 617.54 418.495C621.097 416.82 625.07 416.23 628.96 416.8V431.11H620.27L613.47 429.39L608.96 426.22Z" fill="#4C4981"/>
<path opacity="0.1" d="M608.96 426.22C610.999 422.858 613.983 420.171 617.54 418.495C621.097 416.82 625.07 416.23 628.96 416.8V431.11H620.27L613.47 429.39L608.96 426.22Z" fill="black"/>
<path d="M629.61 420.59L618.96 428.05C618.96 428.05 618.87 426.56 618.6 424.52C618.07 420.66 616.88 414.87 614.31 413.75C610.4 412.03 566.87 395.65 582.31 390.14C597.75 384.63 621.44 402.69 621.44 402.69C621.44 402.69 622.66 403.11 624.61 407.14C625.61 409.26 626.98 412.87 628.01 415.82C628.96 418.48 629.61 420.59 629.61 420.59Z" fill="#AE6E79"/>
<path d="M714.69 432.08L715.9 431.51L719.3 435.39L716.52 441.32L711.78 439.42L712.88 434.68L714.69 432.08Z" fill="#4C4981"/>
<path d="M698.58 779.39C698.58 779.39 695.52 779.03 694.3 783.8C693.08 788.57 691.24 801.8 691.24 801.8C691.24 801.8 690.51 809.87 689.04 811.71C687.57 813.55 686.11 825.04 696.5 826.5C706.89 827.96 711.42 820.91 711.42 820.91L711.05 788.84L698.58 779.39Z" fill="#444053"/>
<path d="M734.84 780.83C734.84 780.83 741.38 787.83 741.26 795.77C741.14 803.71 740.52 814.6 740.52 814.6C740.52 814.6 739.92 819.01 741.26 820.23C742.6 821.45 741.26 827.57 741.26 827.57C741.26 827.57 729.76 838.24 720.1 826.67C720.1 826.67 718.22 820.06 719 815.8C719.78 811.54 721.96 792.39 721.96 792.39L734.84 780.83Z" fill="#444053"/>
<path d="M751.04 634.6C751.04 634.6 744.44 653.06 741.62 657.34C738.8 661.62 736.86 669.34 736.86 669.34L734.29 685.11C733.788 688.636 733.501 692.189 733.43 695.75C733.55 699.3 727.07 751.02 727.07 751.02L716.8 764.11C716.8 764.11 712.28 773.28 713.01 777.11C713.74 780.94 712.52 787.02 711.01 788.85C711.01 788.85 710.77 800.85 710.4 803.52C710.03 806.19 711.75 813.8 710.4 815.14C709.05 816.48 691.08 815.88 690.59 813.67C690.1 811.46 692.79 800.83 692.79 800.83L694.38 790.56C694.38 790.56 697.56 784.94 696.83 783.1C696.1 781.26 698.17 776.99 698.29 776.62C698.41 776.25 701.72 770.26 701.11 767.94C700.5 765.62 704.96 716.28 704.96 716.28L717.55 627.87L751.04 634.6Z" fill="#AE6E79"/>
<path opacity="0.1" d="M751.04 634.6C751.04 634.6 750.04 637.38 748.67 641.03C746.49 646.79 743.35 654.72 741.62 657.34C738.81 661.62 736.85 669.34 736.85 669.34L734.28 685.12C733.783 688.646 733.499 692.199 733.43 695.76C733.43 697.16 732.49 706.09 731.29 716.38C729.44 732.11 727.07 751.03 727.07 751.03L716.8 764.12C716.8 764.12 716.28 765.12 715.63 766.7C714.34 769.7 712.52 774.57 713.01 777.08C713.74 780.87 712.52 786.98 711.01 788.82C711.01 788.82 710.76 800.82 710.4 803.49C710.04 806.16 711.75 813.76 710.4 815.11C709.05 816.46 691.08 815.85 690.59 813.65C690.1 811.45 692.79 800.81 692.79 800.81L694.38 790.53C694.38 790.53 697.56 784.91 696.82 783.07C696.08 781.23 698.17 776.96 698.29 776.59C698.41 776.22 701.72 770.23 701.11 767.91C700.64 766.14 703.11 737.17 704.26 723.43C704.65 719.11 704.9 716.3 704.9 716.3L715.73 640.24L716.61 634.11L717.49 627.89L751.04 634.6Z" fill="black"/>
<path d="M740.04 818.51C740.15 819.86 722.79 821.82 720.31 820.35C717.83 818.88 720.31 800.66 720.31 800.66L721.44 792.35C720.23 792.22 718.39 785.62 719.24 784.03C720.09 782.44 718.51 775.72 718.51 775.72L715.63 766.72L713.87 761.21C711.01 754.9 706.87 736.9 704.3 723.46C702.68 715.02 701.65 708.37 701.88 707.52C702.49 705.32 700.88 689.3 700.88 689.3C700.88 689.3 698.88 673.03 696.24 667.9C694.45 664.5 690.96 651.73 688.8 643.49C687.7 639.26 686.94 636.22 686.94 636.22C686.94 636.22 705.42 634.67 716.63 634.13C721.78 633.88 725.4 633.85 724.98 634.27C724.56 634.69 724.45 636.93 724.47 640.17C724.52 648.56 725.69 663.32 726.93 667.29C728.64 672.79 730.35 689.29 729.62 690.89C728.89 692.49 729.13 703.12 729.13 703.12C730.39 707.438 731.115 711.895 731.29 716.39C731.681 724.354 731.541 732.335 730.87 740.28C730.87 740.28 732.7 770 732.21 772.81C731.72 775.62 736.12 784.43 736.12 786.14C736.12 787.85 737.34 799.47 737.34 799.47C737.34 799.47 739.96 817.17 740.04 818.51Z" fill="#AE6E79"/>
<path d="M749.69 461.31L747.59 463.58L746.22 465.06L738.22 473.66L717.55 475.99L706.55 473.05L703.83 472.32C703.83 472.32 703.83 466.8 704.32 460.18C705.02 451.69 706.69 441.38 710.68 438.57C712.678 437.006 714.273 434.986 715.33 432.68C716.128 431.09 716.797 429.438 717.33 427.74C717.41 427.52 717.47 427.31 717.54 427.09C718.44 424.126 719.089 421.092 719.48 418.02C719.48 418.02 722.12 416.56 725.79 414.86C735.36 410.39 751.89 404.22 746.14 418.02C745.295 420.041 744.574 422.111 743.98 424.22C743.89 424.53 743.81 424.84 743.74 425.14C741.82 432.82 743.09 437.48 744.52 440.05C744.762 440.495 745.039 440.92 745.35 441.32C745.741 441.857 746.209 442.332 746.74 442.73L749.12 457.84L749.32 459.09L749.69 461.31Z" fill="#AE6E79"/>
<path opacity="0.1" d="M746.15 418.76C745.06 421.38 746.68 416.62 746.15 418.76C741.79 421.86 731.52 430.69 725.75 430.69C721.85 430.69 720.68 429.98 717.34 428.47C718.351 425.306 719.07 422.055 719.49 418.76C719.49 418.76 754.1 399.68 746.15 418.76Z" fill="black"/>
<path d="M754.96 402.69C754.955 409.276 752.514 415.627 748.107 420.521C743.7 425.415 737.639 428.506 731.09 429.2C730.17 429.29 729.24 429.35 728.3 429.35C723.027 429.35 717.873 427.786 713.489 424.857C709.104 421.928 705.687 417.764 703.669 412.892C701.652 408.021 701.124 402.66 702.152 397.489C703.181 392.317 705.72 387.567 709.449 383.839C713.177 380.11 717.927 377.571 723.099 376.542C728.27 375.514 733.631 376.042 738.502 378.059C743.374 380.077 747.538 383.494 750.467 387.879C753.396 392.263 754.96 397.417 754.96 402.69V402.69Z" fill="#AE6E79"/>
<path opacity="0.1" d="M758.75 520.87L754.95 530.78C754.95 530.78 751.86 530.91 747.04 531.06C730.77 531.58 694.92 532.24 693.32 528.06C692.961 527 692.772 525.889 692.76 524.77C692.55 518.4 695.52 508.62 695.52 508.62C695.52 508.62 697.23 489.05 697.23 488.2C697.23 487.35 695.76 473.64 695.76 473.64L698.7 462.64L706.89 456.89C706.89 456.89 710.56 462.52 712.76 463C714.96 463.48 717.9 466.19 717.9 466.19C717.9 466.19 725.11 470.59 727.44 468.14C729.77 465.69 747.86 454.93 747.86 454.93L757.4 465.45L758.75 520.87Z" fill="black"/>
<path d="M758.75 522.39L754.95 532.29C754.95 532.29 751.86 532.43 747.04 532.58H746.57C744.49 532.65 742.11 532.72 739.57 532.77C726.64 533.07 708.83 533.15 699.52 531.77C696.02 531.27 693.73 530.55 693.35 529.57C693.139 528.981 692.992 528.37 692.91 527.75C692.85 527.29 692.81 526.75 692.79 526.28C692.58 519.91 695.55 510.13 695.55 510.13C695.55 510.13 697.26 490.56 697.26 489.71C697.26 488.86 695.79 475.15 695.79 475.15L698.73 464.15L704.36 460.21L706.92 458.41C707.781 459.699 708.72 460.935 709.73 462.11C710.519 463.169 711.575 464.001 712.79 464.52C715 465.01 717.93 467.71 717.93 467.71C717.93 467.71 725.14 472.11 727.47 469.66C729.24 467.79 740.24 461.06 745.32 457.99C746.88 457.04 747.89 456.45 747.89 456.45L749.17 457.87L757.43 466.97L758.75 522.39Z" fill="white"/>
<path opacity="0.1" d="M629.61 420.59L618.96 428.05C618.96 428.05 618.87 426.56 618.6 424.52C623.86 422.3 627.06 417.39 627.98 415.82C628.96 418.48 629.61 420.59 629.61 420.59Z" fill="black"/>
<path d="M667.03 445.91L664.71 445.29C664.71 445.29 660.91 449.29 658.71 449.82C656.51 450.35 651.87 453.36 651.87 453.36L646.48 457.64C646.48 457.64 642.48 458.26 643.67 455.44C644.86 452.62 641.47 449.08 641.47 449.08C641.47 449.08 634.62 435.02 634.62 432.08C634.62 429.14 628.96 416.8 628.96 416.8C628.96 416.8 621.86 430.62 608.9 426.22C608.9 426.22 618.32 447.37 618.56 452.63C618.8 457.89 625.04 472.56 625.04 472.56C625.04 472.56 627.37 483.45 639.96 482.84C639.96 482.84 657.33 486.07 661.12 482.84C664.91 479.61 668.33 477.07 670.12 476.7C671.91 476.33 673.54 474.26 673.54 474.26V459.72L667.03 445.91Z" fill="#30C1B0"/>
<path opacity="0.1" d="M645.26 459.72C645.26 459.72 648.32 471.1 646.36 472.32L645.26 459.72Z" fill="black"/>
<path opacity="0.1" d="M747.04 532.53C730.77 533.05 694.92 533.7 693.32 529.53C692.961 528.47 692.772 527.359 692.76 526.24L745.91 529.04L747.04 532.53Z" fill="black"/>
<path opacity="0.1" d="M751.04 634.6C751.04 634.6 750.04 637.38 748.67 641.03C741.92 640.62 732.98 640.19 724.49 640.13C721.49 640.13 718.55 640.13 715.77 640.23C709.87 640.41 704.77 640.89 701.52 641.81C697.411 643.075 693.116 643.63 688.82 643.45C687.72 639.22 686.96 636.18 686.96 636.18C686.96 636.18 705.44 634.63 716.65 634.09L717.53 627.87L751.04 634.6Z" fill="black"/>
<path d="M765.35 589.84L763.27 594.24C763.27 594.24 762.98 595.55 762.61 597.63C761.83 602.11 760.61 610.19 761.07 616.63C761.68 626.05 759.72 640.35 759.72 640.35C759.72 640.35 714.72 636.56 701.52 640.35C688.32 644.14 681.82 640.35 681.82 640.35C681.82 640.35 683.42 626.17 679.5 618.83C676.83 613.83 674.95 591.51 674.89 576.83C674.89 570.06 675.23 564.93 676.08 563.89C678.77 560.59 690.26 527.57 690.26 527.57L692.88 527.71L699.88 528.08L739.68 530.18L745.93 530.51L746.59 532.51L765.35 589.84Z" fill="#444053"/>
<path d="M785.16 575.16L785.53 579.08C785.53 579.08 765.82 572.66 766.82 564.77C767.82 556.88 766.82 557.77 766.82 557.77L782.66 559.11L785.16 575.16Z" fill="#4C4981"/>
<path opacity="0.1" d="M785.16 575.16L785.53 579.08C785.53 579.08 765.82 572.66 766.82 564.77C767.82 556.88 766.82 557.77 766.82 557.77L782.66 559.11L785.16 575.16Z" fill="black"/>
<path opacity="0.1" d="M658.41 462.88C660.422 464.59 662.795 465.824 665.35 466.49C664.61 466.329 663.922 465.986 663.35 465.49C661.94 464.49 660.6 463.4 659.24 462.34C658.14 461.48 656.77 460.05 655.42 459.7C656.304 460.861 657.306 461.926 658.41 462.88V462.88Z" fill="black"/>
<path opacity="0.1" d="M658.71 468.03C659.344 468.746 659.857 469.56 660.23 470.44C660.861 472.929 660.823 475.54 660.12 478.01L656.96 470.39C656.41 469.09 655.86 467.79 655.2 466.55C654.91 466.02 653.09 463.81 653.3 463.35C653.86 462.05 658.12 467.3 658.71 468.03Z" fill="black"/>
<path opacity="0.1" d="M746.88 510.23C749.034 509.969 751.049 509.027 752.63 507.54C749.38 507.95 746.3 509.23 743.1 509.9C740.129 510.59 737.014 510.303 734.22 509.08C737.9 510.88 742.96 510.94 746.88 510.23Z" fill="black"/>
<path opacity="0.1" d="M737.69 487.84C737.107 487.927 736.514 487.779 736.04 487.43C733.6 486.03 731.193 484.57 728.82 483.05C726.51 481.56 723.72 480.05 721.75 478.17C726.6 482.55 731.12 486.25 737.69 487.84Z" fill="black"/>
<path opacity="0.1" d="M744.47 513.78C745.751 513.838 747.035 513.734 748.29 513.47C749.56 513.206 750.682 512.47 751.43 511.41C750.976 511.305 750.5 511.381 750.1 511.62C746.225 513.251 741.97 513.76 737.82 513.09C739.81 513.94 742.36 513.77 744.47 513.78Z" fill="black"/>
<path opacity="0.1" d="M721.31 570.56C718.764 571.328 716.148 571.84 713.5 572.09C711.44 572.185 709.375 572.145 707.32 571.97L697.32 571.34L692.32 571.02C691.73 571.02 689.32 571.02 690.51 569.83C691.11 569.25 694.45 569.62 695.31 569.59C696.97 569.537 698.637 569.507 700.31 569.5C703.62 569.5 706.94 569.5 710.25 569.7C713.96 569.88 717.61 570.16 721.31 570.56Z" fill="black"/>
<path opacity="0.1" d="M709.72 575.51C708.02 575.44 705.83 576.45 704.08 576.67C702.122 576.902 700.15 576.978 698.18 576.9C694.282 576.807 690.433 576.021 686.81 574.58C694.44 574.97 702.09 575.2 709.72 575.51Z" fill="black"/>
<path opacity="0.1" d="M688.3 580.75C689.04 580.899 689.768 581.1 690.48 581.35C694.7 582.55 699.19 581.49 703.48 580.43C702.41 582.04 700.48 582.73 698.55 583.17C695.411 583.965 692.139 584.085 688.95 583.52C687.95 583.32 685.44 582.96 684.95 581.92C684.13 580.39 687.36 580.6 688.3 580.75Z" fill="black"/>
<path opacity="0.1" d="M711.96 588.64C713.225 588.899 714.474 589.233 715.7 589.64C720.45 590.82 725.38 589.2 730.15 588.11C735.884 586.808 741.764 586.263 747.64 586.49C746.59 586.49 744.92 587.41 743.89 587.72C742.54 588.13 741.17 588.51 739.8 588.85C737.11 589.51 734.38 590.05 731.63 590.44C726.078 591.243 720.46 591.487 714.86 591.17C712.3 591.03 707.86 591.29 705.67 590C707.563 588.875 709.771 588.398 711.96 588.64Z" fill="black"/>
<path opacity="0.1" d="M713.75 437.82C713.75 437.82 713.99 449.08 712.16 454.22C711.58 455.82 710.68 458.77 709.7 462.08C708.63 465.75 707.46 469.86 706.56 473.08C705.66 476.3 705.06 478.46 705.06 478.46C705.06 478.46 700.93 512.1 699.86 528.13C699.86 528.41 699.86 528.7 699.8 528.97C699.74 529.87 699.64 530.81 699.49 531.78C697.11 547.7 683.38 572.25 678.77 574.21C677.332 574.87 676.02 575.773 674.89 576.88C674.89 570.11 675.23 564.98 676.08 563.94C678.77 560.64 690.26 527.62 690.26 527.62L692.88 527.76C692.82 527.3 692.78 526.76 692.76 526.29C692.55 519.92 695.52 510.14 695.52 510.14C695.52 510.14 697.23 490.57 697.23 489.72C697.23 488.87 695.76 475.16 695.76 475.16L698.7 464.16L704.33 460.22C705.03 451.73 706.7 441.42 710.69 438.61C712.688 437.046 714.283 435.026 715.34 432.72C716.13 432.83 714.69 432.13 714.69 432.13L713.75 437.82Z" fill="black"/>
<path d="M715.9 431.51C714.881 431.161 713.797 431.043 712.726 431.165C711.656 431.286 710.626 431.643 709.71 432.21C706.89 434.21 701.39 434.04 699.92 433.68C698.45 433.32 683.17 431.35 681.92 431.84C680.67 432.33 678.25 430.13 676.66 433.07C675.07 436.01 674.34 437.59 672.75 438.32C671.16 439.05 668.34 441.38 668.75 441.87C669.16 442.36 664.75 445.29 664.75 445.29L673.67 474.29C673.67 474.29 667.92 510.97 665.11 514.15C662.3 517.33 637.35 558.54 646.28 565.88C653.35 571.439 660.831 576.454 668.66 580.88C669.66 581.37 673.18 574.77 678.07 572.69C682.96 570.61 698.13 543.09 699.07 527.44C700.01 511.79 704.33 476.94 704.33 476.94C704.33 476.94 709.59 457.86 711.42 452.72C713.25 447.58 713.01 436.32 713.01 436.32L715.9 431.51Z" fill="#30C1B0"/>
<path opacity="0.1" d="M765.35 589.84L763.27 594.24C763.27 594.24 762.98 595.55 762.61 597.63C762.239 597.583 761.891 597.427 761.61 597.18C758.55 594.73 740.61 576.27 739.72 559.88C739.09 547.79 739.39 537.37 739.59 532.73C739.65 531.27 739.71 530.39 739.71 530.2C739.71 530.2 753.65 513.32 752.06 507.34C750.47 501.36 746.8 469.34 746.8 469.34L746.26 465.14L745.33 458.04L743.11 440.86L745.41 441.4C745.801 441.937 746.269 442.412 746.8 442.81L749.18 457.92L757.44 467.02L758.79 522.42L754.99 532.32C754.99 532.32 751.9 532.46 747.08 532.61H746.61L765.35 589.84Z" fill="black"/>
<path d="M773.05 498.39C773.05 498.39 769.63 497.04 769.39 498.39C769.15 499.74 768.53 502.66 768.53 502.66C768.53 502.66 769.14 509.76 766.53 512.57C763.92 515.38 763.53 527.24 763.53 527.24C763.53 527.24 759.41 538.98 761.36 542.65C762.07 543.98 763.17 550.65 764.27 558.65C764.97 563.65 765.66 569.14 766.27 574.16C767.38 583.28 768.21 590.83 768.21 590.83C768.21 590.83 766 598.9 762.94 596.45C759.88 594 741.94 575.54 741.06 559.15C740.46 547.64 740.7 537.64 740.9 532.71C740.98 530.62 741.06 529.44 741.06 529.44C741.06 529.44 755 512.56 753.41 506.57C751.82 500.58 748.15 468.57 748.15 468.57L747.51 463.62L746.82 458.3L746.66 457.13L744.45 440.13C744.84 440.22 758.56 443.32 760.37 445.13C762.18 446.94 773.37 449.53 773.37 449.53C775.058 449.988 776.592 450.89 777.812 452.142C779.033 453.395 779.895 454.951 780.31 456.65C780.42 456.99 780.5 457.35 780.58 457.72C782.05 464.82 781.58 465.67 782.58 466.9C783.58 468.13 773.05 498.39 773.05 498.39Z" fill="#30C1B0"/>
<path opacity="0.1" d="M766.35 574.15C761.35 573.15 753.93 570.84 754.1 565.74C754.25 560.97 759.99 559.25 764.34 558.64C765.04 563.62 765.73 569.13 766.35 574.15Z" fill="black"/>
<path d="M781.86 571.61C781.66 572.04 780.86 572.41 779.72 572.74C777.045 573.377 774.328 573.821 771.59 574.07C771.59 574.07 754.59 572.72 754.83 565.01C755.01 559.48 762.69 558.01 767 557.68C767.954 557.591 768.912 557.551 769.87 557.56C769.87 557.56 782.59 570.03 781.86 571.61Z" fill="#AE6E79"/>
<path opacity="0.1" d="M781.86 571.61C781.66 572.04 780.86 572.41 779.72 572.74C775.29 566.81 769.11 559.2 766.08 558.53L767 557.68C767.954 557.591 768.912 557.551 769.87 557.56C769.87 557.56 782.59 570.03 781.86 571.61Z" fill="black"/>
<path d="M777.58 466.08L782.58 466.82C784.385 470 786.389 473.063 788.58 475.99C789.924 477.66 790.695 479.718 790.78 481.86C790.78 481.86 798.12 492.74 800.44 493.96C802.76 495.18 806.31 503.5 806.31 503.5C806.31 503.5 812.06 507.29 812.06 511.57C812.162 515.139 812.53 518.696 813.16 522.21C813.29 522.82 812.31 530.41 809.86 534.21C807.41 538.01 804.96 546.39 805.09 547.89C805.22 549.39 798.24 557.19 796.29 559.63C794.662 561.912 793.231 564.327 792.01 566.85L785.53 579.08C785.53 579.08 771.83 558.9 766.82 557.8C766.82 557.8 772.44 552.42 775.25 551.44C778.06 550.46 780.76 542.44 780.88 540.56C781 538.68 783.45 532.61 786.01 531.56C788.57 530.51 789.93 529.36 788.83 527.64C787.73 525.92 788.83 522.64 788.83 522.64C788.83 522.64 781.61 513.1 780.63 507.64C779.65 502.18 773.05 498.47 773.05 498.47L769.26 489.17L777.58 466.08Z" fill="#30C1B0"/>
<path opacity="0.1" d="M795.77 511.73C798.537 509.394 802.02 508.074 805.64 507.99C803.32 508.39 800.88 508.9 799.18 510.52C798.512 511.221 797.913 511.985 797.39 512.8C796.81 513.63 792.09 519.63 791.39 518.68C790.22 517.29 794.82 512.54 795.77 511.73Z" fill="black"/>
<path opacity="0.1" d="M784.69 505.94C785.439 505.875 786.157 505.612 786.77 505.178C787.383 504.744 787.87 504.155 788.18 503.47C788.776 502.092 789.144 500.626 789.27 499.13C789.628 496.626 790.132 494.145 790.78 491.7C790.974 491.217 791.057 490.695 791.02 490.176C790.984 489.656 790.83 489.151 790.57 488.7C790.302 487.919 789.939 487.173 789.49 486.48C788.59 487.48 788.33 489.81 787.96 491.15C787.5 492.81 787.08 494.48 786.68 496.15C786.47 496.95 784.81 505.94 784.69 505.94Z" fill="black"/>
<path opacity="0.1" d="M780.36 456.57C779.867 457.215 779.3 457.799 778.67 458.31C776.67 459.9 774.02 461.24 773.77 463.75C773.84 464.566 773.738 465.387 773.47 466.16C772.83 467.26 771.26 467.16 770.01 466.95C768.955 466.855 767.944 466.482 767.08 465.87C765.77 464.75 765.65 462.75 764.65 461.34C764.042 460.612 763.275 460.034 762.408 459.651C761.541 459.268 760.597 459.09 759.65 459.13C757.78 459.07 755.92 459.49 754.05 459.57C752.848 459.631 751.643 459.55 750.46 459.33C750.069 459.27 749.682 459.19 749.3 459.09C748.464 458.884 747.648 458.607 746.86 458.26C746.452 458.098 746.055 457.911 745.67 457.7C744.418 457.057 743.258 456.25 742.22 455.3C740.39 453.62 738.87 451.3 739.02 448.81C739.11 447.28 739.8 445.87 740.02 444.36C740.77 440.04 737.9 435.96 734.79 432.87C733.55 431.64 732.23 430.45 730.99 429.2C729.059 427.419 727.535 425.243 726.52 422.82C725.686 420.241 725.413 417.513 725.72 414.82C726.001 412.09 726.078 409.342 725.95 406.6C725.03 396.88 716.73 389.43 708.43 385.38L708.06 385.19C710.522 382.364 713.553 380.09 716.954 378.515C720.355 376.94 724.05 376.1 727.798 376.05C731.546 376 735.262 376.742 738.704 378.226C742.146 379.71 745.236 381.903 747.772 384.662C750.309 387.422 752.235 390.685 753.425 394.24C754.614 397.794 755.041 401.559 754.676 405.289C754.312 409.02 753.164 412.631 751.309 415.888C749.454 419.145 746.933 421.974 743.91 424.19C743.82 424.5 743.74 424.81 743.67 425.11C741.75 432.79 743.02 437.45 744.45 440.02C744.84 440.11 758.56 443.21 760.37 445.02C762.18 446.83 773.37 449.42 773.37 449.42C775.071 449.873 776.618 450.776 777.848 452.034C779.078 453.293 779.946 454.86 780.36 456.57V456.57Z" fill="black"/>
<path d="M706.3 378.14C706.85 377.51 707.68 377.19 708.24 376.58C709.97 374.7 708.24 371.63 708.87 369.15C709.55 366.4 712.93 365.2 715.75 365.49C718.57 365.78 721.21 367.08 724.03 367.4C728.41 367.89 732.65 365.99 736.92 364.88C741.19 363.77 746.35 363.71 749.29 366.98C752.23 370.25 752.03 375.82 755.69 378.19C757.38 379.28 759.51 379.4 761.34 380.19C763.343 381.218 765.003 382.806 766.12 384.76C769.017 389.31 770.293 394.705 769.74 400.07C769.43 402.97 768.59 405.79 768.25 408.69C767.905 411.702 768.108 414.751 768.85 417.69C769.62 420.69 771.29 423.93 774.28 424.89C774.971 425.042 775.642 425.274 776.28 425.58C778.01 426.66 777.78 429.2 777.34 431.18L775.56 439.39C777.27 440.69 779.93 440.13 781.56 441.5C782.213 442.097 782.696 442.856 782.96 443.7C783.764 445.996 783.851 448.482 783.21 450.829C782.569 453.175 781.23 455.272 779.37 456.84C777.37 458.43 774.72 459.77 774.47 462.27C774.546 463.086 774.444 463.908 774.17 464.68C773.54 465.78 771.96 465.68 770.71 465.47C769.659 465.373 768.651 465.001 767.79 464.39C766.47 463.27 766.36 461.27 765.36 459.86C764.751 459.133 763.984 458.556 763.117 458.173C762.25 457.79 761.307 457.611 760.36 457.65C758.48 457.59 756.63 458.01 754.75 458.1C750.414 458.278 746.181 456.748 742.96 453.84C741.12 452.15 739.61 449.84 739.75 447.34C739.84 445.82 740.53 444.4 740.75 442.89C741.49 438.58 738.63 434.49 735.52 431.4C732.41 428.31 728.76 425.46 727.24 421.35C725.34 416.26 727.18 410.58 726.67 405.18C725.75 395.45 717.46 388.01 709.15 383.95C707.3 383 704.15 380.59 706.3 378.14Z" fill="#444053"/>
<path opacity="0.1" d="M771.7 462.12C770.38 460.99 770.27 459 769.27 457.59C768.661 456.863 767.894 456.285 767.028 455.9C766.161 455.515 765.218 455.334 764.27 455.37C762.39 455.31 760.53 455.73 758.66 455.82C754.308 456.011 750.057 454.477 746.83 451.55C744.99 449.87 743.49 447.55 743.63 445.06C743.72 443.53 744.41 442.11 744.63 440.61C745.38 436.29 742.51 432.2 739.4 429.11C736.29 426.02 732.65 423.17 731.12 419.06C729.23 413.98 731.12 408.3 730.56 402.89C729.63 393.16 721.34 385.72 713.04 381.66C711.1 380.71 707.95 378.3 710.1 375.85C710.64 375.22 711.47 374.9 712.03 374.29C713.76 372.42 712.03 369.34 712.67 366.87C712.793 366.378 713.007 365.914 713.3 365.5C711.21 365.89 709.3 367.07 708.79 369.07C708.18 371.55 709.89 374.62 708.16 376.5C707.6 377.11 706.77 377.43 706.22 378.05C704.07 380.5 707.22 382.92 709.16 383.86C717.47 387.92 725.76 395.37 726.68 405.09C727.19 410.5 725.35 416.18 727.25 421.27C728.77 425.37 732.42 428.27 735.53 431.32C738.64 434.37 741.53 438.49 740.76 442.81C740.339 444.272 740.005 445.758 739.76 447.26C739.62 449.75 741.13 452.07 742.97 453.75C746.192 456.678 750.441 458.213 754.79 458.02C756.67 457.93 758.52 457.52 760.4 457.57C761.348 457.534 762.291 457.716 763.157 458.101C764.024 458.486 764.791 459.063 765.4 459.79C766.4 461.2 766.51 463.2 767.83 464.32C768.692 464.927 769.7 465.296 770.75 465.39C772 465.62 773.58 465.7 774.21 464.61C774.434 464.165 774.531 463.667 774.49 463.17C773.484 463.071 772.522 462.709 771.7 462.12V462.12Z" fill="black"/>
<path d="M626.13 402.69H556.96V334.53H626.18L626.13 402.69ZM625.13 299.92H557.96C557.96 194 658.64 200.19 658.64 133.18C658.64 96.2699 628.43 66.7 591.52 66.7C554.61 66.7 524.41 98.5799 524.41 134.23H457.29C457.26 116.594 460.711 99.1257 467.446 82.8265C474.181 66.5273 484.067 51.7179 496.538 39.2474C509.008 26.777 523.817 16.8909 540.117 10.1559C556.416 3.42094 573.884 -0.0303429 591.52 -4.6395e-05C665.66 -4.6395e-05 725.75 59.1499 725.75 133.18C725.75 216.97 625.08 226.51 625.08 299.92H625.13Z" fill="#38C8E8"/>
<path opacity="0.1" d="M281.14 382.39H263.3V364.77H281.14V382.39ZM280.87 355.89H263.57C263.57 328.59 289.52 330.18 289.52 312.89C289.511 310.628 289.056 308.389 288.182 306.303C287.307 304.217 286.03 302.323 284.423 300.73C282.817 299.138 280.912 297.877 278.818 297.021C276.724 296.165 274.482 295.729 272.22 295.74C267.651 295.845 263.301 297.717 260.083 300.961C256.865 304.206 255.029 308.571 254.96 313.14H237.66C237.775 304.061 241.453 295.39 247.901 288.998C254.35 282.605 263.052 279.003 272.132 278.968C281.212 278.932 289.942 282.467 296.44 288.808C302.939 295.15 306.684 303.792 306.87 312.87C306.82 334.47 280.87 336.93 280.87 355.85V355.89Z" fill="black"/>
<path opacity="0.1" d="M416.22 504.8H398.38V487.23H416.22V504.8ZM415.96 478.31H398.66C398.66 451 424.61 452.6 424.61 435.31C424.601 433.048 424.146 430.811 423.271 428.725C422.397 426.639 421.12 424.746 419.513 423.154C417.906 421.562 416.001 420.303 413.907 419.447C411.814 418.592 409.572 418.158 407.31 418.17C402.722 418.253 398.347 420.117 395.109 423.368C391.871 426.619 390.024 431.002 389.96 435.59H372.66C372.775 426.511 376.453 417.84 382.901 411.448C389.35 405.056 398.052 401.453 407.132 401.418C416.212 401.382 424.942 404.917 431.44 411.259C437.939 417.6 441.684 426.242 441.87 435.32C441.9 456.92 415.96 459.39 415.96 478.31Z" fill="black"/>
<path opacity="0.1" d="M498.36 288.1H485.43V275.39H498.36V288.1ZM498.17 268.89H485.63C485.63 249.11 504.44 250.26 504.44 237.74C504.432 236.101 504.102 234.48 503.467 232.969C502.833 231.457 501.907 230.086 500.742 228.933C499.578 227.78 498.198 226.867 496.68 226.247C495.163 225.627 493.539 225.312 491.9 225.32C488.581 225.387 485.419 226.741 483.079 229.095C480.739 231.45 479.406 234.621 479.36 237.94H466.82C466.793 231.288 469.41 224.899 474.095 220.176C478.78 215.454 485.148 212.786 491.8 212.76C498.452 212.733 504.841 215.35 509.564 220.035C514.286 224.72 516.954 231.088 516.98 237.74C516.96 253.39 498.17 255.18 498.17 268.89V268.89Z" fill="black"/>
<path opacity="0.1" d="M719.2 306.04H711.89V298.84H719.2V306.04ZM719.09 295.19H711.96C711.96 284.01 722.59 284.66 722.59 277.58C722.59 276.654 722.406 275.737 722.05 274.883C721.693 274.028 721.17 273.253 720.512 272.602C719.853 271.951 719.072 271.437 718.213 271.09C717.355 270.743 716.436 270.569 715.51 270.58C713.635 270.619 711.848 271.383 710.525 272.713C709.203 274.043 708.448 275.835 708.42 277.71H701.33C701.413 274.015 702.935 270.498 705.573 267.908C708.211 265.319 711.755 263.862 715.451 263.848C719.148 263.833 722.703 265.263 725.361 267.831C728.019 270.4 729.569 273.905 729.68 277.6C729.72 286.39 719.09 287.44 719.09 295.19V295.19Z" fill="black"/>
<path opacity="0.1" d="M830.96 633.51H823.65V626.31H830.96V633.51ZM830.85 622.66H823.76C823.76 611.47 834.4 612.13 834.4 605.05C834.387 603.182 833.633 601.396 832.303 600.083C830.974 598.771 829.178 598.039 827.31 598.05C825.434 598.086 823.646 598.85 822.323 600.181C821 601.511 820.246 603.304 820.22 605.18H813.13C813.213 601.485 814.735 597.968 817.373 595.378C820.011 592.789 823.555 591.332 827.251 591.318C830.948 591.303 834.503 592.733 837.161 595.302C839.819 597.87 841.369 601.375 841.48 605.07C841.52 613.9 830.89 614.91 830.89 622.66H830.85Z" fill="black"/>
</g>
<defs>
<linearGradient id="paint0_linear" x1="697.2" y1="832.05" x2="697.2" y2="363.3" gradientUnits="userSpaceOnUse">
<stop stop-color="#808080" stop-opacity="0.25"/>
<stop offset="0.54" stop-color="#808080" stop-opacity="0.12"/>
<stop offset="1" stop-color="#808080" stop-opacity="0.1"/>
</linearGradient>
<clipPath id="clip0">
<rect width="1003.92" height="836.78" fill="white"/>
</clipPath>
</defs>
</svg>
