<svg width="593" height="455" viewBox="0 0 593 455" fill="none" xmlns="http://www.w3.org/2000/svg">
<path d="M136.004 55.8641C128.318 59.865 120.62 64.9025 116.708 72.6326C113.832 78.3211 113.307 84.8439 112.833 91.1898L107.145 166.948C105.88 183.831 104.496 201.181 97.1264 216.426C84.4284 242.688 56.7821 257.674 36.0253 278.165C2.0143 311.746 -12.5862 368.354 12.9552 408.755C24.2231 426.415 41.6299 439.278 61.8196 444.864C73.6644 448.088 86.0401 448.657 98.302 449.206C201.011 453.66 303.79 455.447 406.639 454.566C418.85 454.459 431.397 454.25 442.666 449.611C458.234 443.208 469.421 429.113 477.126 414.146C484.831 399.179 489.767 382.929 497.055 367.759C511.971 336.789 536.242 311.544 557.391 284.473C569.053 269.557 579.968 253.749 586.516 235.988C596.926 207.76 595.106 174.558 578.837 149.244C571.808 138.303 562.239 128.829 557.454 116.738C550.773 99.83 554.503 80.8936 556.095 62.7851C557.688 44.6767 555.944 24.002 542.007 12.3279C534.315 5.88725 524.126 3.34638 514.196 1.89264C466.659 -5.05999 418.913 8.69991 371.775 17.9785C330.179 26.1953 288.008 30.8978 245.812 34.6459C208.356 37.9832 170.186 38.0716 136.004 55.8641Z" fill="#38C8E8" fill-opacity="0.25"/>
<path d="M454.456 383.35C454.456 383.274 454.456 383.192 454.5 383.109C454.544 383.027 454.5 383.065 454.5 383.046C454.513 382.888 454.513 382.73 454.5 382.572C454.5 382.572 453.653 380.948 452.667 378.717C451.321 375.651 449.722 371.435 449.722 368.673C449.722 368.673 434.951 316.984 424.964 311.339C424.964 311.339 416.747 296.707 416.836 288.471C416.848 285.839 416.636 283.211 416.204 280.615C414.744 271.532 412.31 254.144 414.535 250.965C417.36 246.926 422.069 229.355 410.825 216.088L412.797 215.785C412.797 215.785 412.69 215.652 412.513 215.393L412.797 215.349C412.797 215.349 408.448 210.128 408.448 198.593C408.512 191.95 410.01 183.272 414.535 172.343C415.134 170.894 415.681 169.459 416.179 168.039C418.285 166.992 420.206 165.609 421.867 163.943L422.069 163.735L422.303 163.513C426.456 159.342 428.971 153.805 430.722 148.186C432.329 143.021 433.358 137.694 433.788 132.302C434.255 126.443 434.009 120.559 433.788 114.687C433.503 107.835 433.156 100.782 430.412 94.5307C429.332 92.0846 427.884 89.7713 427.221 87.1798C426.852 85.4006 426.597 83.5999 426.456 81.7884C425.552 74.6904 422.189 67.8072 416.678 63.2501C411.166 58.693 403.462 56.6641 396.566 58.5729C392.622 59.6663 389.101 61.9291 385.821 64.4068C384.415 65.4658 383.089 66.6255 381.851 67.8768C377.888 71.7639 374.899 76.8583 377.768 82.2118C377.979 82.5995 378.204 82.9787 378.445 83.3495C376.929 85.7672 375.962 88.4874 375.61 91.319C375.258 94.1505 375.531 97.0248 376.409 99.7397C377.286 102.455 378.748 104.945 380.691 107.034C382.633 109.124 385.01 110.763 387.654 111.836L388.166 112.734H388.223C389.721 115.502 391.351 118.96 391.781 121.583C389.905 122.919 388.206 124.489 386.725 126.254C381.611 132.353 378.811 136.493 377.282 139.192C375.835 141.693 374.157 144.052 372.269 146.239C369.95 148.982 367.213 154.336 367.213 164.297C367.213 165.026 367.213 165.783 367.213 166.566C354.97 179.896 307.224 170.125 307.224 170.125C301.473 167.887 294.779 170.586 291.644 172.173C291.388 172.299 291.164 172.481 290.988 172.705C290.812 172.93 290.689 173.192 290.628 173.471C290.567 173.75 290.57 174.039 290.637 174.316C290.703 174.594 290.832 174.853 291.012 175.074C296.069 181.167 308.507 177.514 308.507 177.514C308.507 177.514 353.245 185.332 356.721 187.936C359.085 189.712 363.263 188.265 365.69 187.159L365.19 187.721L365.822 187.412L362.384 218.338H362.435L362.384 218.774C362.384 218.774 363.18 218.705 364.451 218.616L365.513 221.366H365.424L366.524 223.97L367.428 226.113C364.729 235.871 353.851 276.045 354.995 285.216C354.995 285.216 348.043 301.719 350.653 310.846C350.653 310.846 341.096 379.475 335.016 382.951L335.869 383.337C329.378 387.047 315.239 394.025 305.48 390.77C305.48 390.77 299.399 392.508 308.956 398.589C308.956 398.589 348.049 409.011 353.263 405.541L352.398 390.517L352.84 390.675C352.903 389.828 353.472 383.615 355.874 380.783C355.874 380.783 371.511 338.214 370.645 316.497L385.239 281.228C386.819 285.273 388.494 288.705 390.188 290.873L396.269 306.51L406.262 319.543C406.262 319.543 437.536 369.059 435.336 383.83L436.069 384.013C433.143 389.221 425.862 399.897 415.351 399.897C415.351 399.897 406.23 409.454 423.169 408.152C423.169 408.152 444.451 406.85 460.088 398.159L454.456 383.35Z" fill="url(#paint0_linear)"/>
<path d="M343.618 379.336C343.618 379.336 323.513 392.742 310.947 388.551C310.947 388.551 305.082 390.226 314.297 396.092C314.297 396.092 351.999 406.148 357.024 402.792L355.76 381.011L343.618 379.336Z" fill="#333333"/>
<path d="M438.288 379.336C438.288 379.336 430.33 397.35 416.924 397.35C416.924 397.35 408.126 406.565 424.465 405.307C424.465 405.307 444.988 404.043 460.069 395.675L452.857 376.877L438.288 379.336Z" fill="#333333"/>
<path d="M366.657 219.526L369.817 227.699L390.328 226.233L388.229 212.409L366.657 219.526Z" fill="#FDB797"/>
<path d="M371.265 227.699C371.265 227.699 357.442 276.734 358.699 286.765C358.699 286.765 352 302.68 354.509 311.478C354.509 311.478 345.293 377.661 339.428 381.005C339.428 381.005 356.493 388.728 357.018 388.545C362.884 386.453 356.601 388.545 356.601 388.545C356.601 388.545 357.018 381.845 359.534 378.912C359.534 378.912 374.615 337.86 373.774 316.92L393.88 268.328L371.265 227.699Z" fill="#252A62"/>
<path opacity="0.1" d="M371.265 227.699C371.265 227.699 357.442 276.734 358.699 286.765C358.699 286.765 352 302.68 354.509 311.478C354.509 311.478 345.293 377.661 339.428 381.005C339.428 381.005 356.493 388.728 357.018 388.545C362.884 386.453 356.601 388.545 356.601 388.545C356.601 388.545 357.018 381.845 359.534 378.912C359.534 378.912 374.615 337.86 373.774 316.92L393.88 268.328L371.265 227.699Z" fill="black"/>
<path d="M368.755 225.183L377.971 246.964C377.971 246.964 385.094 282.568 392.634 292.2L398.5 307.281L408.139 319.853C408.139 319.853 438.301 367.605 436.202 381.845C436.202 381.845 455.05 386.902 454.633 380.581C454.633 380.581 450.025 371.783 450.025 367.175C450.025 367.175 435.785 317.331 426.146 311.883C426.146 311.883 418.233 297.769 418.309 289.83C418.313 287.289 418.101 284.751 417.677 282.246C416.267 273.485 413.922 256.723 416.071 253.658C419.004 249.467 424.029 230.202 409.788 217.213L368.755 225.183Z" fill="#252A62"/>
<path opacity="0.1" d="M454.62 380.594C454.62 380.594 450.013 371.795 450.013 367.188C450.013 367.188 435.772 317.344 426.134 311.895C426.134 311.895 418.22 297.782 418.296 289.843C418.3 287.301 418.089 284.764 417.664 282.258C416.254 273.498 413.91 256.736 416.059 253.67C418.991 249.48 424.016 230.215 409.776 217.226L407.349 217.7C420.963 230.676 416.027 249.53 413.132 253.67C410.237 257.81 415.66 287.599 415.66 287.599C413.568 294.722 423.201 311.895 423.201 311.895C432.833 317.344 447.08 367.188 447.08 367.188C447.08 371.795 451.688 380.594 451.688 380.594C451.827 382.667 449.861 383.508 447.168 383.703C451.226 383.937 454.81 383.368 454.62 380.594Z" fill="black"/>
<path d="M388.02 115.856C388.02 115.856 395.978 128.004 393.886 131.771L414.409 126.715C414.409 126.715 408.96 120.85 410.218 106.609L388.02 115.856Z" fill="#FDB797"/>
<path opacity="0.1" d="M417.342 124.654C417.342 124.654 400.169 120.862 389.278 133.87C384.348 139.748 381.649 143.743 380.17 146.347C378.777 148.758 377.16 151.033 375.341 153.141C372.617 156.359 369.28 163.292 370.847 177.431L365.791 222.668C365.791 222.668 380.455 221.404 384.222 222.668C387.989 223.932 414.384 219.735 414.384 219.735C414.384 219.735 403.91 207.17 416.059 177.848C428.207 148.527 417.342 124.654 417.342 124.654Z" fill="black"/>
<path d="M417.342 124.237C417.342 124.237 400.169 120.445 389.278 133.453C384.348 139.331 381.649 143.326 380.17 145.93C378.777 148.341 377.16 150.615 375.341 152.724C372.617 155.941 369.28 162.875 370.847 177.014L365.791 222.251C365.791 222.251 380.455 220.986 384.222 222.251C387.989 223.515 414.384 219.318 414.384 219.318C414.384 219.318 403.91 206.753 416.059 177.431C428.207 148.11 417.342 124.237 417.342 124.237Z" fill="#2AD2BE"/>
<path opacity="0.1" d="M396.61 162.964C396.61 162.964 380.271 186.438 372.744 190.629L368.553 192.721C368.553 192.721 394.935 162.964 396.61 162.964Z" fill="black"/>
<path d="M381.321 151.043C381.321 151.043 392.066 146.814 396.673 160.833C396.861 161.403 396.893 162.011 396.766 162.597C396.64 163.183 396.359 163.724 395.953 164.164L370.847 191.254C370.847 191.254 363.724 195.445 360.374 192.929C357.024 190.414 313.88 182.873 313.88 182.873C313.88 182.873 301.903 186.394 297.01 180.522C296.834 180.311 296.707 180.063 296.64 179.797C296.573 179.53 296.568 179.251 296.625 178.982C296.681 178.713 296.798 178.46 296.967 178.243C297.136 178.026 297.351 177.85 297.598 177.728C299.937 176.546 303.837 177.229 308.438 176.66C311.971 176.238 315.545 176.313 319.057 176.881C333.423 179.132 367.27 182.848 372.522 169.05C379.222 151.466 381.321 151.043 381.321 151.043Z" fill="#FDB797"/>
<path opacity="0.1" d="M381.112 151.251C381.112 151.251 394.095 149.159 397.027 162.142V161.301C397.027 161.301 393.26 147.067 381.112 151.251Z" fill="black"/>
<path opacity="0.1" d="M410.667 107.482L388.438 116.697C388.438 116.697 389.443 118.226 390.637 120.369C392.805 121.241 395.801 120.679 398.279 120.679C403.335 120.679 407.033 119.345 410.427 116.071C410.117 113.556 410.332 110.952 410.667 107.482Z" fill="black"/>
<path d="M397.236 120.881C407.645 120.881 416.084 112.443 416.084 102.033C416.084 91.6237 407.645 83.1852 397.236 83.1852C386.826 83.1852 378.388 91.6237 378.388 102.033C378.388 112.443 386.826 120.881 397.236 120.881Z" fill="#FDB797"/>
<path opacity="0.1" d="M397.267 99.4859C397.678 100.94 396.471 102.286 395.599 103.518C392.546 107.835 393.109 113.714 394.505 118.808C395.188 121.305 396.212 123.959 398.443 125.268C400.225 126.31 402.419 126.266 404.416 126.791C408.012 127.733 410.92 130.583 412.633 133.864C414.346 137.144 414.959 140.93 415.161 144.646C415.772 155.396 413.188 166.087 407.734 175.371C413.328 176.325 419.111 173.778 423.125 169.752C427.139 165.726 429.553 160.391 431.241 154.974C432.791 149.995 433.783 144.858 434.199 139.66C434.647 134.009 434.414 128.333 434.199 122.67C433.927 116.065 433.611 109.283 430.944 103.234C429.901 100.87 428.51 98.6453 427.865 96.1423C427.51 94.4278 427.263 92.6925 427.126 90.9468C426.254 84.1016 423.011 77.465 417.696 73.0659C412.38 68.6668 404.953 66.7453 398.304 68.5593C394.512 69.6149 391.111 71.7955 387.964 74.1846C382.869 78.0591 377.023 84.2976 380.619 90.9342C383.748 96.7428 390.662 100.523 397.267 99.4859Z" fill="black"/>
<path d="M397.685 99.0688C398.095 100.523 396.888 101.869 396.016 103.101C392.963 107.418 393.526 113.296 394.922 118.391C395.605 120.887 396.629 123.542 398.86 124.85C400.643 125.893 402.836 125.849 404.833 126.374C408.43 127.315 411.337 130.166 413.05 133.446C414.763 136.727 415.376 140.513 415.578 144.229C416.189 154.987 413.6 165.684 408.139 174.973C413.733 175.927 419.516 173.38 423.529 169.354C427.543 165.327 429.957 159.993 431.645 154.576C433.195 149.597 434.188 144.46 434.603 139.261C435.052 133.611 434.818 127.935 434.603 122.272C434.331 115.667 434.015 108.885 431.348 102.836C430.305 100.472 428.915 98.2471 428.27 95.7441C427.914 94.0296 427.667 92.2943 427.53 90.5486C426.658 83.7034 423.416 77.0668 418.1 72.6677C412.784 68.2686 405.358 66.3471 398.709 68.1611C394.916 69.2167 391.516 71.3973 388.368 73.7864C383.274 77.661 377.427 83.8994 381.023 90.536C384.171 96.3256 391.073 100.105 397.685 99.0688Z" fill="#72351C"/>
<path opacity="0.1" d="M399.543 192.721C399.543 192.721 407.5 192.721 410.433 188.928Z" fill="black"/>
<path opacity="0.1" d="M399.543 195.654C399.543 195.654 407.5 195.654 410.433 191.861Z" fill="black"/>
<path opacity="0.1" d="M407.083 147.484C407.083 147.484 405.819 157.54 401.218 162.148Z" fill="black"/>
<g opacity="0.1">
<path opacity="0.1" d="M225.474 398.481V398.38L225.322 398.43L225.474 398.481Z" fill="url(#paint1_linear)"/>
</g>
<g opacity="0.1">
<path opacity="0.1" d="M225.032 398.481C225.129 398.483 225.226 398.466 225.316 398.43C224.343 398.089 219.419 396.471 225.032 398.481Z" fill="url(#paint2_linear)"/>
</g>
<path d="M287.89 176.591C284.692 175.03 277.865 172.362 272 174.568C272 174.568 215.747 185.718 208.655 167.704C208.322 166.861 208 166.05 207.688 165.271C207.83 164.09 207.891 162.901 207.871 161.712C207.896 160.25 207.792 158.789 207.562 157.345C207.191 155.231 206.379 153.22 205.179 151.441C203.783 149.102 202.641 146.621 201.772 144.04C200.407 140.32 198.269 136.932 195.498 134.099C192.728 131.266 189.388 129.053 185.699 127.606C185.806 124.914 187.709 120.938 189.434 117.847H189.491L190.016 116.962C193.647 115.579 196.777 113.133 198.996 109.942C201.215 106.752 202.42 102.967 202.455 99.0814C202.454 95.3373 201.334 91.6789 199.237 88.5766C205.185 87.6222 203.15 82.5657 199.471 78.2298C198.758 77.3896 197.996 76.5919 197.19 75.8406C193.598 72.3033 189.076 69.8574 184.15 68.7869C183.562 68.6605 182.968 68.5657 182.374 68.4835C178.836 67.2646 175.066 66.8673 171.352 67.3218C167.637 67.7762 164.075 69.0705 160.935 71.1065C160.168 68.9321 158.741 67.0518 156.853 65.7291C154.965 64.4064 152.71 63.7075 150.405 63.7304C144.286 63.7304 139.331 68.5277 139.331 74.4754C139.331 80.4231 144.286 85.2204 150.405 85.2204H151.037C150.627 86.9115 150.415 88.6443 150.405 90.3843C150.405 101.205 158.071 110.294 168.437 112.835L168.62 113.006C168.62 113.183 168.589 113.366 168.564 113.543L168.608 113.581C168.213 116.764 167.209 119.841 165.65 122.645L165.258 122.55C157.085 128.238 154.127 136.866 154.197 145.854C154.153 153.489 156.264 161.478 159.253 167.976C160.351 170.574 160.894 173.372 160.846 176.192C160.688 185.926 156.207 197.607 153.16 204.446C151.953 207.157 134.451 249.48 134.451 249.48L134.85 249.379L134.451 250.339C138.282 249.265 142.39 249.758 145.879 250.7C148.281 251.33 150.785 251.476 153.244 251.129C155.703 250.782 158.068 249.948 160.201 248.677C160.67 250.709 161.475 252.649 162.584 254.416C164.853 257.576 162.376 274.718 160.884 283.687C160.447 286.25 160.236 288.848 160.252 291.448C160.334 299.583 151.966 314.032 151.966 314.032C141.777 319.607 126.715 370.639 126.715 370.639C126.715 373.369 125.084 377.528 123.713 380.556C122.714 382.762 121.817 384.348 121.817 384.348C121.804 384.504 121.804 384.66 121.817 384.816C121.817 384.816 121.817 384.86 121.817 384.879C121.827 384.96 121.842 385.04 121.861 385.119L116.046 399.789C131.993 408.366 153.698 409.656 153.698 409.656C170.972 410.92 161.674 401.509 161.674 401.509C150.929 401.509 143.534 390.966 140.544 385.827L141.297 385.644C139.084 371.062 171.003 322.173 171.003 322.173L181.192 309.304L187.393 293.8C189.118 291.663 190.831 288.275 192.449 284.281L207.328 319.082C206.443 340.528 222.39 382.553 222.39 382.553C224.861 385.347 225.417 391.484 225.48 392.318L225.929 392.167L225.044 407.001C230.36 410.433 270.23 400.137 270.23 400.137C279.976 394.132 273.776 392.42 273.776 392.42C263.827 395.63 249.404 388.741 242.805 385.081L243.671 384.702C237.471 381.27 227.724 313.513 227.724 313.513C230.385 304.507 223.3 288.231 223.3 288.231C224.109 281.974 219.014 260.958 214.906 245.453C220.18 245.409 225.439 244.871 230.613 243.848C230.284 243.639 229.981 243.418 229.646 243.216C230.278 243.096 230.613 243.02 230.613 243.02C216.922 234.266 209.123 204.698 205.754 187.949C206.597 188.664 207.504 189.299 208.465 189.845L212.89 191.988L212.384 191.438C214.856 192.531 219.116 193.966 221.53 192.203C225.076 189.63 270.698 181.913 270.698 181.913C270.698 181.913 283.339 185.522 288.541 179.504C288.735 179.287 288.874 179.026 288.947 178.743C289.02 178.461 289.025 178.165 288.962 177.881C288.898 177.596 288.768 177.331 288.581 177.106C288.395 176.882 288.158 176.705 287.89 176.591V176.591Z" fill="url(#paint3_linear)"/>
<path d="M175.857 117.323C188.351 117.323 198.479 107.195 198.479 94.7013C198.479 82.2079 188.351 72.0799 175.857 72.0799C163.364 72.0799 153.236 82.2079 153.236 94.7013C153.236 107.195 163.364 117.323 175.857 117.323Z" fill="#FFC533"/>
<path d="M192.822 117.114C192.822 117.114 184.864 129.262 186.957 133.029L166.434 127.973C166.434 127.973 171.882 122.107 170.624 107.867L192.822 117.114Z" fill="#FDB797"/>
<path opacity="0.1" d="M170.201 108.739L192.399 117.955C192.399 117.955 191.394 119.484 190.199 121.627C188.031 122.499 185.035 121.937 182.557 121.937C177.501 121.937 173.803 120.603 170.409 117.329C170.725 114.813 170.485 112.209 170.201 108.739Z" fill="black"/>
<path d="M183.607 122.139C194.016 122.139 202.454 113.7 202.454 103.291C202.454 92.8815 194.016 84.4429 183.607 84.4429C173.197 84.4429 164.759 92.8815 164.759 103.291C164.759 113.7 173.197 122.139 183.607 122.139Z" fill="#FDB797"/>
<path d="M153.236 89.6764C159.02 89.6764 163.709 84.9874 163.709 79.2032C163.709 73.419 159.02 68.73 153.236 68.73C147.452 68.73 142.763 73.419 142.763 79.2032C142.763 84.9874 147.452 89.6764 153.236 89.6764Z" fill="#FFC533"/>
<path opacity="0.1" d="M196.994 93.1843C192.278 93.1021 186.919 92.154 183.385 95.2701C180.857 97.5076 180.175 101.123 179.315 104.397C178.051 109.314 175.156 114.719 170.125 115.452C167.053 115.9 163.962 114.371 161.782 112.159C159.601 109.946 158.192 107.102 156.858 104.315C155.524 101.527 154.222 98.6263 154.33 95.5356C154.462 91.8633 156.605 88.5829 158.792 85.6438C160.111 83.7982 161.58 82.0647 163.185 80.461C165.662 78.0741 168.611 76.2322 171.843 75.0535C175.074 73.8748 178.517 73.3855 181.949 73.6171C185.381 73.8487 188.726 74.796 191.77 76.3981C194.814 78.0002 197.489 80.2217 199.623 82.9197C203.548 87.6791 205.501 93.3297 196.994 93.1843Z" fill="black"/>
<path d="M196.576 92.7672C191.861 92.685 186.501 91.7369 182.968 94.853C180.44 97.0905 179.757 100.706 178.898 103.98C177.634 108.897 174.739 114.301 169.708 115.035C166.636 115.483 163.545 113.954 161.364 111.742C159.184 109.529 157.774 106.685 156.441 103.898C155.107 101.11 153.805 98.2092 153.912 95.1184C154.045 91.4462 156.188 88.1658 158.375 85.2267C159.694 83.3811 161.163 81.6476 162.768 80.0439C165.245 77.657 168.194 75.815 171.425 74.6364C174.657 73.4577 178.099 72.9684 181.531 73.2C184.963 73.4316 188.309 74.3789 191.353 75.981C194.397 77.5831 197.072 79.8046 199.206 82.5026C203.125 87.262 205.084 92.9126 196.576 92.7672Z" fill="#FFC533"/>
<path d="M237.224 380.594C237.224 380.594 257.33 394 269.895 389.809C269.895 389.809 275.761 391.484 266.545 397.35C266.545 397.35 228.843 407.406 223.818 404.049L225.082 382.269L237.224 380.594Z" fill="#333333"/>
<path d="M142.554 380.594C142.554 380.594 150.512 398.607 163.918 398.607C163.918 398.607 172.716 407.823 156.378 406.565C156.378 406.565 135.855 405.301 120.774 396.932L127.985 378.135L142.554 380.594Z" fill="#333333"/>
<path d="M209.578 228.957C209.578 228.957 223.401 277.966 222.143 288.016C222.143 288.016 228.843 303.931 226.334 312.73C226.334 312.73 235.549 378.913 241.415 382.256C241.415 382.256 224.349 389.98 223.825 389.797C217.959 387.704 224.242 389.797 224.242 389.797C224.242 389.797 223.825 383.097 221.309 380.164C221.309 380.164 206.228 339.112 207.069 318.172L186.963 269.579L209.578 228.957Z" fill="#3AD29F"/>
<path opacity="0.1" d="M209.578 228.957C209.578 228.957 223.401 277.966 222.143 288.016C222.143 288.016 228.843 303.931 226.334 312.73C226.334 312.73 235.549 378.913 241.415 382.256C241.415 382.256 224.349 389.98 223.825 389.797C217.959 387.704 224.242 389.797 224.242 389.797C224.242 389.797 223.825 383.097 221.309 380.164C221.309 380.164 206.228 339.112 207.069 318.172L186.963 269.579L209.578 228.957Z" fill="black"/>
<path d="M212.093 226.441L202.878 248.222C202.878 248.222 195.755 283.826 188.214 293.458L182.349 308.539L172.716 321.104C172.716 321.104 142.554 368.856 144.653 383.097C144.653 383.097 125.805 388.153 126.222 381.833C126.222 381.833 130.83 373.034 130.83 368.427C130.83 368.427 145.07 318.583 154.709 313.134C154.709 313.134 162.622 299.02 162.546 291.082C162.542 288.54 162.754 286.003 163.178 283.497C164.588 274.737 166.933 257.975 164.784 254.909C161.851 250.718 156.826 231.453 171.067 218.465L212.093 226.441Z" fill="#3AD29F"/>
<path opacity="0.1" d="M126.241 381.845C126.241 381.845 130.849 373.047 130.849 368.439C130.849 368.439 145.089 318.595 154.728 313.147C154.728 313.147 162.641 299.033 162.565 291.094C162.561 288.553 162.773 286.015 163.197 283.51C164.607 274.749 166.952 257.987 164.803 254.922C161.87 250.731 156.845 231.466 171.086 218.477L173.513 218.951C159.854 231.934 164.797 250.82 167.691 254.928C170.586 259.036 165.163 288.857 165.163 288.857C167.255 295.98 157.623 313.153 157.623 313.153C147.99 318.601 133.744 368.446 133.744 368.446C133.744 373.053 129.136 381.852 129.136 381.852C128.997 383.925 130.962 384.765 133.655 384.961C129.616 385.195 126.032 384.626 126.241 381.845Z" fill="black"/>
<path opacity="0.1" d="M167.287 126.936L182.854 130.766C187.2 131.841 191.209 133.981 194.52 136.994C197.83 140.006 200.338 143.797 201.816 148.022C202.634 150.537 203.712 152.961 205.033 155.252C206.171 157.001 206.937 158.966 207.283 161.023C207.915 165.125 207.865 171.768 203.567 179.302C203.567 179.302 210.652 232.503 229.051 244.651C229.051 244.651 211.095 248.784 195.356 243.671C184.807 240.245 173.234 241.686 164.196 248.159L163.804 248.443C161.712 250.007 159.292 251.075 156.727 251.569C154.162 252.063 151.518 251.969 148.995 251.294C145.696 250.377 141.808 249.897 138.187 250.946C138.187 250.946 154.74 209.616 155.884 206.961C159.74 197.992 166.061 180.497 161.636 170.548C155.486 156.7 153.236 136.177 167.287 126.936Z" fill="black"/>
<path d="M167.287 126.121L182.854 129.951C187.2 131.026 191.209 133.166 194.52 136.178C197.83 139.191 200.338 142.981 201.816 147.206C202.634 149.722 203.712 152.145 205.033 154.437C206.171 156.186 206.937 158.15 207.283 160.208C207.915 164.31 207.865 170.953 203.567 178.487C203.567 178.487 210.652 231.687 229.051 243.835C229.051 243.835 211.095 247.969 195.356 242.856C184.807 239.43 173.234 240.871 164.196 247.343L163.804 247.628C161.71 249.188 159.29 250.253 156.725 250.744C154.16 251.234 151.517 251.137 148.995 250.459C145.696 249.543 141.808 249.063 138.187 250.112C138.187 250.112 154.74 208.781 155.884 206.127C159.74 197.152 166.061 179.656 161.636 169.682C155.486 155.859 153.236 136.177 167.287 126.121Z" fill="#38C8E8"/>
<path opacity="0.1" d="M184.239 164.228C184.239 164.228 200.577 187.683 208.118 191.874L212.308 193.966C212.308 193.966 185.913 164.228 184.239 164.228Z" fill="black"/>
<path d="M199.522 152.301C199.522 152.301 188.777 148.072 184.169 162.091C183.981 162.66 183.949 163.269 184.076 163.855C184.203 164.44 184.484 164.982 184.89 165.422L209.995 192.519C209.995 192.519 217.118 196.709 220.468 194.193C223.818 191.678 266.962 184.137 266.962 184.137C266.962 184.137 278.858 187.633 283.781 181.843C283.964 181.632 284.096 181.382 284.169 181.112C284.242 180.842 284.253 180.56 284.201 180.285C284.149 180.011 284.037 179.751 283.871 179.526C283.705 179.301 283.491 179.117 283.244 178.986C280.646 177.678 275.893 177.722 270.78 177.286C269.011 177.133 267.231 177.214 265.483 177.526C254.549 179.467 214.097 185.496 208.32 170.314C201.62 152.718 199.522 152.301 199.522 152.301Z" fill="#FDB797"/>
<path opacity="0.1" d="M199.737 152.509C199.737 152.509 186.754 150.417 183.822 163.4V162.559C183.822 162.559 187.589 148.319 199.737 152.509Z" fill="black"/>
<circle cx="289.483" cy="134.628" r="39.1876" fill="white" fill-opacity="0.5"/>
<path d="M270.781 110.61L289.835 145.218L308.803 110.888L308.533 147.844L289.835 160.143L270.511 147.566L270.781 110.61Z" fill="#1F1010" fill-opacity="0.1"/>
<path d="M271.013 147.296L271.267 112.53L289.397 145.459L289.834 146.253L290.272 145.46L308.289 112.853L308.035 147.573L289.833 159.546L271.013 147.296Z" stroke="#1F1010" stroke-opacity="0.1"/>
<defs>
<linearGradient id="paint0_linear" x1="375.398" y1="408.322" x2="375.398" y2="57.846" gradientUnits="userSpaceOnUse">
<stop stop-color="#808080" stop-opacity="0.25"/>
<stop offset="0.54" stop-color="#808080" stop-opacity="0.12"/>
<stop offset="1" stop-color="#808080" stop-opacity="0.1"/>
</linearGradient>
<linearGradient id="paint1_linear" x1="303.423" y1="472.356" x2="303.423" y2="472.34" gradientUnits="userSpaceOnUse">
<stop stop-color="#808080" stop-opacity="0.25"/>
<stop offset="0.54" stop-color="#808080" stop-opacity="0.12"/>
<stop offset="1" stop-color="#808080" stop-opacity="0.1"/>
</linearGradient>
<linearGradient id="paint2_linear" x1="1722.17" y1="1121.56" x2="1722.17" y2="1120.01" gradientUnits="userSpaceOnUse">
<stop stop-color="#808080" stop-opacity="0.25"/>
<stop offset="0.54" stop-color="#808080" stop-opacity="0.12"/>
<stop offset="1" stop-color="#808080" stop-opacity="0.1"/>
</linearGradient>
<linearGradient id="paint3_linear" x1="82906.9" y1="259381" x2="82906.9" y2="69950.5" gradientUnits="userSpaceOnUse">
<stop stop-color="#808080" stop-opacity="0.25"/>
<stop offset="0.54" stop-color="#808080" stop-opacity="0.12"/>
<stop offset="1" stop-color="#808080" stop-opacity="0.1"/>
</linearGradient>
</defs>
</svg>
