<svg width="24" height="24" viewBox="0 0 24 24" fill="none" xmlns="http://www.w3.org/2000/svg">
<path d="M12.0175 11.9365C12.012 11.9365 12.0057 11.9362 12 11.936C11.994 11.9362 11.9878 11.9365 11.9823 11.9365C10.493 11.9365 9.18075 11.5595 8.40525 12.2715C7.9405 12.6987 7.74475 13.2135 7.74475 13.7677C7.74475 16.083 9.59975 16.3673 11.982 16.3673H12.0175C14.3997 16.3673 16.2547 16.0828 16.2547 13.7677C16.2547 13.2133 16.059 12.6987 15.5942 12.2715C14.8187 11.5595 13.5068 11.9365 12.0175 11.9365ZM9.992 15.1003C9.53875 15.1003 9.17125 14.5913 9.17125 13.9635C9.17125 13.3357 9.53875 12.827 9.992 12.827C10.4452 12.827 10.8132 13.3357 10.8132 13.9635C10.8132 14.5913 10.4452 15.1003 9.992 15.1003ZM14.0077 15.1003C13.5542 15.1003 13.1865 14.5913 13.1865 13.9635C13.1865 13.3357 13.5542 12.827 14.0077 12.827C14.4607 12.827 14.8285 13.3357 14.8285 13.9635C14.8285 14.5913 14.461 15.1003 14.0077 15.1003ZM12 0C5.37225 0 0 5.3725 0 12C0 18.6275 5.37225 24 12 24C18.6273 24 24 18.6275 24 12C24 5.3725 18.6273 0 12 0ZM13.0945 16.9252C12.8795 16.9252 12.452 16.9258 12 16.9263C11.5478 16.9258 11.12 16.9252 10.9052 16.9252C9.9545 16.9252 6.1895 16.8525 6.1895 12.314C6.1895 11.2698 6.5475 10.5058 7.13325 9.8695C7.03975 9.63875 7.035 8.32825 7.53375 7.07375C7.53375 7.07375 8.67775 7.19925 10.4087 8.387C10.7715 8.28675 11.3857 8.23675 12 8.23675C12.6138 8.23675 13.228 8.2865 13.5913 8.387C15.322 7.19925 16.4657 7.07375 16.4657 7.07375C16.9645 8.32825 16.96 9.63875 16.8665 9.8695C17.4525 10.5058 17.8105 11.27 17.8105 12.314C17.8105 16.8525 14.0452 16.9252 13.0945 16.9252Z" fill="#1F2431"/>
</svg>
