<svg width="19" height="19" viewBox="0 0 19 19" fill="none" xmlns="http://www.w3.org/2000/svg">
<path d="M2.11111 19H16.8889C18.0532 19 19 18.1479 19 17.1V8.55011C19.0001 8.42534 18.9729 8.30177 18.9198 8.18651C18.8667 8.07125 18.7889 7.96656 18.6907 7.87846L10.2463 0.278538C10.1483 0.190241 10.032 0.12019 9.90395 0.0723957C9.7759 0.024601 9.63863 0 9.5 0C9.36137 0 9.2241 0.024601 9.09605 0.0723957C8.96799 0.12019 8.85166 0.190241 8.75372 0.278538L0.309278 7.87846C0.211114 7.96656 0.133257 8.07125 0.0801817 8.18651C0.0271062 8.30177 -0.000142649 8.42534 5.61573e-07 8.55011V17.1C5.61573e-07 18.1479 0.946833 19 2.11111 19ZM7.38889 17.1V12.3501H11.6111V17.1H7.38889ZM2.11111 8.9434L9.5 2.29347L16.8889 8.9434L16.8899 17.1H13.7222V12.3501C13.7222 11.3022 12.7754 10.4501 11.6111 10.4501H7.38889C6.22461 10.4501 5.27778 11.3022 5.27778 12.3501V17.1H2.11111V8.9434Z" fill="#66788A"/>
</svg>
