<svg width="24" height="24" viewBox="0 0 24 24" fill="none" xmlns="http://www.w3.org/2000/svg">
<path d="M2.66667 24H21.3333C22.804 24 24 22.9236 24 21.6V10.8001C24.0002 10.6425 23.9658 10.4865 23.8987 10.3409C23.8317 10.1953 23.7333 10.063 23.6093 9.95174L12.9427 0.351838C12.8189 0.240304 12.672 0.15182 12.5103 0.0914472C12.3485 0.031075 12.1751 0 12 0C11.8249 0 11.6515 0.031075 11.4897 0.0914472C11.328 0.15182 11.181 0.240304 11.0573 0.351838L0.390667 9.95174C0.26667 10.063 0.168325 10.1953 0.101282 10.3409C0.0342393 10.4865 -0.000180188 10.6425 7.09356e-07 10.8001V21.6C7.09356e-07 22.9236 1.196 24 2.66667 24ZM9.33333 21.6V15.6001H14.6667V21.6H9.33333ZM2.66667 11.2969L12 2.89701L21.3333 11.2969L21.3347 21.6H17.3333V15.6001C17.3333 14.2765 16.1373 13.2001 14.6667 13.2001H9.33333C7.86267 13.2001 6.66667 14.2765 6.66667 15.6001V21.6H2.66667V11.2969Z" fill="white"/>
</svg>
