<svg width="19" height="19" viewBox="0 0 19 19" fill="none" xmlns="http://www.w3.org/2000/svg">
<path d="M9.50398 8.32709C8.74706 8.32709 8.09334 7.76988 8.09334 7.0579V1.26918C8.09334 0.588158 8.71265 0 9.50398 0C10.2953 0 10.9146 0.557203 10.9146 1.26918V7.0579C10.9146 7.76988 10.2609 8.32709 9.50398 8.32709ZM5.27206 5.78872C5.61612 5.54107 5.82256 5.1696 5.82256 4.79813C5.82256 3.74564 4.44632 3.15748 3.51736 3.83851C1.14336 5.57203 -0.267281 8.29613 0.042372 11.2679C0.489648 15.385 4.23989 18.6663 8.81587 18.9758C14.3552 19.3473 19 15.385 19 10.463C19 7.76988 17.6238 5.38629 15.4562 3.80755C14.5616 3.15748 13.1854 3.74564 13.1854 4.79813C13.1854 5.20056 13.3918 5.54107 13.7359 5.78872C15.2498 6.90312 16.2131 8.57473 16.2131 10.463C16.2131 13.992 12.7725 16.8399 8.74705 16.4375C5.65053 16.1279 3.17331 13.8682 2.86365 11.0821C2.62281 8.9462 3.62058 7.02695 5.27206 5.78872Z" fill="#66788A"/>
</svg>
