<svg width="24" height="24" viewBox="0 0 24 24" fill="none" xmlns="http://www.w3.org/2000/svg">
<path d="M12.005 10.5184C11.0489 10.5184 10.2232 9.81459 10.2232 8.91524V1.60318C10.2232 0.742937 11.0055 0 12.005 0C13.0046 0 13.7869 0.703835 13.7869 1.60318V8.91524C13.7869 9.81459 12.9612 10.5184 12.005 10.5184ZM6.65945 7.31206C7.09405 6.99925 7.35481 6.53002 7.35481 6.0608C7.35481 4.73134 5.61641 3.9884 4.44299 4.84864C1.44424 7.03835 -0.337618 10.4793 0.0535225 14.2331C0.618503 19.4337 5.35565 23.5785 11.1358 23.9695C18.1329 24.4387 24 19.4337 24 13.2165C24 9.81459 22.2616 6.80374 19.5236 4.80954C18.3937 3.9884 16.6553 4.73134 16.6553 6.0608C16.6553 6.56913 16.916 6.99925 17.3506 7.31206C19.2629 8.71973 20.4797 10.8312 20.4797 13.2165C20.4797 17.6741 16.1337 21.2715 11.0489 20.7631C7.13751 20.3721 4.00839 17.5177 3.61725 13.9985C3.31303 11.3005 4.57337 8.87614 6.65945 7.31206Z" fill="white"/>
</svg>
