<svg width="48" height="40" viewBox="0 0 48 40" fill="none" xmlns="http://www.w3.org/2000/svg">
<mask id="mask0" mask-type="alpha" maskUnits="userSpaceOnUse" x="0" y="0" width="48" height="40">
<path fill-rule="evenodd" clip-rule="evenodd" d="M0.267822 0.942871V39.0572H47.9107V0.942871H0.267822ZM12.1785 10.4714H7.41425V29.5286H12.1785V10.4714ZM24.0893 29.5286H16.9428C15.6326 29.5286 14.5607 28.4566 14.5607 27.1464V12.8536C14.5607 11.5434 15.6326 10.4714 16.9428 10.4714H24.0893C25.3994 10.4714 26.4714 11.5434 26.4714 12.8536V27.1464C26.4714 28.4566 25.3994 29.5286 24.0893 29.5286ZM31.2357 29.5286H38.3821C39.6923 29.5286 40.7643 28.4566 40.7643 27.1464V12.8536C40.7643 11.5434 39.6923 10.4714 38.3821 10.4714H31.2357C29.9255 10.4714 28.8535 11.5434 28.8535 12.8536V27.1464C28.8535 28.4566 29.9255 29.5286 31.2357 29.5286ZM33.6178 15.2357H36V24.7643H33.6178V15.2357ZM19.325 15.2357H21.7071V24.7643H19.325V15.2357ZM5.03211 34.2929H43.1464V5.70716H5.03211V34.2929Z" fill="white"/>
</mask>
<g mask="url(#mask0)">
<rect x="-4.99988" y="-9.99999" width="60" height="60" fill="#66788A"/>
</g>
</svg>
