<svg width="25" height="25" viewBox="0 0 25 25" fill="none" xmlns="http://www.w3.org/2000/svg">
<path d="M10.4947 20.36C10.6073 21.36 11.4711 22.1378 12.52 22.1378C13.5689 22.1378 14.4327 21.36 14.5453 20.36H10.4947ZM16.816 20.36C16.6983 22.5886 14.8199 24.36 12.52 24.36C10.2201 24.36 8.34171 22.5886 8.22397 20.36H2.55837C1.4326 20.36 0.520004 19.4654 0.520004 18.3608V17.9148C0.520004 16.3036 1.68698 14.9597 3.23699 14.6496V9.47076C3.23699 4.43773 7.39252 0.359985 12.52 0.359985C17.6475 0.359985 21.803 4.43869 21.803 9.47076V14.6493C23.3549 14.9589 24.52 16.3021 24.52 17.9148V18.3608C24.52 19.4683 23.6075 20.36 22.4816 20.36H16.816ZM22.2559 17.9148C22.2559 17.3005 21.7499 16.8044 21.1196 16.8044C20.2459 16.8044 19.5389 16.1053 19.5389 15.2521V9.47076C19.5389 5.66597 16.3971 2.58221 12.52 2.58221C8.64287 2.58221 5.50114 5.66513 5.50114 9.47076V15.2521C5.50114 16.1091 4.79044 16.8044 3.92041 16.8044C3.29256 16.8044 2.78416 17.3024 2.78416 17.9148V18.1378H22.2559V17.9148Z" fill="white"/>
</svg>
