<svg width="19" height="19" viewBox="0 0 19 19" fill="none" xmlns="http://www.w3.org/2000/svg">
<path d="M7.89664 15.8333C7.9858 16.625 8.66964 17.2407 9.5 17.2407C10.3304 17.2407 11.0142 16.625 11.1034 15.8333H7.89664ZM12.901 15.8333C12.8078 17.5976 11.3208 19 9.5 19C7.67923 19 6.19219 17.5976 6.09898 15.8333H1.61371C0.722471 15.8333 0 15.1251 0 14.2507V13.8976C0 12.6221 0.923856 11.5581 2.15094 11.3126V7.2127C2.15094 3.22822 5.44074 0 9.5 0C13.5593 0 16.8491 3.22898 16.8491 7.2127V11.3124C18.0776 11.5574 19 12.6208 19 13.8976V14.2507C19 15.1274 18.2776 15.8333 17.3863 15.8333H12.901ZM17.2075 13.8976C17.2075 13.4112 16.807 13.0185 16.308 13.0185C15.6163 13.0185 15.0566 12.465 15.0566 11.7896V7.2127C15.0566 4.20057 12.5693 1.75926 9.5 1.75926C6.43061 1.75926 3.9434 4.19991 3.9434 7.2127V11.7896C3.9434 12.468 3.38076 13.0185 2.69199 13.0185C2.19494 13.0185 1.79245 13.4128 1.79245 13.8976V14.0741H17.2075V13.8976Z" fill="#66788A"/>
</svg>
