<svg width="222" height="136" viewBox="0 0 222 136" fill="none" xmlns="http://www.w3.org/2000/svg">
<path d="M107.514 9.02848e-06C67.301 -0.00792184 34.6955 32.4361 34.6875 72.4661C34.6824 98.6144 48.8261 122.739 71.6997 135.595C72.3986 135.996 73.2306 136.099 74.0065 135.879C74.7771 135.665 75.4315 135.157 75.8276 134.465L98.2873 94.9529C99.111 93.501 98.5977 91.6593 97.14 90.8379C86.9096 85.1181 83.2743 72.2253 89.0206 62.0415C94.7669 51.8577 107.718 48.239 117.949 53.9591C128.179 59.6792 131.814 72.5717 126.068 82.7555C124.158 86.1406 121.349 88.9368 117.949 90.8379C116.491 91.6593 115.978 93.501 116.801 94.9529L139.201 134.465C139.596 135.159 140.25 135.67 141.022 135.885C141.286 135.961 141.56 136 141.835 136C142.359 135.999 142.873 135.864 143.328 135.607C178.352 115.937 190.725 71.7291 170.966 36.865C158.05 14.077 133.799 -0.0130203 107.514 9.02848e-06Z" fill="url(#paint0_linear)"/>
<ellipse cx="206.738" cy="95.2733" rx="15.2625" ry="15.1885" fill="url(#paint1_linear)"/>
<ellipse cx="33.9938" cy="33.8289" rx="33.9938" ry="33.8289" fill="url(#paint2_linear)"/>
<defs>
<linearGradient id="paint0_linear" x1="195.061" y1="190.29" x2="48.9828" y2="-29.3412" gradientUnits="userSpaceOnUse">
<stop stop-color="#28BC00"/>
<stop offset="1" stop-color="#28BC00" stop-opacity="0"/>
</linearGradient>
<linearGradient id="paint1_linear" x1="225.077" y1="122.588" x2="191.691" y2="75.5015" gradientUnits="userSpaceOnUse">
<stop stop-color="#315EFB"/>
<stop offset="1" stop-color="#315EFB" stop-opacity="0"/>
</linearGradient>
<linearGradient id="paint2_linear" x1="70.8046" y1="55.2801" x2="-19.3676" y2="49.6697" gradientUnits="userSpaceOnUse">
<stop stop-color="#DADAFF"/>
<stop offset="1" stop-color="#EEEEFF" stop-opacity="0"/>
</linearGradient>
</defs>
</svg>
