<svg width="94" height="94" viewBox="0 0 94 94" fill="none" xmlns="http://www.w3.org/2000/svg">
<path fill-rule="evenodd" clip-rule="evenodd" d="M47.2052 94C72.9574 94 94 72.9574 94 47.2052C94 21.0426 72.9574 0 47.2052 0C21.0426 0 0 21.0426 0 47.2052C0 72.9574 21.0426 94 47.2052 94Z" fill="#F7545E"/>
<mask id="mask0" mask-type="alpha" maskUnits="userSpaceOnUse" x="0" y="0" width="94" height="94">
<path fill-rule="evenodd" clip-rule="evenodd" d="M47.2052 94C72.9574 94 94 72.9574 94 47.2052C94 21.0426 72.9574 0 47.2052 0C21.0426 0 0 21.0426 0 47.2052C0 72.9574 21.0426 94 47.2052 94Z" fill="white"/>
</mask>
<g mask="url(#mask0)">
<path fill-rule="evenodd" clip-rule="evenodd" d="M4.35396 26.2615L58.5767 50.4629L76.369 10.4016C80.0365 13.4091 83.3089 17.0282 86.0276 21.225C100.163 43.0461 93.9769 72.2233 72.2098 86.3941C50.4426 100.565 21.3376 94.3631 7.20186 72.542C-2.10415 58.1765 -2.6025 40.6228 4.35396 26.2615Z" fill="#F7545E"/>
<path fill-rule="evenodd" clip-rule="evenodd" d="M23.1147 88.165L45.6897 54.0525V-1.15574C46.0421 -1.15426 46.2631 -1.15574 46.1412 -1.15574C72.6333 -1.15574 94 20.1456 94 46.4221C94 72.6987 72.6333 94 46.1412 94C37.9861 94 30.0197 91.8201 23.1147 88.165Z" fill="#1070CA"/>
<path fill-rule="evenodd" clip-rule="evenodd" d="M47 85.5246C68.2765 85.5246 85.5246 68.2765 85.5246 47C85.5246 25.7235 68.2765 8.47541 47 8.47541C25.7234 8.47541 8.4754 25.7235 8.4754 47C8.4754 68.2765 25.7234 85.5246 47 85.5246Z" fill="white"/>
</g>
</svg>
