<svg width="19" height="19" viewBox="0 0 19 19" fill="none" xmlns="http://www.w3.org/2000/svg">
<path d="M9.49237 10.1717C6.59757 10.1717 4.24268 7.88945 4.24268 5.08398C4.24268 2.27852 6.59757 0 9.49237 0C12.3872 0 14.7421 2.28223 14.7421 5.0877C14.7421 7.89317 12.3872 10.1717 9.49237 10.1717ZM9.49237 0.757031C7.03026 0.757031 5.02764 2.69785 5.02764 5.08398C5.02764 7.47012 7.03026 9.41465 9.49237 9.41465C11.9545 9.41465 13.9571 7.47383 13.9571 5.0877C13.9571 2.70156 11.9545 0.757031 9.49237 0.757031Z" fill="#66788A"/>
<mask id="path-2-inside-1" fill="white">
<path d="M18.6018 19C18.3873 19 18.2112 18.8293 18.2112 18.6215C18.2112 13.9643 14.3017 10.1754 9.49617 10.1754C4.69065 10.1754 0.781137 13.9643 0.781137 18.6215C0.781137 18.8293 0.604998 19 0.390568 19C0.176139 19 0 18.8293 0 18.6215C0 16.1611 0.987908 13.8492 2.78376 12.1125C4.57961 10.3758 6.96514 9.41464 9.5 9.41464C12.0349 9.41464 14.4242 10.3721 16.2162 12.1125C18.0083 13.8529 19 16.1648 19 18.6215C18.9923 18.8293 18.8162 19 18.6018 19Z"/>
</mask>
<path d="M18.6018 19C18.3873 19 18.2112 18.8293 18.2112 18.6215C18.2112 13.9643 14.3017 10.1754 9.49617 10.1754C4.69065 10.1754 0.781137 13.9643 0.781137 18.6215C0.781137 18.8293 0.604998 19 0.390568 19C0.176139 19 0 18.8293 0 18.6215C0 16.1611 0.987908 13.8492 2.78376 12.1125C4.57961 10.3758 6.96514 9.41464 9.5 9.41464C12.0349 9.41464 14.4242 10.3721 16.2162 12.1125C18.0083 13.8529 19 16.1648 19 18.6215C18.9923 18.8293 18.8162 19 18.6018 19Z" fill="#66788A"/>
<path d="M19 18.6215L43.983 19.5421L44 19.082V18.6215H19ZM18.6018 -6.00001C31.4501 -6.00001 43.2112 4.28933 43.2112 18.6215H-6.78879C-6.78879 33.3692 5.32464 44 18.6018 44V-6.00001ZM43.2112 18.6215C43.2112 -0.575756 27.3643 -14.8246 9.49617 -14.8246V35.1754C1.23904 35.1754 -6.78879 28.5043 -6.78879 18.6215H43.2112ZM9.49617 -14.8246C-8.37201 -14.8246 -24.2189 -0.575756 -24.2189 18.6215H25.7811C25.7811 28.5043 17.7533 35.1754 9.49617 35.1754V-14.8246ZM-24.2189 18.6215C-24.2189 4.28928 -12.4576 -6.00001 0.390568 -6.00001V44C13.6676 44 25.7811 33.3693 25.7811 18.6215H-24.2189ZM0.390568 -6.00001C13.2388 -6.00001 25 4.28928 25 18.6215H-25C-25 33.3693 -12.8865 44 0.390568 44V-6.00001ZM25 18.6215C25 23.0445 23.1597 27.1856 20.1631 30.0835L-14.5956 -5.85856C-21.1839 0.512836 -25 9.27777 -25 18.6215H25ZM20.1631 30.0835C17.2429 32.9076 13.3752 34.4146 9.5 34.4146V-15.5854C0.555105 -15.5854 -8.08366 -12.1561 -14.5956 -5.85856L20.1631 30.0835ZM9.5 34.4146C5.66304 34.4146 1.76624 32.9286 -1.20139 30.0464L33.6339 -5.82144C27.0822 -12.1845 18.4067 -15.5854 9.5 -15.5854V34.4146ZM-1.20139 30.0464C-4.14116 27.1913 -6 23.0811 -6 18.6215H44C44 9.24862 40.1577 0.514556 33.6339 -5.82144L-1.20139 30.0464ZM-5.98304 17.7008C-5.48869 4.2861 5.55102 -6.00001 18.6018 -6.00001V44C32.0814 44 43.4734 33.3725 43.983 19.5421L-5.98304 17.7008Z" fill="#66788A" mask="url(#path-2-inside-1)"/>
</svg>
