<svg width="24" height="24" viewBox="0 0 24 24" fill="none" xmlns="http://www.w3.org/2000/svg">
<path d="M6.1622 10.7694C5.92232 10.5814 5.62696 10.4731 5.31956 10.4731C4.5658 10.4731 3.95297 11.0869 3.95297 11.8411C3.95297 12.2782 4.16388 12.6813 4.50638 12.935C4.7907 12.1213 5.36744 11.3823 6.1622 10.7694Z" fill="#1F2431"/>
<path d="M17.8614 7.39445C18.4244 7.39445 18.8823 6.93606 18.8823 6.37258C18.8823 5.8091 18.4244 5.3512 17.8614 5.3512C17.2979 5.3512 16.839 5.8091 16.839 6.37258C16.839 6.93606 17.2979 7.39445 17.8614 7.39445Z" fill="#1F2431"/>
<path d="M12 0C5.37281 0 0 5.37281 0 12C0 18.6272 5.37281 24 12 24C18.6272 24 24 18.6272 24 12C24 5.37281 18.6272 0 12 0ZM19.5754 13.5119C19.6076 13.701 19.6282 13.8923 19.6282 14.0874C19.6282 16.896 16.1904 19.1806 11.9644 19.1806C7.73868 19.1806 4.30134 16.896 4.30134 14.0874C4.30134 13.8802 4.3254 13.6774 4.36174 13.4771C3.78525 13.139 3.42089 12.5198 3.42089 11.8414C3.42089 10.7935 4.27261 9.94177 5.31978 9.94177C5.7983 9.94177 6.25399 10.1321 6.60362 10.4544C7.95548 9.57299 9.79495 9.02351 11.8254 8.99896L13.0076 5.25987C13.0499 5.12655 13.1878 5.04847 13.3226 5.08088L16.4172 5.80935C16.6436 5.23139 17.2039 4.81964 17.8616 4.81964C18.7178 4.81964 19.4148 5.51644 19.4148 6.37283C19.4148 7.22922 18.7178 7.92651 17.8616 7.92651C17.0048 7.92651 16.308 7.22922 16.308 6.37283C16.308 6.35834 16.3117 6.34558 16.3121 6.33109L13.4412 5.65492L12.3806 9.00829C14.3222 9.07777 16.0759 9.62406 17.3711 10.4814C17.7232 10.1414 18.1835 9.94152 18.6802 9.94152C19.7276 9.94152 20.5801 10.7937 20.5801 11.8414C20.5794 12.5519 20.1904 13.1839 19.5754 13.5119Z" fill="#1F2431"/>
<path d="M8.26535 13.1451C8.26535 12.5217 8.7726 12.0145 9.39599 12.0145C10.0194 12.0145 10.5264 12.5217 10.5264 13.1451C10.5264 13.7685 10.0196 14.2755 9.39599 14.2755C8.77236 14.2755 8.26535 13.7685 8.26535 13.1451ZM14.743 16.497C14.1734 17.0671 13.279 17.3438 12.0091 17.3438C12.0062 17.3438 12.0035 17.3416 12 17.3416C11.9966 17.3416 11.9939 17.3438 11.9904 17.3438C10.7206 17.3438 9.82639 17.0671 9.25653 16.497C9.15292 16.3934 9.15292 16.2252 9.25653 16.1211C9.36063 16.0175 9.52882 16.0175 9.63292 16.1211C10.0977 16.5864 10.8686 16.812 11.9904 16.812C11.9939 16.812 11.9966 16.814 12 16.814C12.0035 16.814 12.0062 16.812 12.0091 16.812C13.1312 16.812 13.9023 16.5861 14.3671 16.1211C14.4712 16.0175 14.6394 16.0175 14.7435 16.1211C14.8471 16.2252 14.8471 16.3936 14.743 16.497ZM14.6082 14.2755C13.9853 14.2755 13.4778 13.769 13.4778 13.1451C13.4778 12.5212 13.9848 12.0145 14.6082 12.0145C15.2316 12.0145 15.7386 12.5217 15.7386 13.1451C15.7386 13.7685 15.2316 14.2755 14.6082 14.2755Z" fill="#1F2431"/>
<path d="M18.6795 10.4731C18.3534 10.4731 18.0475 10.5907 17.803 10.7955C18.5928 11.4132 19.1629 12.1571 19.4382 12.9752C19.8141 12.725 20.0471 12.3069 20.0471 11.8411C20.0471 11.0869 19.4342 10.4731 18.6795 10.4731Z" fill="#1F2431"/>
</svg>
