<svg width="60" height="60" viewBox="0 0 60 60" fill="none" xmlns="http://www.w3.org/2000/svg">
<circle cx="30" cy="30" r="30" fill="#38C8E8"/>
<path d="M37.2 23.5102H34.2L34.58 23.3702C35.1021 23.1735 35.5657 22.8472 35.927 22.4221C36.2884 21.997 36.5357 21.487 36.6457 20.94C36.7557 20.393 36.7248 19.827 36.5558 19.2952C36.3869 18.7634 36.0855 18.2834 35.68 17.9002C35.2711 17.5195 34.7718 17.2497 34.2294 17.1161C33.687 16.9825 33.1195 16.9897 32.5806 17.1369C32.0418 17.2842 31.5495 17.5666 31.1503 17.9574C30.7512 18.3482 30.4585 18.8345 30.3 19.3702L30 20.5102L29.67 19.3902C29.4417 18.5729 28.9046 17.8764 28.1722 17.4478C27.4398 17.0192 26.5695 16.8921 25.7452 17.0933C24.9208 17.2945 24.2069 17.8083 23.7544 18.5261C23.3019 19.244 23.1461 20.1096 23.32 20.9402C23.4259 21.488 23.6711 21.9993 24.0318 22.4249C24.3926 22.8505 24.8569 23.176 25.38 23.3702L25.77 23.5102H22.77C22.0334 23.5206 21.3304 23.8199 20.8123 24.3436C20.2943 24.8673 20.0025 25.5735 20 26.3102V34.7102C20.0026 35.4519 20.2985 36.1626 20.823 36.6871C21.3475 37.2117 22.0582 37.5075 22.8 37.5102H37.2C37.9418 37.5075 38.6525 37.2117 39.177 36.6871C39.7015 36.1626 39.9974 35.4519 40 34.7102V26.3102C39.9974 25.5684 39.7015 24.8577 39.177 24.3332C38.6525 23.8086 37.9418 23.5128 37.2 23.5102ZM32.25 19.9402C32.3067 19.7303 32.418 19.5393 32.5726 19.3864C32.7272 19.2336 32.9195 19.1245 33.13 19.0702C33.2432 19.0347 33.3614 19.0178 33.48 19.0202C33.6645 19.0217 33.8464 19.0635 34.0131 19.1425C34.1799 19.2215 34.3274 19.3359 34.4454 19.4777C34.5634 19.6195 34.6491 19.7854 34.6965 19.9637C34.744 20.142 34.752 20.3284 34.72 20.5102C34.6803 20.723 34.5856 20.9219 34.4453 21.0868C34.3049 21.2517 34.1238 21.377 33.92 21.4502L31.53 22.3402L32.25 19.9402ZM25.28 20.5102C25.248 20.3284 25.256 20.142 25.3035 19.9637C25.3509 19.7854 25.4366 19.6195 25.5546 19.4777C25.6726 19.3359 25.8201 19.2215 25.9869 19.1425C26.1536 19.0635 26.3355 19.0217 26.52 19.0202C26.6386 19.0178 26.7568 19.0347 26.87 19.0702C27.0805 19.1245 27.2728 19.2336 27.4274 19.3864C27.582 19.5393 27.6933 19.7303 27.75 19.9402L28.47 22.3802L26.08 21.5102C25.8683 21.432 25.6819 21.2976 25.5409 21.1214C25.3999 20.9452 25.3097 20.7339 25.28 20.5102ZM38 34.7102C38 34.9223 37.9157 35.1258 37.7657 35.2758C37.6157 35.4259 37.4122 35.5102 37.2 35.5102H22.8C22.5878 35.5102 22.3843 35.4259 22.2343 35.2758C22.0843 35.1258 22 34.9223 22 34.7102V29.5102H38V34.7102ZM38 27.5102H22V26.3102C22 26.098 22.0843 25.8945 22.2343 25.7445C22.3843 25.5944 22.5878 25.5102 22.8 25.5102H37.2C37.4122 25.5102 37.6157 25.5944 37.7657 25.7445C37.9157 25.8945 38 26.098 38 26.3102V27.5102Z" fill="white"/>
</svg>
