<svg width="465" height="315" viewBox="0 0 465 315" fill="none" xmlns="http://www.w3.org/2000/svg">
<path d="M36.1714 79.865H147.468L197.552 130.013H287.517L317.66 98.4383H391.857" stroke="#EEEEFF" stroke-width="2" stroke-linecap="round" stroke-linejoin="round"/>
<path d="M86.7189 183.411H159.989L284.734 58.5056H455.853" stroke="#EEEEFF" stroke-width="2" stroke-linecap="round" stroke-linejoin="round"/>
<ellipse cx="174.365" cy="22.2879" rx="22.2594" ry="22.2879" fill="url(#paint0_linear)"/>
<ellipse cx="74.1978" cy="79.8651" rx="2.78242" ry="2.78599" fill="#EEEEFF"/>
<path d="M63.0682 78.9364L74.1979 77.0791V82.6511L63.0682 80.7938V78.9364Z" fill="url(#paint1_linear)"/>
<path d="M139.121 88.2229L167.873 117.011" stroke="#EEEEFF" stroke-width="2" stroke-linecap="round" stroke-linejoin="round"/>
<path d="M170.655 119.797L178.075 127.227" stroke="#EEEEFF" stroke-width="2" stroke-linecap="round" stroke-linejoin="round"/>
<path d="M314.413 184.804L343.165 213.593" stroke="#EEEEFF" stroke-width="2" stroke-linecap="round" stroke-linejoin="round"/>
<path d="M345.948 216.378L353.367 223.808" stroke="#EEEEFF" stroke-width="2" stroke-linecap="round" stroke-linejoin="round"/>
<path d="M325.543 110.437H407.625" stroke="#EEEEFF" stroke-width="2" stroke-linecap="round" stroke-linejoin="round"/>
<path d="M411.798 110.437H422.291" stroke="#EEEEFF" stroke-width="2" stroke-linecap="round" stroke-linejoin="round"/>
<path d="M426.638 110.437H448.434" stroke="#EEEEFF" stroke-width="2" stroke-linecap="round" stroke-linejoin="round"/>
<path d="M62.6045 171.106H109.906" stroke="#EEEEFF" stroke-width="2" stroke-linecap="round" stroke-linejoin="round"/>
<path d="M114.079 171.106H124.573" stroke="#EEEEFF" stroke-width="2" stroke-linecap="round" stroke-linejoin="round"/>
<path d="M128.919 171.106H150.714" stroke="#EEEEFF" stroke-width="2" stroke-linecap="round" stroke-linejoin="round"/>
<ellipse cx="358.005" cy="98.4383" rx="2.78242" ry="2.78599" fill="#EEEEFF"/>
<path d="M346.875 97.5097L358.005 95.6523V101.224L346.875 99.367V97.5097Z" fill="url(#paint2_linear)"/>
<ellipse cx="425.71" cy="58.5057" rx="2.78242" ry="2.78599" fill="#EEEEFF"/>
<path d="M414.581 57.5771L425.71 55.7197V61.2917L414.581 59.4344V57.5771Z" fill="url(#paint3_linear)"/>
<path d="M49.1561 238.667H153.961L223.985 168.552H315.805L354.295 207.092H431.739" stroke="#EEEEFF" stroke-width="2" stroke-linecap="round" stroke-linejoin="round"/>
<ellipse cx="132.629" cy="238.666" rx="2.78242" ry="2.78599" fill="#EEEEFF"/>
<path d="M121.499 237.738L132.629 235.881V241.453L121.499 239.595V237.738Z" fill="url(#paint4_linear)"/>
<path d="M157.292 109.258C157.292 109.258 141.701 141.833 156.919 193.92C157.033 194.309 157.17 194.69 157.292 195.071C168.836 229.664 291.21 220.191 312.395 208.433C312.395 208.433 335.563 156.427 314.411 107.443C314.419 107.443 228.594 69.2848 157.292 109.258Z" fill="#38C8E8"/>
<g style="mix-blend-mode:soft-light">
<mask id="mask0" mask-type="alpha" maskUnits="userSpaceOnUse" x="150" y="91" width="174" height="129">
<path d="M157.292 109.258C157.292 109.258 141.701 141.833 156.919 193.92C157.033 194.309 157.17 194.69 157.292 195.071C168.836 229.664 291.21 220.191 312.395 208.433C312.395 208.433 335.563 156.427 314.411 107.443C314.419 107.443 228.594 69.2848 157.292 109.258Z" fill="#315EFB"/>
</mask>
<g mask="url(#mask0)">
<g style="mix-blend-mode:soft-light">
<path d="M151.231 125.765C151.231 125.765 146.55 152.152 156.807 196.52C156.807 196.52 161.16 219.883 226.449 223.653C283.859 226.969 313.332 210.944 313.332 210.944C313.332 210.944 324.688 191.414 325.97 181.885C325.97 181.885 255.35 210.328 185.709 186.884C146.138 173.563 151.231 125.765 151.231 125.765Z" fill="url(#paint5_linear)"/>
</g>
</g>
</g>
<path d="M321.312 176.627L322.052 173.181C322.052 173.181 307.498 175.967 294.45 174.92C281.402 173.873 277.79 169.413 275.823 163.769C275.823 163.769 275.257 176.345 293.232 178.117C311.442 179.92 321.312 176.627 321.312 176.627Z" fill="#DCE35B"/>
<path d="M324.573 173.346C324.573 173.346 328.621 162.002 325.699 144.523C325.699 144.523 314.519 138.211 293.877 140.058C273.234 141.906 271.51 156.645 275.436 167.569C279.783 179.626 307.193 177.633 324.573 173.346Z" fill="#30C1B0"/>
<circle cx="289.925" cy="159.067" r="10.9701" fill="white"/>
<path d="M299.851 159.067C299.851 164.549 295.407 168.993 289.925 168.993C284.444 168.993 280 164.549 280 159.067C280 159.067 285.224 161.157 292.015 156.978C299.851 152.156 299.851 159.067 299.851 159.067Z" fill="url(#paint6_linear)"/>
<path fill-rule="evenodd" clip-rule="evenodd" d="M286.521 157.429C287.649 157.429 288.563 156.508 288.563 155.371C288.563 154.235 287.649 153.313 286.521 153.313C285.393 153.313 284.479 154.235 284.479 155.371C284.479 156.508 285.393 157.429 286.521 157.429Z" fill="#38C8E8"/>
<path fill-rule="evenodd" clip-rule="evenodd" d="M293.329 164.288C294.457 164.288 295.372 163.367 295.372 162.231C295.372 161.094 294.457 160.173 293.329 160.173C292.201 160.173 291.287 161.094 291.287 162.231C291.287 163.367 292.201 164.288 293.329 164.288Z" fill="#38C8E8"/>
<path fill-rule="evenodd" clip-rule="evenodd" d="M293.277 154C292.121 154 291.183 154.945 291.183 156.11C291.183 157.276 292.121 158.221 293.277 158.221C294.434 158.221 295.372 157.276 295.372 156.11C295.372 154.945 294.434 154 293.277 154Z" fill="#38C8E8"/>
<path fill-rule="evenodd" clip-rule="evenodd" d="M286.574 160.753C285.417 160.753 284.479 161.698 284.479 162.864C284.479 164.029 285.417 164.974 286.574 164.974C287.731 164.974 288.669 164.029 288.669 162.864C288.669 161.698 287.731 160.753 286.574 160.753Z" fill="#38C8E8"/>
<path d="M175.513 34.6968C181.348 11.3132 227.03 1.98762 249.141 0.24777C285.608 -2.62164 282.83 20.082 249.141 34.6968C238.165 39.4583 231.082 60.4465 208.16 66.362C199.28 68.6534 168.22 63.9262 175.513 34.6968Z" fill="url(#paint7_linear)"/>
<circle r="2.78421" transform="matrix(0.706653 0.70756 -0.706653 0.70756 337.235 190.011)" fill="#EEEEFF"/>
<path d="M330.021 181.474L339.203 188.041L335.268 191.981L328.71 182.787L330.021 181.474Z" fill="url(#paint8_linear)"/>
<path d="M1.50648 194.183C-3.89758 181.608 6.52948 176.5 12.4185 175.517C43.076 175.517 65.42 194.183 81.0086 198.113C96.5972 202.042 117.902 201.06 145.961 216.287C174.021 231.515 179.737 245.268 194.806 259.513C209.875 273.758 222.346 264.916 243.13 266.39C263.915 267.864 271.19 282.6 243.13 293.897C215.071 305.195 201.561 294.389 179.737 293.897C157.913 293.406 129.333 269.337 117.902 253.128C106.47 236.918 88.8029 223.164 65.42 220.708C42.037 218.252 8.26155 209.902 1.50648 194.183Z" fill="url(#paint9_linear)"/>
<path d="M257.466 258.056L313.773 297.187L222.748 315L257.466 258.056Z" fill="url(#paint10_linear)"/>
<path fill-rule="evenodd" clip-rule="evenodd" d="M409.448 242.884C410.197 238.51 414.354 235.561 418.729 236.313V236.313C423.104 237.065 426.041 241.233 425.292 245.606V245.606C424.542 249.98 420.385 252.929 416.01 252.177V252.177C411.635 251.426 408.698 247.258 409.448 242.884V242.884ZM416.503 243.437L412.681 242.78L411.992 244.144L415.814 244.8L416.503 243.437V243.437ZM422.027 241.905C422.354 241.961 422.76 242.187 422.9 242.633C423.041 243.078 422.946 243.279 422.7 243.802L422.7 243.803C422.454 244.327 421.676 245.892 421.373 246.443C421.07 246.993 420.612 247.42 420.084 247.619L420.037 247.637C419.545 247.822 419.337 247.901 418.688 247.789L411.828 246.61L412.58 245.125L419.031 246.234L420.533 243.262L414.133 242.162L414.885 240.678L422.027 241.905Z" fill="#56AB2F"/>
<path fill-rule="evenodd" clip-rule="evenodd" d="M362.44 262.849C366.419 256.685 374.658 254.903 380.825 258.895V258.895C386.992 262.886 388.753 271.14 384.774 277.303V277.303C380.795 283.467 372.556 285.249 366.389 281.257V281.257C360.222 277.266 358.461 269.012 362.44 262.849V262.849ZM367.265 269.702L368.574 269.973L365.444 272.929L374.884 279.039L377.216 276.831L371.555 273.167L373.827 271.012L375.144 271.27L376.946 269.574L375.642 269.324L379.691 265.496L375.931 263.063L370.411 268.263L369.078 268.004L367.266 269.703L367.265 269.702Z" fill="#56AB2F"/>
<path d="M382.781 158.549C383.807 150.038 388.852 147.045 391.246 146.613C401.762 149.726 414.074 140.904 423.307 143.499C432.541 146.094 439.723 158.549 444.083 162.701C448.444 166.853 470.758 171.005 463.064 183.98C455.369 196.954 443.57 183.98 425.359 180.347C407.148 176.714 408.431 188.391 400.223 192.024C392.015 195.657 385.603 189.948 382.781 183.98C379.96 178.011 381.499 169.188 382.781 158.549Z" fill="url(#paint11_linear)"/>
<path fill-rule="evenodd" clip-rule="evenodd" d="M124.219 296.49C116.058 288.079 116.251 274.636 124.652 266.464V266.464C133.052 258.292 146.478 258.486 154.639 266.897V266.897C162.8 275.308 162.606 288.751 154.206 296.923V296.923C145.806 305.095 132.38 304.9 124.219 296.49V296.49Z" fill="white"/>
<path fill-rule="evenodd" clip-rule="evenodd" d="M122.364 296.49C114.204 288.08 114.397 274.636 122.797 266.464V266.464C131.197 258.292 144.624 258.487 152.784 266.897V266.897C160.944 275.307 160.752 288.751 152.351 296.923V296.923C143.951 305.094 130.524 304.899 122.364 296.49V296.49ZM147.905 292.343L132.32 289.597L142.714 286.993L142.714 286.994L145.616 276.662L147.905 292.343ZM127.241 271.047L144.41 275.428L141.447 285.688L131.118 288.358L127.241 271.047Z" fill="#56AB2F"/>
<path fill-rule="evenodd" clip-rule="evenodd" d="M390.748 132.036C395 126.817 402.675 126.036 407.889 130.294V130.294C413.103 134.553 413.881 142.239 409.629 147.458V147.458C405.377 152.677 397.701 153.458 392.487 149.2V149.2C387.273 144.941 386.496 137.256 390.748 132.036V132.036Z" fill="white"/>
<path fill-rule="evenodd" clip-rule="evenodd" d="M388.893 131.108C393.141 125.892 400.82 125.107 406.034 129.366V129.366C411.248 133.624 412.023 141.314 407.774 146.529V146.529C403.525 151.745 395.846 152.53 390.632 148.271V148.271C385.418 144.013 384.644 136.323 388.893 131.108V131.108ZM392.948 145.427L393.48 136.34L395.653 142.107L395.653 142.107L401.733 143.081L392.948 145.427ZM403.716 132.209L402.357 142.309L396.313 141.296L394.107 135.571L403.716 132.209Z" fill="#56AB2F"/>
<path d="M367.743 134.656H375.163" stroke="#38C8E8" stroke-width="2" stroke-linecap="round" stroke-linejoin="round"/>
<path d="M379.337 142.085H359.86" stroke="#38C8E8" stroke-width="2" stroke-linecap="round" stroke-linejoin="round"/>
<path d="M95.9935 133.727H108.514" stroke="#38C8E8" stroke-width="2" stroke-linecap="round" stroke-linejoin="round"/>
<path d="M118.717 141.157H99.2396" stroke="#38C8E8" stroke-width="2" stroke-linecap="round" stroke-linejoin="round"/>
<path fill-rule="evenodd" clip-rule="evenodd" d="M83.6517 51.9601C80.4861 46.553 82.2948 39.5738 87.7065 36.3974V36.3974C93.1182 33.2211 100.084 35.0503 103.249 40.4575V40.4575C106.415 45.8646 104.606 52.8438 99.1944 56.0202V56.0202C93.7827 59.1965 86.8172 57.3673 83.6517 51.9601V51.9601ZM98.2107 46.6659L94.2941 48.9646C94.4102 48.4141 94.509 47.86 94.5902 47.3032C94.8124 45.9019 95.0257 44.4991 95.2301 43.0951C95.2471 42.9804 95.2727 42.8611 95.2989 42.7403C95.3718 42.3987 95.4467 42.0475 95.344 41.7699C95.1639 41.2647 94.8692 40.7981 94.5662 40.318C94.4409 40.1219 94.3189 39.9237 94.2002 39.7235L91.7698 41.15L90.7728 39.447L88.8249 40.5903L89.8472 42.3364L87.6172 43.6453L88.8384 45.7313L92.5946 43.5266C92.5488 43.7924 92.503 44.0414 92.4589 44.2829C92.4027 44.5904 92.3489 44.8856 92.2986 45.188C92.0765 46.5894 91.8633 47.9922 91.6591 49.3963C91.6452 49.5211 91.6198 49.6535 91.594 49.7873C91.5311 50.1106 91.4664 50.4438 91.5651 50.7098C91.7457 51.2158 92.0411 51.6836 92.3403 52.1572C92.4606 52.3478 92.5814 52.539 92.6957 52.7343L95.1062 51.3195L96.1161 53.0445L98.1442 51.8541C97.9547 51.5738 97.7674 51.292 97.5822 51.0087C97.3991 50.7307 97.216 50.4527 97.0218 50.1668L99.4317 48.7523L98.2104 46.666L98.2107 46.6659Z" fill="#56AB2F"/>
<path d="M104.341 61.2917L108.978 65.9351" stroke="#38C8E8" stroke-width="2" stroke-linecap="round" stroke-linejoin="round"/>
<path d="M337.6 48.755C337.6 34.6687 349.02 23.2168 363.106 23.2168V23.2168C377.192 23.2168 388.611 34.6687 388.611 48.755V48.755C388.611 62.8413 377.192 74.2933 363.106 74.2933V74.2933C349.02 74.2933 337.6 62.8413 337.6 48.755V48.755Z" fill="white"/>
<path fill-rule="evenodd" clip-rule="evenodd" d="M362.178 26.0024C349.117 26.0024 338.528 36.6215 338.528 49.6834C338.528 62.7452 349.117 73.3643 362.178 73.3643C375.24 73.3643 385.829 62.7452 385.829 49.6834C385.829 36.6215 375.24 26.0024 362.178 26.0024ZM367.683 40.8701C370.909 41.9827 373.268 43.6506 372.805 46.7531C372.469 49.0243 371.212 50.1238 369.543 50.5093C371.835 51.7043 373.001 53.5368 371.89 56.7137C370.511 60.6593 367.235 60.9923 362.878 60.1667L361.821 64.4096L359.266 63.772L360.309 59.586C359.647 59.4213 358.97 59.2464 358.273 59.057L357.226 63.2627L354.674 62.6252L355.731 58.3743C355.493 58.3131 355.253 58.2504 355.011 58.1873L355.01 58.1871L355.01 58.187C354.647 58.0923 354.281 57.9966 353.91 57.9036L350.585 57.0736L351.853 54.1452C351.853 54.1452 353.736 54.6465 353.71 54.6094C354.434 54.7886 354.755 54.3164 354.881 54.0017L356.552 47.2945C356.615 47.3096 356.676 47.325 356.736 47.3399L356.822 47.3615C356.72 47.3207 356.628 47.2945 356.557 47.2763L357.749 42.4884C357.78 41.9448 357.593 41.2592 356.558 41.0005C356.598 40.9735 354.702 40.5385 354.702 40.5385L355.382 37.8061L358.906 38.687L358.903 38.7002C359.432 38.832 359.978 38.9574 360.534 39.0842L361.581 34.8828L364.135 35.5204L363.109 39.6394C363.794 39.796 364.484 39.9542 365.156 40.1217L366.175 36.0297L368.73 36.6672L367.683 40.8701ZM366.967 54.9495C366.243 57.8642 361.686 56.6592 359.602 56.1078C359.414 56.0582 359.247 56.0139 359.104 55.9784L360.507 50.3467C360.681 50.3902 360.893 50.4379 361.134 50.492L361.134 50.4921C363.291 50.9766 367.709 51.9694 366.967 54.9495ZM361.568 47.8787C363.306 48.3432 367.097 49.3563 367.757 46.7072C368.432 43.9976 364.747 43.1808 362.947 42.7819C362.745 42.737 362.566 42.6974 362.42 42.661L361.148 47.7688C361.269 47.7988 361.41 47.8365 361.568 47.8787Z" fill="#56AB2F"/>
<path fill-rule="evenodd" clip-rule="evenodd" d="M65.5513 126.589C59.5699 131.878 59.0068 141.025 64.286 147.011C69.5653 152.996 78.7 153.567 84.6815 148.278C90.663 142.988 91.226 133.841 85.9468 127.856C80.6676 121.871 71.5328 121.3 65.5513 126.589ZM74.0773 131.168C76.004 130.371 77.758 130.18 78.7989 131.788C79.5627 132.964 79.4309 133.977 78.8222 134.829C80.3546 134.448 81.6289 134.815 82.4033 136.72C83.3655 139.085 81.9997 140.564 79.6711 141.951L80.9007 144.322L79.4732 145.065L78.2602 142.725C77.8905 142.918 77.5099 143.112 77.1141 143.307L78.3334 145.657L76.9072 146.399L75.6744 144.024C75.5419 144.092 75.4081 144.16 75.2734 144.228L75.2704 144.229L75.269 144.23L75.2686 144.23L75.268 144.231C75.0638 144.334 74.8574 144.439 74.6501 144.546L72.7923 145.512L72.1903 143.658C72.1903 143.658 73.2549 143.125 73.2282 143.118C73.6319 142.907 73.5881 142.561 73.519 142.366L71.575 138.618C71.6098 138.599 71.6441 138.581 71.6773 138.564L71.7257 138.539C71.6625 138.562 71.6096 138.587 71.5696 138.608L70.1815 135.932C69.9763 135.671 69.6137 135.433 69.0354 135.733C69.0428 135.705 67.999 136.273 67.999 136.273L67.2066 134.747L69.176 133.723L69.1799 133.73C69.4758 133.576 69.7764 133.413 70.0822 133.245L68.8647 130.897L70.2916 130.155L71.4855 132.457C71.8626 132.251 72.2424 132.044 72.6177 131.849L71.4314 129.563L72.8589 128.82L74.0773 131.168ZM79.4363 137.906C80.2818 139.534 77.7086 140.827 76.5312 141.419C76.4253 141.472 76.3306 141.52 76.2508 141.561L74.6186 138.414C74.7159 138.364 74.8326 138.299 74.9648 138.227C76.1479 137.575 78.5725 136.24 79.4363 137.906ZM74.1076 136.854C75.0912 136.363 77.2366 135.292 76.469 133.811C75.6834 132.297 73.666 133.416 72.6808 133.962C72.57 134.023 72.4722 134.077 72.3907 134.12L73.8713 136.974C73.9385 136.939 74.0183 136.899 74.1076 136.854Z" fill="#56AB2F"/>
<path d="M154.888 257.704L169.264 243.31" stroke="#38C8E8" stroke-width="2" stroke-linecap="round" stroke-linejoin="round"/>
<path d="M164.163 259.097L184.103 239.131" stroke="#38C8E8" stroke-width="2" stroke-linecap="round" stroke-linejoin="round"/>
<path d="M327.398 83.1154L338.064 72.4358" stroke="#38C8E8" stroke-width="2" stroke-linecap="round" stroke-linejoin="round"/>
<path d="M345.484 75.2217L327.862 92.8663" stroke="#38C8E8" stroke-width="2" stroke-linecap="round" stroke-linejoin="round"/>
<path d="M106.659 55.2556L116.862 65.4709" stroke="#38C8E8" stroke-width="2" stroke-linecap="round" stroke-linejoin="round"/>
<path d="M353.367 244.239L359.86 250.739" stroke="#38C8E8" stroke-width="2" stroke-linecap="round" stroke-linejoin="round"/>
<path d="M341.31 241.917L357.077 257.704" stroke="#38C8E8" stroke-width="2" stroke-linecap="round" stroke-linejoin="round"/>
<path d="M406.697 228.451L410.407 232.166" stroke="#38C8E8" stroke-width="2" stroke-linecap="round" stroke-linejoin="round"/>
<path d="M397.422 227.522L403.915 234.023" stroke="#38C8E8" stroke-width="2" stroke-linecap="round" stroke-linejoin="round"/>
<defs>
<linearGradient id="paint0_linear" x1="201.112" y1="62.3702" x2="152.022" y2="-6.44116" gradientUnits="userSpaceOnUse">
<stop stop-color="#38C8E8"/>
<stop offset="1" stop-color="#38C8E8" stop-opacity="0"/>
</linearGradient>
<linearGradient id="paint1_linear" x1="69.0968" y1="79.8651" x2="59.8221" y2="79.8651" gradientUnits="userSpaceOnUse">
<stop stop-color="#EEEEFF"/>
<stop offset="1" stop-color="#EEEEFF" stop-opacity="0"/>
</linearGradient>
<linearGradient id="paint2_linear" x1="352.904" y1="98.4383" x2="343.629" y2="98.4383" gradientUnits="userSpaceOnUse">
<stop stop-color="#EEEEFF"/>
<stop offset="1" stop-color="#EEEEFF" stop-opacity="0"/>
</linearGradient>
<linearGradient id="paint3_linear" x1="420.609" y1="58.5057" x2="411.334" y2="58.5057" gradientUnits="userSpaceOnUse">
<stop stop-color="#EEEEFF"/>
<stop offset="1" stop-color="#EEEEFF" stop-opacity="0"/>
</linearGradient>
<linearGradient id="paint4_linear" x1="127.528" y1="238.667" x2="118.253" y2="238.667" gradientUnits="userSpaceOnUse">
<stop stop-color="#EEEEFF"/>
<stop offset="1" stop-color="#EEEEFF" stop-opacity="0"/>
</linearGradient>
<linearGradient id="paint5_linear" x1="333.275" y1="206.185" x2="101.415" y2="180.344" gradientUnits="userSpaceOnUse">
<stop/>
<stop offset="1" stop-opacity="0"/>
</linearGradient>
<linearGradient id="paint6_linear" x1="300.673" y1="166.482" x2="274.453" y2="164.134" gradientUnits="userSpaceOnUse">
<stop stop-color="#DADAFF"/>
<stop offset="1" stop-color="#EEEEFF" stop-opacity="0"/>
</linearGradient>
<linearGradient id="paint7_linear" x1="279.647" y1="54.6312" x2="146.278" y2="42.1519" gradientUnits="userSpaceOnUse">
<stop stop-color="#30C1B0"/>
<stop offset="1" stop-color="#EEEEFF" stop-opacity="0"/>
</linearGradient>
<linearGradient id="paint8_linear" x1="333.628" y1="186.399" x2="327.062" y2="179.841" gradientUnits="userSpaceOnUse">
<stop stop-color="#EEEEFF"/>
<stop offset="1" stop-color="#EEEEFF" stop-opacity="0"/>
</linearGradient>
<linearGradient id="paint9_linear" x1="272.385" y1="276.433" x2="-69.9644" y2="231.546" gradientUnits="userSpaceOnUse">
<stop stop-color="#30C1B0"/>
<stop offset="1" stop-color="#EEEEFF" stop-opacity="0"/>
</linearGradient>
<linearGradient id="paint10_linear" x1="326.713" y1="314.675" x2="270.248" y2="223.53" gradientUnits="userSpaceOnUse">
<stop stop-color="#38C8E8"/>
<stop offset="1" stop-color="#38C8E8" stop-opacity="0"/>
</linearGradient>
<linearGradient id="paint11_linear" x1="468.123" y1="183.988" x2="358.152" y2="172.654" gradientUnits="userSpaceOnUse">
<stop stop-color="#30C1B0"/>
<stop offset="1" stop-color="#EEEEFF" stop-opacity="0"/>
</linearGradient>
</defs>
</svg>
