<svg width="690" height="530" viewBox="0 0 690 530" fill="none" xmlns="http://www.w3.org/2000/svg">
<path d="M222.022 82.3359H220.614V157.635H222.022V82.3359Z" fill="#30C1B0"/>
<path d="M222.022 180.049H220.614V246.304H222.022V180.049Z" fill="#30C1B0"/>
<path d="M327.581 256.86H218.503V258.268H327.581V256.86Z" fill="#3F3D56"/>
<path d="M173.464 275.861H172.057V335.678H173.464V275.861Z" fill="#30C1B0"/>
<path d="M350.1 346.234H184.724V347.641H350.1V346.234Z" fill="#30C1B0"/>
<path d="M488.031 34.4824H486.623V105.559H488.031V34.4824Z" fill="#30C1B0"/>
<path d="M476.067 116.819H372.595V118.226H476.067V116.819Z" fill="#30C1B0"/>
<path d="M362.063 128.078H360.656V223.081H362.063V128.078Z" fill="#30C1B0"/>
<path d="M221.318 180.858C218.952 180.858 216.639 180.156 214.672 178.842C212.704 177.527 211.171 175.659 210.265 173.473C209.36 171.287 209.123 168.881 209.585 166.56C210.046 164.24 211.186 162.108 212.859 160.435C214.532 158.762 216.663 157.623 218.984 157.161C221.305 156.699 223.71 156.936 225.896 157.842C228.082 158.747 229.951 160.281 231.265 162.248C232.58 164.215 233.281 166.528 233.281 168.894C233.278 172.066 232.016 175.107 229.774 177.35C227.531 179.593 224.49 180.854 221.318 180.858V180.858ZM221.318 158.338C219.23 158.338 217.189 158.958 215.454 160.117C213.718 161.277 212.365 162.926 211.566 164.855C210.767 166.784 210.558 168.906 210.965 170.954C211.372 173.001 212.378 174.882 213.854 176.359C215.33 177.835 217.211 178.84 219.259 179.247C221.306 179.655 223.429 179.446 225.358 178.647C227.287 177.848 228.935 176.495 230.095 174.759C231.255 173.023 231.874 170.982 231.874 168.894C231.871 166.096 230.758 163.413 228.779 161.434C226.8 159.455 224.117 158.342 221.318 158.338V158.338Z" fill="#38C8E8"/>
<path d="M173.465 358.901C171.098 358.901 168.785 358.199 166.818 356.884C164.851 355.57 163.317 353.701 162.412 351.515C161.506 349.329 161.269 346.924 161.731 344.603C162.193 342.283 163.332 340.151 165.005 338.478C166.678 336.805 168.81 335.665 171.131 335.204C173.451 334.742 175.857 334.979 178.043 335.885C180.229 336.79 182.097 338.323 183.412 340.291C184.726 342.258 185.428 344.571 185.428 346.937C185.424 350.109 184.163 353.15 181.92 355.393C179.677 357.636 176.636 358.897 173.465 358.901V358.901ZM173.465 336.381C171.377 336.381 169.336 337 167.6 338.16C165.864 339.32 164.511 340.969 163.712 342.898C162.913 344.827 162.704 346.949 163.112 348.997C163.519 351.044 164.524 352.925 166 354.401C167.477 355.878 169.358 356.883 171.405 357.29C173.453 357.698 175.575 357.489 177.504 356.69C179.433 355.891 181.082 354.538 182.242 352.802C183.401 351.066 184.02 349.025 184.02 346.937C184.017 344.139 182.904 341.456 180.925 339.477C178.946 337.498 176.263 336.385 173.465 336.381V336.381Z" fill="#38C8E8"/>
<path d="M222.022 268.824C228.24 268.824 233.281 263.783 233.281 257.564C233.281 251.346 228.24 246.304 222.022 246.304C215.803 246.304 210.762 251.346 210.762 257.564C210.762 263.783 215.803 268.824 222.022 268.824Z" fill="#38C8E8"/>
<path d="M629.48 168.191H512.661V169.598H629.48V168.191Z" fill="#30C1B0"/>
<path d="M502.105 180.049H500.698V246.304H502.105V180.049Z" fill="#30C1B0"/>
<path d="M489.438 256.86H395.842V258.268H489.438V256.86Z" fill="#30C1B0"/>
<path d="M657.629 263.194H560.514V264.601H657.629V263.194Z" fill="#30C1B0"/>
<path d="M550.662 275.861H549.255V335.678H550.662V275.861Z" fill="#30C1B0"/>
<path d="M537.995 346.234H372.619V347.641H537.995V346.234Z" fill="#30C1B0"/>
<path d="M362.063 292.047H360.656V335.678H362.063V292.047Z" fill="#3F3D56"/>
<path d="M501.401 180.154C507.62 180.154 512.661 175.113 512.661 168.894C512.661 162.676 507.62 157.635 501.401 157.635C495.183 157.635 490.141 162.676 490.141 168.894C490.141 175.113 495.183 180.154 501.401 180.154Z" fill="#38C8E8"/>
<path d="M487.327 128.782C484.961 128.782 482.648 128.08 480.68 126.766C478.713 125.451 477.18 123.583 476.274 121.397C475.369 119.211 475.132 116.805 475.593 114.485C476.055 112.164 477.194 110.032 478.867 108.359C480.54 106.686 482.672 105.547 484.993 105.085C487.313 104.623 489.719 104.86 491.905 105.766C494.091 106.671 495.959 108.205 497.274 110.172C498.588 112.139 499.29 114.452 499.29 116.819C499.287 119.99 498.025 123.031 495.782 125.274C493.539 127.517 490.499 128.778 487.327 128.782V128.782ZM487.327 106.263C485.239 106.263 483.198 106.882 481.462 108.042C479.726 109.202 478.373 110.85 477.574 112.779C476.775 114.708 476.566 116.83 476.974 118.878C477.381 120.926 478.386 122.806 479.863 124.283C481.339 125.759 483.22 126.764 485.267 127.172C487.315 127.579 489.438 127.37 491.366 126.571C493.295 125.772 494.944 124.419 496.104 122.683C497.264 120.947 497.883 118.906 497.883 116.819C497.88 114.02 496.766 111.337 494.787 109.358C492.809 107.379 490.125 106.266 487.327 106.263V106.263Z" fill="#38C8E8"/>
<path d="M361.36 128.782C358.993 128.782 356.68 128.08 354.713 126.766C352.746 125.451 351.212 123.583 350.307 121.397C349.401 119.211 349.165 116.805 349.626 114.485C350.088 112.164 351.227 110.032 352.9 108.359C354.573 106.686 356.705 105.547 359.026 105.085C361.346 104.623 363.752 104.86 365.938 105.766C368.124 106.671 369.992 108.205 371.307 110.172C372.621 112.139 373.323 114.452 373.323 116.819C373.319 119.99 372.058 123.031 369.815 125.274C367.572 127.517 364.531 128.778 361.36 128.782V128.782ZM361.36 106.263C359.272 106.263 357.231 106.882 355.495 108.042C353.759 109.202 352.406 110.85 351.607 112.779C350.808 114.708 350.599 116.83 351.007 118.878C351.414 120.926 352.419 122.806 353.895 124.283C355.372 125.759 357.253 126.764 359.3 127.172C361.348 127.579 363.47 127.37 365.399 126.571C367.328 125.772 368.977 124.419 370.137 122.683C371.296 120.947 371.915 118.906 371.915 116.819C371.912 114.02 370.799 111.337 368.82 109.358C366.841 107.379 364.158 106.266 361.36 106.263V106.263Z" fill="#38C8E8"/>
<path d="M549.255 276.565C546.889 276.565 544.576 275.863 542.608 274.548C540.641 273.234 539.108 271.366 538.202 269.179C537.297 266.993 537.06 264.588 537.521 262.267C537.983 259.947 539.122 257.815 540.795 256.142C542.468 254.469 544.6 253.329 546.921 252.868C549.241 252.406 551.647 252.643 553.833 253.549C556.019 254.454 557.887 255.987 559.202 257.955C560.516 259.922 561.218 262.235 561.218 264.601C561.215 267.773 559.953 270.814 557.71 273.057C555.467 275.3 552.427 276.561 549.255 276.565V276.565ZM549.255 254.045C547.167 254.045 545.126 254.665 543.39 255.824C541.654 256.984 540.301 258.633 539.502 260.562C538.703 262.491 538.494 264.613 538.902 266.661C539.309 268.708 540.314 270.589 541.791 272.065C543.267 273.542 545.148 274.547 547.195 274.954C549.243 275.362 551.365 275.153 553.294 274.354C555.223 273.555 556.872 272.202 558.032 270.466C559.192 268.73 559.811 266.689 559.811 264.601C559.808 261.803 558.694 259.12 556.715 257.141C554.737 255.162 552.053 254.049 549.255 254.045V254.045Z" fill="#38C8E8"/>
<path d="M549.255 358.197C555.473 358.197 560.514 353.156 560.514 346.937C560.514 340.719 555.473 335.678 549.255 335.678C543.036 335.678 537.995 340.719 537.995 346.937C537.995 353.156 543.036 358.197 549.255 358.197Z" fill="#38C8E8"/>
<path d="M361.36 358.901C358.993 358.901 356.68 358.199 354.713 356.884C352.746 355.57 351.212 353.701 350.307 351.515C349.401 349.329 349.165 346.924 349.626 344.603C350.088 342.283 351.227 340.151 352.9 338.478C354.573 336.805 356.705 335.665 359.026 335.204C361.346 334.742 363.752 334.979 365.938 335.885C368.124 336.79 369.992 338.323 371.307 340.291C372.621 342.258 373.323 344.571 373.323 346.937C373.319 350.109 372.058 353.15 369.815 355.393C367.572 357.636 364.531 358.897 361.36 358.901V358.901ZM361.36 336.381C359.272 336.381 357.231 337 355.495 338.16C353.759 339.32 352.406 340.969 351.607 342.898C350.808 344.827 350.599 346.949 351.007 348.997C351.414 351.044 352.419 352.925 353.895 354.401C355.372 355.878 357.253 356.883 359.3 357.29C361.348 357.698 363.47 357.489 365.399 356.69C367.328 355.891 368.977 354.538 370.137 352.802C371.296 351.066 371.915 349.025 371.915 346.937C371.912 344.139 370.799 341.456 368.82 339.477C366.841 337.498 364.158 336.385 361.36 336.381V336.381Z" fill="#38C8E8"/>
<path d="M500.698 269.527C498.331 269.527 496.018 268.826 494.051 267.511C492.084 266.197 490.55 264.328 489.645 262.142C488.739 259.956 488.502 257.551 488.964 255.23C489.426 252.909 490.565 250.778 492.238 249.105C493.911 247.431 496.043 246.292 498.364 245.83C500.684 245.369 503.09 245.606 505.276 246.511C507.462 247.417 509.33 248.95 510.645 250.917C511.959 252.885 512.661 255.198 512.661 257.564C512.657 260.736 511.396 263.777 509.153 266.019C506.91 268.262 503.869 269.524 500.698 269.527V269.527ZM500.698 247.008C498.61 247.008 496.569 247.627 494.833 248.787C493.097 249.947 491.744 251.596 490.945 253.524C490.146 255.453 489.937 257.576 490.344 259.623C490.752 261.671 491.757 263.552 493.233 265.028C494.71 266.504 496.591 267.51 498.638 267.917C500.686 268.324 502.808 268.115 504.737 267.316C506.666 266.517 508.315 265.164 509.474 263.428C510.634 261.693 511.253 259.652 511.253 257.564C511.25 254.765 510.137 252.082 508.158 250.103C506.179 248.124 503.496 247.011 500.698 247.008V247.008Z" fill="#38C8E8"/>
<path d="M173.464 240.675C170.681 240.675 167.959 241.5 165.645 243.047C163.33 244.593 161.526 246.791 160.461 249.363C159.396 251.935 159.117 254.765 159.66 257.495C160.203 260.225 161.544 262.733 163.512 264.701C165.48 266.67 167.988 268.01 170.719 268.553C173.449 269.096 176.279 268.818 178.85 267.752C181.422 266.687 183.62 264.883 185.167 262.569C186.713 260.254 187.539 257.533 187.539 254.749C187.528 251.02 186.042 247.446 183.404 244.809C180.767 242.172 177.194 240.686 173.464 240.675V240.675ZM173.464 244.897C174.299 244.897 175.116 245.145 175.81 245.609C176.505 246.073 177.046 246.732 177.365 247.504C177.685 248.275 177.768 249.124 177.606 249.943C177.443 250.762 177.04 251.515 176.45 252.105C175.859 252.696 175.107 253.098 174.288 253.261C173.469 253.423 172.62 253.34 171.848 253.02C171.077 252.701 170.417 252.16 169.954 251.465C169.49 250.771 169.242 249.954 169.242 249.119C169.246 248.001 169.692 246.929 170.483 246.138C171.274 245.347 172.346 244.901 173.464 244.897V244.897ZM173.464 265.224C171.796 265.216 170.155 264.802 168.684 264.017C167.212 263.231 165.954 262.099 165.02 260.717C165.087 257.902 170.649 256.353 173.464 256.353C176.279 256.353 181.841 257.902 181.909 260.717C180.973 262.098 179.715 263.229 178.244 264.015C176.772 264.8 175.132 265.215 173.464 265.224V265.224Z" fill="#30C1B0"/>
<path d="M222.022 48.5571C219.238 48.5571 216.517 49.3826 214.202 50.9291C211.888 52.4756 210.084 54.6738 209.018 57.2456C207.953 59.8174 207.674 62.6473 208.217 65.3775C208.761 68.1077 210.101 70.6155 212.069 72.5839C214.038 74.5522 216.546 75.8927 219.276 76.4358C222.006 76.9788 224.836 76.7001 227.408 75.6349C229.979 74.5696 232.178 72.7656 233.724 70.4511C235.271 68.1365 236.096 65.4153 236.096 62.6317C236.085 58.9022 234.599 55.3286 231.962 52.6915C229.325 50.0544 225.751 48.568 222.022 48.5571V48.5571ZM222.022 52.7795C222.857 52.7795 223.673 53.0271 224.367 53.4911C225.062 53.955 225.603 54.6145 225.923 55.386C226.242 56.1576 226.326 57.0065 226.163 57.8256C226 58.6447 225.598 59.397 225.007 59.9875C224.417 60.578 223.664 60.9802 222.845 61.1431C222.026 61.306 221.177 61.2224 220.406 60.9028C219.634 60.5832 218.975 60.042 218.511 59.3477C218.047 58.6533 217.799 57.837 217.799 57.0019C217.803 55.8832 218.249 54.8114 219.04 54.0203C219.831 53.2293 220.903 52.7832 222.022 52.7795V52.7795ZM222.022 73.1064C220.354 73.0988 218.713 72.6843 217.241 71.899C215.769 71.1137 214.512 69.9812 213.577 68.5998C213.645 65.7849 219.207 64.2354 222.022 64.2354C224.836 64.2354 230.399 65.7849 230.466 68.5998C229.53 69.9802 228.272 71.1119 226.801 71.8971C225.33 72.6822 223.689 73.0973 222.022 73.1064V73.1064Z" fill="#30C1B0"/>
<path d="M487.327 0C484.543 0 481.822 0.825461 479.507 2.37199C477.193 3.91852 475.389 6.11666 474.323 8.68845C473.258 11.2602 472.979 14.0902 473.523 16.8203C474.066 19.5505 475.406 22.0584 477.374 24.0267C479.343 25.9951 481.851 27.3356 484.581 27.8786C487.311 28.4217 490.141 28.143 492.713 27.0777C495.284 26.0124 497.483 24.2085 499.029 21.8939C500.576 19.5794 501.401 16.8582 501.401 14.0745C501.39 10.3451 499.904 6.77152 497.267 4.1344C494.63 1.49727 491.056 0.0109165 487.327 0V0ZM487.327 4.22236C488.162 4.22236 488.978 4.47 489.672 4.93396C490.367 5.39792 490.908 6.05736 491.228 6.8289C491.547 7.60043 491.631 8.44941 491.468 9.26847C491.305 10.0875 490.903 10.8399 490.312 11.4304C489.722 12.0209 488.969 12.423 488.15 12.586C487.331 12.7489 486.482 12.6653 485.711 12.3457C484.939 12.0261 484.28 11.4849 483.816 10.7905C483.352 10.0962 483.104 9.27983 483.104 8.44472C483.108 7.32603 483.554 6.25423 484.345 5.46319C485.136 4.67215 486.208 4.2261 487.327 4.22236V4.22236ZM487.327 24.5492C485.659 24.5416 484.018 24.1272 482.546 23.3419C481.075 22.5566 479.817 21.4241 478.882 20.0427C478.95 17.2278 484.512 15.6782 487.327 15.6782C490.142 15.6782 495.704 17.2278 495.771 20.0427C494.835 21.4231 493.577 22.5547 492.106 23.3399C490.635 24.1251 488.994 24.5402 487.327 24.5492Z" fill="#30C1B0"/>
<path d="M649.184 154.116C646.4 154.116 643.679 154.942 641.364 156.488C639.05 158.035 637.246 160.233 636.181 162.805C635.115 165.376 634.837 168.206 635.38 170.937C635.923 173.667 637.263 176.175 639.232 178.143C641.2 180.111 643.708 181.452 646.438 181.995C649.168 182.538 651.998 182.259 654.57 181.194C657.142 180.129 659.34 178.325 660.886 176.01C662.433 173.696 663.258 170.974 663.258 168.191C663.247 164.461 661.761 160.888 659.124 158.251C656.487 155.613 652.913 154.127 649.184 154.116ZM649.184 158.339C650.019 158.339 650.835 158.586 651.53 159.05C652.224 159.514 652.765 160.174 653.085 160.945C653.404 161.717 653.488 162.566 653.325 163.385C653.162 164.204 652.76 164.956 652.169 165.547C651.579 166.137 650.827 166.539 650.008 166.702C649.188 166.865 648.339 166.781 647.568 166.462C646.796 166.142 646.137 165.601 645.673 164.907C645.209 164.212 644.961 163.396 644.961 162.561C644.965 161.442 645.411 160.37 646.202 159.579C646.993 158.788 648.065 158.342 649.184 158.339ZM649.184 178.665C647.516 178.658 645.875 178.243 644.403 177.458C642.932 176.673 641.674 175.54 640.739 174.159C640.807 171.344 646.369 169.794 649.184 169.794C651.999 169.794 657.561 171.344 657.629 174.159C656.693 175.539 655.435 176.671 653.963 177.456C652.492 178.241 650.852 178.656 649.184 178.665V178.665Z" fill="#30C1B0"/>
<path d="M675.925 249.119C673.142 249.119 670.421 249.945 668.106 251.491C665.791 253.038 663.987 255.236 662.922 257.808C661.857 260.38 661.578 263.209 662.121 265.94C662.664 268.67 664.005 271.178 665.973 273.146C667.942 275.114 670.449 276.455 673.18 276.998C675.91 277.541 678.74 277.262 681.312 276.197C683.883 275.132 686.081 273.328 687.628 271.013C689.175 268.699 690 265.977 690 263.194C689.989 259.464 688.503 255.891 685.866 253.254C683.228 250.617 679.655 249.13 675.925 249.119V249.119ZM675.925 253.342C676.761 253.342 677.577 253.589 678.271 254.053C678.966 254.517 679.507 255.177 679.826 255.948C680.146 256.72 680.23 257.569 680.067 258.388C679.904 259.207 679.502 259.959 678.911 260.55C678.321 261.14 677.568 261.542 676.749 261.705C675.93 261.868 675.081 261.785 674.31 261.465C673.538 261.145 672.879 260.604 672.415 259.91C671.951 259.215 671.703 258.399 671.703 257.564C671.707 256.445 672.153 255.373 672.944 254.582C673.735 253.791 674.807 253.345 675.925 253.342V253.342ZM675.925 273.669C674.257 273.661 672.616 273.246 671.145 272.461C669.673 271.676 668.416 270.543 667.481 269.162C667.548 266.347 673.111 264.797 675.925 264.797C678.74 264.797 684.303 266.347 684.37 269.162C683.434 270.542 682.176 271.674 680.705 272.459C679.234 273.244 677.593 273.659 675.925 273.669V273.669Z" fill="#30C1B0"/>
<path d="M106.966 516.039C104.964 534.249 -0.159115 532.72 0.000180855 516.038C2.00255 497.829 107.126 499.358 106.966 516.039Z" fill="#E6E6E6"/>
<path d="M73.0145 470.199L77.2763 479.432L85.0884 478.722L90.0602 462.387L82.2474 458.125L73.0145 470.199Z" fill="#FFB8B8"/>
<path d="M46.1941 491.464L46.0259 497.898L58.0997 498.608V490.796L46.1941 491.464Z" fill="#FFB8B8"/>
<path d="M50.2869 374.318L53.1279 431.136L46.0259 492.926L67.3326 495.767L80.8273 417.642L85.0884 364.374L50.2869 374.318Z" fill="#2F2E41"/>
<path d="M16.9062 353.721C16.9062 353.721 8.38341 409.829 26.1392 428.295C43.895 446.762 68.0429 479.432 68.0429 479.432L85.0885 458.125L41.7643 411.96L50.2871 380.71L85.0885 364.375L79.4067 325.312L28.2699 324.602L16.9062 353.721Z" fill="#2F2E41"/>
<path d="M58.8101 223.748C67.4396 223.748 74.4352 216.753 74.4352 208.123C74.4352 199.494 67.4396 192.498 58.8101 192.498C50.1805 192.498 43.1849 199.494 43.1849 208.123C43.1849 216.753 50.1805 223.748 58.8101 223.748Z" fill="#FFB8B8"/>
<path d="M45.3156 211.675C45.3156 211.675 44.6054 233.692 41.0542 236.533C37.5031 239.374 53.8384 251.448 53.8384 251.448L64.4919 234.402V218.777L45.3156 211.675Z" fill="#FFB8B8"/>
<path d="M52.4178 241.504L43.7951 228.484L38.9232 235.112L31.8212 254.999L37.5031 332.414L70.8836 333.124L75.1454 244.345L64.4917 231.561L52.4178 241.504Z" fill="#30C1B0"/>
<path d="M88.6398 246.476L94.3217 245.766C94.3217 245.766 95.7421 246.476 96.4523 251.447C97.1626 256.419 105.685 300.454 105.685 300.454L94.3217 354.431L81.5375 337.386L89.35 307.556L81.5375 277.726L88.6398 246.476Z" fill="#2F2E41"/>
<path d="M16.1963 245.765H11.9345L1.28149 303.294L11.2245 348.039L21.1674 331.704L18.3265 313.948L19.7473 298.323L24.7191 289.09L16.1963 245.765Z" fill="#2F2E41"/>
<path d="M79.4067 476.591C79.4067 476.591 75.1453 475.171 75.1453 478.012C75.1453 480.853 77.9862 489.375 77.9862 489.375C77.9862 489.375 73.7248 515.654 80.1169 514.233C86.509 512.813 91.4806 500.739 92.1909 497.188C92.9011 493.637 96.4522 475.171 96.4522 475.171C96.4522 475.171 102.134 461.676 98.5829 460.966C95.0317 460.256 85.0885 457.415 85.0885 457.415C85.0885 457.415 90.7704 475.171 79.4067 476.591Z" fill="#2F2E41"/>
<path d="M58.8101 498.608C58.8101 498.608 47.4464 491.506 45.3157 497.188C43.9026 501.332 42.9498 505.619 42.4747 509.972C42.4747 509.972 39.6338 519.205 50.9975 517.785C62.3612 516.364 60.9408 516.364 61.651 512.103C62.3612 507.841 58.8101 498.608 58.8101 498.608Z" fill="#2F2E41"/>
<path d="M49.577 208.123L52.4179 207.413C52.4179 207.413 54.5486 195.339 59.5202 196.76C64.4919 198.18 77.2761 199.601 77.2761 193.919C77.2761 188.237 65.2021 183.265 58.0998 183.975C50.9975 184.686 38.9235 186.816 39.6337 197.47C40.344 208.123 44.9269 218.487 44.9269 218.487L45.2971 212.171L49.577 208.123Z" fill="#2F2E41"/>
<path d="M64.4917 250.027L52.4178 241.504L64.4917 231.561L68.6838 236.591L64.4917 250.027Z" fill="#D0CDE1"/>
<path d="M41.764 249.317L52.4178 241.504L43.8949 228.72L38.9231 235.112L41.764 249.317Z" fill="#D0CDE1"/>
<path d="M93.6113 245.766L70.8839 236.533L65.5572 232.626L49.5769 303.294L38.9234 271.334L42.1195 230.496L12.6448 245.766L22.5881 294.061L24.0086 312.527L19.7472 327.442C19.7472 327.442 4.8323 338.096 9.80392 349.46C14.7756 360.823 20.4574 361.534 20.4574 361.534C20.4574 361.534 44.6053 338.806 46.0258 333.124C47.4462 327.442 49.5769 317.499 49.5769 317.499C49.5769 317.499 61.6509 362.954 75.8555 362.244C90.0601 361.533 90.0602 346.619 90.0602 346.619L86.509 330.993L80.8272 314.658L83.6681 287.669L93.6113 245.766Z" fill="#2F2E41"/>
<circle cx="361.716" cy="256.157" r="33.7789" fill="#38C8E8" fill-opacity="0.5"/>
<path d="M345.864 267.039L346.081 237.373L361.581 265.526L362.018 266.32L362.457 265.527L377.855 237.658L377.638 267.278L362.018 277.552L345.864 267.039Z" fill="#2AD2BE" stroke="#2AD2BE"/>
</svg>
