<svg width="24" height="24" viewBox="0 0 24 24" fill="none" xmlns="http://www.w3.org/2000/svg">
<path d="M12 0C5.373 0 0 5.373 0 12C0 18.627 5.373 24 12 24C18.627 24 24 18.627 24 12C24 5.37152 18.627 0 12 0ZM17.97 9.30598L17.979 9.68848C17.979 13.5945 15.0075 18.0945 9.57297 18.0945C7.90498 18.0945 6.35246 17.6055 5.04447 16.767C5.2755 16.794 5.51096 16.809 5.74949 16.809C7.134 16.809 8.40749 16.3365 9.41848 15.5444C8.1255 15.5205 7.03497 14.6655 6.65848 13.4925C6.83996 13.527 7.02298 13.5435 7.21497 13.5435C7.48497 13.5435 7.74595 13.509 7.99345 13.4415C6.64195 13.1685 5.62346 11.976 5.62346 10.545V10.5075C6.02245 10.7295 6.47695 10.8615 6.96145 10.878C6.16944 10.3485 5.64744 9.44404 5.64744 8.41953C5.64744 7.87804 5.79296 7.37104 6.04643 6.93455C7.50294 8.72254 9.68093 9.89853 12.1364 10.0215C12.0854 9.80552 12.06 9.57904 12.06 9.34806C12.06 7.71758 13.3829 6.39455 15.015 6.39455C15.8639 6.39455 16.632 6.75302 17.1719 7.32752C17.8439 7.194 18.4769 6.94802 19.0484 6.61052C18.8279 7.30053 18.36 7.87952 17.7494 8.2455C18.345 8.17499 18.9164 8.01447 19.4459 7.78049C19.05 8.37147 18.5475 8.89199 17.97 9.30598Z" fill="#1F2431"/>
</svg>
