<svg width="24" height="24" viewBox="0 0 24 24" fill="none" xmlns="http://www.w3.org/2000/svg">
<path d="M21.6 5.33333V2.66667C21.6 1.196 20.5236 0 19.2 0H3.6C1.6152 0 0 1.79467 0 4V20C0 22.9347 2.1528 24 3.6 24H21.6C22.9236 24 24 22.804 24 21.3333V8C24 6.52933 22.9236 5.33333 21.6 5.33333ZM3.6 2.66667H19.2V5.33333H3.6C3.29102 5.31798 2.99929 5.17079 2.78553 4.92242C2.57178 4.67406 2.45248 4.34365 2.45248 4C2.45248 3.65635 2.57178 3.32594 2.78553 3.07758C2.99929 2.82921 3.29102 2.68202 3.6 2.66667ZM21.6 21.3333H3.6144C3.06 21.3173 2.4 21.0733 2.4 20V7.75333C2.7768 7.904 3.1764 8 3.6 8H21.6V21.3333Z" fill="white"/>
</svg>
