<svg width="19" height="19" viewBox="0 0 19 19" fill="none" xmlns="http://www.w3.org/2000/svg">
<path d="M17.1 4.22222V2.11111C17.1 0.946833 16.2479 0 15.2 0H2.85C1.2787 0 0 1.42078 0 3.16667V15.8333C0 18.1566 1.7043 19 2.85 19H17.1C18.1479 19 19 18.0532 19 16.8889V6.33333C19 5.16906 18.1479 4.22222 17.1 4.22222ZM2.85 2.11111H15.2V4.22222H2.85C2.60539 4.21006 2.37444 4.09354 2.20521 3.89692C2.03599 3.70029 1.94155 3.43872 1.94155 3.16667C1.94155 2.89461 2.03599 2.63304 2.20521 2.43641C2.37444 2.23979 2.60539 2.12327 2.85 2.11111ZM17.1 16.8889H2.8614C2.4225 16.8762 1.9 16.6831 1.9 15.8333V6.13806C2.1983 6.25733 2.51465 6.33333 2.85 6.33333H17.1V16.8889Z" fill="#66788A"/>
</svg>
