<svg width="211" height="57" viewBox="0 0 211 57" fill="none" xmlns="http://www.w3.org/2000/svg">
<path d="M0.411469 0L22.1151 39.4215L43.7218 0.316747L43.4139 42.4128L22.1151 56.4223L0.103602 42.096L0.411469 0Z" fill="#2AD2BE"/>
<path d="M56.404 20.344C59.404 20.344 61.708 21.064 63.316 22.504C64.924 23.92 65.728 26.068 65.728 28.948V40H60.472V37.588C59.416 39.388 57.448 40.288 54.568 40.288C53.08 40.288 51.784 40.036 50.68 39.532C49.6 39.028 48.772 38.332 48.196 37.444C47.62 36.556 47.332 35.548 47.332 34.42C47.332 32.62 48.004 31.204 49.348 30.172C50.716 29.14 52.816 28.624 55.648 28.624H60.112C60.112 27.4 59.74 26.464 58.996 25.816C58.252 25.144 57.136 24.808 55.648 24.808C54.616 24.808 53.596 24.976 52.588 25.312C51.604 25.624 50.764 26.056 50.068 26.608L48.052 22.684C49.108 21.94 50.368 21.364 51.832 20.956C53.32 20.548 54.844 20.344 56.404 20.344ZM55.972 36.508C56.932 36.508 57.784 36.292 58.528 35.86C59.272 35.404 59.8 34.744 60.112 33.88V31.9H56.26C53.956 31.9 52.804 32.656 52.804 34.168C52.804 34.888 53.08 35.464 53.632 35.896C54.208 36.304 54.988 36.508 55.972 36.508ZM77.3268 40.288C75.7188 40.288 74.1468 40.096 72.6108 39.712C71.0748 39.304 69.8508 38.8 68.9388 38.2L70.8108 34.168C71.6748 34.72 72.7188 35.176 73.9428 35.536C75.1668 35.872 76.3668 36.04 77.5428 36.04C79.9188 36.04 81.1068 35.452 81.1068 34.276C81.1068 33.724 80.7828 33.328 80.1348 33.088C79.4868 32.848 78.4908 32.644 77.1468 32.476C75.5628 32.236 74.2548 31.96 73.2228 31.648C72.1908 31.336 71.2908 30.784 70.5228 29.992C69.7788 29.2 69.4067 28.072 69.4067 26.608C69.4067 25.384 69.7548 24.304 70.4508 23.368C71.1708 22.408 72.2028 21.664 73.5468 21.136C74.9148 20.608 76.5228 20.344 78.3708 20.344C79.7388 20.344 81.0948 20.5 82.4388 20.812C83.8068 21.1 84.9348 21.508 85.8228 22.036L83.9508 26.032C82.2468 25.072 80.3868 24.592 78.3708 24.592C77.1708 24.592 76.2708 24.76 75.6708 25.096C75.0708 25.432 74.7708 25.864 74.7708 26.392C74.7708 26.992 75.0948 27.412 75.7428 27.652C76.3908 27.892 77.4228 28.12 78.8388 28.336C80.4228 28.6 81.7188 28.888 82.7268 29.2C83.7348 29.488 84.6108 30.028 85.3548 30.82C86.0988 31.612 86.4708 32.716 86.4708 34.132C86.4708 35.332 86.1108 36.4 85.3908 37.336C84.6708 38.272 83.6148 39.004 82.2228 39.532C80.8548 40.036 79.2228 40.288 77.3268 40.288ZM102.428 39.064C101.876 39.472 101.192 39.784 100.376 40C99.5838 40.192 98.7438 40.288 97.8558 40.288C95.5518 40.288 93.7638 39.7 92.4918 38.524C91.2438 37.348 90.6198 35.62 90.6198 33.34V25.384H87.6318V21.064H90.6198V16.348H96.2358V21.064H101.06V25.384H96.2358V33.268C96.2358 34.084 96.4398 34.72 96.8477 35.176C97.2798 35.608 97.8798 35.824 98.6478 35.824C99.5358 35.824 100.292 35.584 100.916 35.104L102.428 39.064ZM123.955 30.388C123.955 30.46 123.919 30.964 123.847 31.9H109.195C109.459 33.1 110.083 34.048 111.067 34.744C112.051 35.44 113.275 35.788 114.739 35.788C115.747 35.788 116.635 35.644 117.403 35.356C118.195 35.044 118.927 34.564 119.599 33.916L122.587 37.156C120.763 39.244 118.099 40.288 114.595 40.288C112.411 40.288 110.479 39.868 108.799 39.028C107.119 38.164 105.823 36.976 104.911 35.464C103.999 33.952 103.543 32.236 103.543 30.316C103.543 28.42 103.987 26.716 104.875 25.204C105.787 23.668 107.023 22.48 108.583 21.64C110.167 20.776 111.931 20.344 113.875 20.344C115.771 20.344 117.487 20.752 119.023 21.568C120.559 22.384 121.759 23.56 122.623 25.096C123.511 26.608 123.955 28.372 123.955 30.388ZM113.911 24.592C112.639 24.592 111.571 24.952 110.707 25.672C109.843 26.392 109.315 27.376 109.123 28.624H118.663C118.471 27.4 117.943 26.428 117.079 25.708C116.215 24.964 115.159 24.592 113.911 24.592Z" fill="#38C8E8"/>
<path d="M140.15 40.432C137.582 40.432 135.254 39.88 133.166 38.776C131.102 37.648 129.47 36.1 128.27 34.132C127.094 32.14 126.506 29.896 126.506 27.4C126.506 24.904 127.094 22.672 128.27 20.704C129.47 18.712 131.102 17.164 133.166 16.06C135.254 14.932 137.594 14.368 140.186 14.368C142.37 14.368 144.338 14.752 146.09 15.52C147.866 16.288 149.354 17.392 150.554 18.832L146.81 22.288C145.106 20.32 142.994 19.336 140.474 19.336C138.914 19.336 137.522 19.684 136.298 20.38C135.074 21.052 134.114 22 133.418 23.224C132.746 24.448 132.41 25.84 132.41 27.4C132.41 28.96 132.746 30.352 133.418 31.576C134.114 32.8 135.074 33.76 136.298 34.456C137.522 35.128 138.914 35.464 140.474 35.464C142.994 35.464 145.106 34.468 146.81 32.476L150.554 35.932C149.354 37.396 147.866 38.512 146.09 39.28C144.314 40.048 142.334 40.432 140.15 40.432ZM162.644 40.288C160.604 40.288 158.768 39.868 157.136 39.028C155.528 38.164 154.268 36.976 153.356 35.464C152.444 33.952 151.988 32.236 151.988 30.316C151.988 28.396 152.444 26.68 153.356 25.168C154.268 23.656 155.528 22.48 157.136 21.64C158.768 20.776 160.604 20.344 162.644 20.344C164.684 20.344 166.508 20.776 168.116 21.64C169.724 22.48 170.984 23.656 171.896 25.168C172.808 26.68 173.264 28.396 173.264 30.316C173.264 32.236 172.808 33.952 171.896 35.464C170.984 36.976 169.724 38.164 168.116 39.028C166.508 39.868 164.684 40.288 162.644 40.288ZM162.644 35.68C164.084 35.68 165.26 35.2 166.172 34.24C167.108 33.256 167.576 31.948 167.576 30.316C167.576 28.684 167.108 27.388 166.172 26.428C165.26 25.444 164.084 24.952 162.644 24.952C161.204 24.952 160.016 25.444 159.08 26.428C158.144 27.388 157.676 28.684 157.676 30.316C157.676 31.948 158.144 33.256 159.08 34.24C160.016 35.2 161.204 35.68 162.644 35.68ZM177.018 20.632H182.634V40H177.018V20.632ZM179.826 17.932C178.794 17.932 177.954 17.632 177.306 17.032C176.658 16.432 176.334 15.688 176.334 14.8C176.334 13.912 176.658 13.168 177.306 12.568C177.954 11.968 178.794 11.668 179.826 11.668C180.858 11.668 181.698 11.956 182.346 12.532C182.994 13.108 183.318 13.828 183.318 14.692C183.318 15.628 182.994 16.408 182.346 17.032C181.698 17.632 180.858 17.932 179.826 17.932ZM199.618 20.344C202.018 20.344 203.95 21.064 205.414 22.504C206.902 23.944 207.646 26.08 207.646 28.912V40H202.03V29.776C202.03 28.24 201.694 27.1 201.022 26.356C200.35 25.588 199.378 25.204 198.106 25.204C196.69 25.204 195.562 25.648 194.722 26.536C193.882 27.4 193.462 28.696 193.462 30.424V40H187.846V20.632H193.21V22.9C193.954 22.084 194.878 21.46 195.982 21.028C197.086 20.572 198.298 20.344 199.618 20.344Z" fill="#30C1B0"/>
</svg>
