<svg width="64" height="64" viewBox="0 0 64 64" fill="none" xmlns="http://www.w3.org/2000/svg">
<path fill-rule="evenodd" clip-rule="evenodd" d="M32 64C49.6731 64 64 49.6731 64 32C64 14.3269 49.6731 0 32 0C14.3269 0 0 14.3269 0 32C0 49.6731 14.3269 64 32 64Z" fill="#EC4C47"/>
<mask id="mask0" mask-type="alpha" maskUnits="userSpaceOnUse" x="17" y="19" width="29" height="26">
<path fill-rule="evenodd" clip-rule="evenodd" d="M31.5376 24.8536H45.8305V44.8636H17.2448V19.1364H31.5376V24.8536ZM20.1033 42.005H22.9619V39.1464H20.1033V42.005ZM22.9619 36.2879H20.1033V33.4293H22.9619V36.2879ZM20.1033 30.5707H22.9619V27.7121H20.1033V30.5707ZM22.9619 24.8536H20.1033V21.995H22.9619V24.8536ZM25.8205 42.005H28.679V39.1464H25.8205V42.005ZM28.679 36.2879H25.8205V33.4293H28.679V36.2879ZM25.8205 30.5707H28.679V27.7121H25.8205V30.5707ZM28.679 24.8536H25.8205V21.995H28.679V24.8536ZM42.9719 42.005V27.7121H31.5376V30.5707H34.3962V33.4293H31.5376V36.2879H34.3962V39.1464H31.5376V42.005H42.9719ZM40.1133 30.5707H37.2548V33.4293H40.1133V30.5707ZM37.2548 36.2879H40.1133V39.1464H37.2548V36.2879Z" fill="white"/>
</mask>
<g mask="url(#mask0)">
<rect x="14" y="14" width="36" height="36" fill="white"/>
</g>
</svg>
