<svg width="593" height="402" viewBox="0 0 593 402" fill="none" xmlns="http://www.w3.org/2000/svg">
<path d="M46.1617 101.923H188.198L252.114 165.921H366.926L405.394 125.626H500.085" stroke="#EEEEFF" stroke-width="2" stroke-linecap="round" stroke-linejoin="round"/>
<path d="M110.67 234.067H204.177L363.375 74.6644H581.756" stroke="#EEEEFF" stroke-width="2" stroke-linecap="round" stroke-linejoin="round"/>
<ellipse cx="222.523" cy="28.4436" rx="28.4072" ry="28.4436" fill="url(#paint0_linear)"/>
<ellipse cx="94.6905" cy="101.923" rx="3.5509" ry="3.55545" fill="#EEEEFF"/>
<path d="M80.487 100.738L94.6906 98.3677V105.479L80.487 103.108V100.738Z" fill="url(#paint1_linear)"/>
<path d="M177.545 112.589L214.237 149.329" stroke="#EEEEFF" stroke-width="2" stroke-linecap="round" stroke-linejoin="round"/>
<path d="M217.788 152.884L227.257 162.366" stroke="#EEEEFF" stroke-width="2" stroke-linecap="round" stroke-linejoin="round"/>
<path d="M401.251 235.845L437.944 272.585" stroke="#EEEEFF" stroke-width="2" stroke-linecap="round" stroke-linejoin="round"/>
<path d="M441.495 276.14L450.964 285.621" stroke="#EEEEFF" stroke-width="2" stroke-linecap="round" stroke-linejoin="round"/>
<path d="M415.455 140.939H520.207" stroke="#EEEEFF" stroke-width="2" stroke-linecap="round" stroke-linejoin="round"/>
<path d="M525.533 140.939H538.924" stroke="#EEEEFF" stroke-width="2" stroke-linecap="round" stroke-linejoin="round"/>
<path d="M544.471 140.939H572.287" stroke="#EEEEFF" stroke-width="2" stroke-linecap="round" stroke-linejoin="round"/>
<path d="M79.8953 218.364H140.261" stroke="#EEEEFF" stroke-width="2" stroke-linecap="round" stroke-linejoin="round"/>
<path d="M145.587 218.364H158.978" stroke="#EEEEFF" stroke-width="2" stroke-linecap="round" stroke-linejoin="round"/>
<path d="M164.525 218.364H192.34" stroke="#EEEEFF" stroke-width="2" stroke-linecap="round" stroke-linejoin="round"/>
<ellipse cx="456.882" cy="125.626" rx="3.5509" ry="3.55545" fill="#EEEEFF"/>
<path d="M442.679 124.441L456.882 122.071V129.182L442.679 126.811V124.441Z" fill="url(#paint2_linear)"/>
<ellipse cx="543.287" cy="74.6645" rx="3.5509" ry="3.55545" fill="#EEEEFF"/>
<path d="M529.084 73.4793L543.287 71.109V78.2199L529.084 75.8496V73.4793Z" fill="url(#paint3_linear)"/>
<path d="M62.7325 304.584H196.483L285.847 215.105H403.027L452.148 264.289H550.981" stroke="#EEEEFF" stroke-width="2" stroke-linecap="round" stroke-linejoin="round"/>
<ellipse cx="169.26" cy="304.584" rx="3.5509" ry="3.55545" fill="#EEEEFF"/>
<path d="M155.056 303.399L169.259 301.028V308.139L155.056 305.769V303.399Z" fill="url(#paint4_linear)"/>
<path d="M200.734 139.434C200.734 139.434 180.837 181.006 200.259 247.479C200.404 247.976 200.579 248.462 200.734 248.948C215.466 293.095 371.639 281.006 398.675 266.001C398.675 266.001 428.243 199.63 401.248 137.118C401.258 137.118 291.729 88.4207 200.734 139.434Z" fill="#38C8E8"/>
<g style="mix-blend-mode:soft-light">
<mask id="mask0" mask-type="alpha" maskUnits="userSpaceOnUse" x="191" y="116" width="222" height="164">
<path d="M200.734 139.434C200.734 139.434 180.837 181.006 200.259 247.479C200.404 247.976 200.579 248.462 200.734 248.948C215.466 293.095 371.639 281.006 398.676 266.001C398.676 266.001 428.243 199.63 401.248 137.118C401.258 137.118 291.729 88.4207 200.734 139.434Z" fill="#315EFB"/>
</mask>
<g mask="url(#mask0)">
<g style="mix-blend-mode:soft-light">
<path d="M193 160.5C193 160.5 187.026 194.175 200.116 250.797C200.116 250.797 205.671 280.613 288.992 285.423C362.258 289.656 399.871 269.205 399.871 269.205C399.871 269.205 414.364 244.28 416 232.12C416 232.12 325.876 268.419 237 238.5C186.5 221.5 193 160.5 193 160.5Z" fill="url(#paint5_linear)"/>
</g>
</g>
</g>
<path d="M410.056 225.41L411 221.012C411 221.012 392.427 224.567 375.775 223.232C359.123 221.896 354.513 216.203 352.003 209C352.003 209 351.281 225.05 374.22 227.311C397.459 229.613 410.056 225.41 410.056 225.41Z" fill="#DCE35B"/>
<path d="M414.218 221.223C414.218 221.223 419.383 206.745 415.654 184.439C415.654 184.439 401.387 176.383 375.043 178.741C348.699 181.099 346.498 199.909 351.509 213.849C357.056 229.237 392.037 226.693 414.218 221.223Z" fill="#30C1B0"/>
<circle cx="370" cy="203" r="14" fill="white"/>
<path d="M382.667 203C382.667 209.996 376.996 215.667 370 215.667C363.004 215.667 357.333 209.996 357.333 203C357.333 203 364 205.667 372.667 200.334C382.667 194.18 382.667 203 382.667 203Z" fill="url(#paint6_linear)"/>
<path fill-rule="evenodd" clip-rule="evenodd" d="M365.655 200.909C367.095 200.909 368.262 199.734 368.262 198.283C368.262 196.833 367.095 195.657 365.655 195.657C364.216 195.657 363.049 196.833 363.049 198.283C363.049 199.734 364.216 200.909 365.655 200.909Z" fill="#38C8E8"/>
<path fill-rule="evenodd" clip-rule="evenodd" d="M374.344 209.663C375.784 209.663 376.951 208.488 376.951 207.037C376.951 205.587 375.784 204.411 374.344 204.411C372.905 204.411 371.738 205.587 371.738 207.037C371.738 208.488 372.905 209.663 374.344 209.663Z" fill="#38C8E8"/>
<path fill-rule="evenodd" clip-rule="evenodd" d="M374.278 196.533C372.802 196.533 371.605 197.739 371.605 199.226C371.605 200.714 372.802 201.92 374.278 201.92C375.754 201.92 376.951 200.714 376.951 199.226C376.951 197.739 375.754 196.533 374.278 196.533Z" fill="#38C8E8"/>
<path fill-rule="evenodd" clip-rule="evenodd" d="M365.723 205.152C364.247 205.152 363.05 206.358 363.05 207.845C363.05 209.333 364.247 210.539 365.723 210.539C367.2 210.539 368.397 209.333 368.397 207.845C368.397 206.358 367.2 205.152 365.723 205.152Z" fill="#38C8E8"/>
<path d="M223.988 44.2797C231.434 14.4378 289.733 2.53658 317.952 0.316202C364.49 -3.34572 360.944 25.6285 317.952 44.2797C303.945 50.3563 294.904 77.1412 265.651 84.6905C254.32 87.6149 214.68 81.582 223.988 44.2797Z" fill="url(#paint7_linear)"/>
<circle r="3.55318" transform="matrix(0.706653 0.70756 -0.706653 0.70756 430.377 242.49)" fill="#EEEEFF"/>
<path d="M421.17 231.595L432.888 239.976L427.866 245.004L419.496 233.272L421.17 231.595Z" fill="url(#paint8_linear)"/>
<path d="M1.92255 247.815C-4.97406 231.767 8.33286 225.247 15.8484 223.994C54.9732 223.994 83.4884 247.815 103.382 252.83C123.276 257.845 150.465 256.591 186.274 276.024C222.084 295.457 229.378 313.009 248.609 331.188C267.84 349.367 283.755 338.084 310.281 339.964C336.806 341.845 346.09 360.651 310.281 375.069C274.471 389.487 257.23 375.696 229.378 375.069C201.526 374.442 165.054 343.726 150.465 323.039C135.876 302.352 113.329 284.8 83.4884 281.666C53.6473 278.531 10.5433 267.874 1.92255 247.815Z" fill="url(#paint9_linear)"/>
<path d="M328.576 329.328L400.434 379.267L284.269 402L328.576 329.328Z" fill="url(#paint10_linear)"/>
<path fill-rule="evenodd" clip-rule="evenodd" d="M522.533 309.966C523.49 304.385 528.795 300.621 534.378 301.581V301.581C539.962 302.54 543.71 307.859 542.753 313.441V313.441C541.797 319.022 536.492 322.786 530.908 321.826V321.826C525.325 320.867 521.577 315.548 522.533 309.966V309.966ZM531.537 310.672L526.66 309.834L525.781 311.574L530.658 312.412L531.537 310.672V310.672ZM538.586 308.717C539.004 308.788 539.523 309.077 539.702 309.646C539.88 310.214 539.76 310.47 539.446 311.138L539.446 311.139C539.131 311.808 538.139 313.805 537.753 314.508C537.366 315.21 536.781 315.755 536.108 316.009L536.048 316.031C535.419 316.269 535.154 316.368 534.325 316.226L525.571 314.722L526.53 312.827L534.764 314.241L536.68 310.449L528.512 309.045L529.472 307.15L538.586 308.717Z" fill="#56AB2F"/>
<path fill-rule="evenodd" clip-rule="evenodd" d="M462.543 335.445C467.621 327.58 478.135 325.305 486.005 330.399V330.399C493.876 335.493 496.123 346.027 491.045 353.892V353.892C485.967 361.758 475.453 364.032 467.582 358.938V358.938C459.712 353.844 457.465 343.311 462.543 335.445V335.445ZM468.7 344.192L470.371 344.537L466.376 348.31L478.423 356.107L481.4 353.289L474.175 348.613L477.075 345.864L478.755 346.193L481.055 344.028L479.39 343.709L484.558 338.824L479.76 335.719L472.715 342.355L471.013 342.024L468.701 344.192L468.7 344.192Z" fill="#56AB2F"/>
<path d="M488.502 202.339C489.811 191.477 496.249 187.657 499.304 187.106C512.725 191.08 528.437 179.82 540.221 183.132C552.005 186.443 561.17 202.339 566.735 207.638C572.299 212.936 600.777 218.235 590.957 234.793C581.137 251.351 566.08 234.793 542.839 230.157C519.599 225.52 521.235 240.423 510.761 245.059C500.286 249.695 492.103 242.41 488.502 234.793C484.901 227.176 486.865 215.917 488.502 202.339Z" fill="url(#paint11_linear)"/>
<path fill-rule="evenodd" clip-rule="evenodd" d="M158.527 378.377C148.112 367.644 148.359 350.487 159.079 340.059V340.059C169.799 329.63 186.934 329.878 197.349 340.611V340.611C207.764 351.345 207.517 368.501 196.797 378.93V378.93C186.076 389.359 168.942 389.111 158.527 378.377V378.377Z" fill="white"/>
<path fill-rule="evenodd" clip-rule="evenodd" d="M156.16 378.377C145.746 367.645 145.992 350.487 156.712 340.059V340.059C167.432 329.63 184.568 329.879 194.981 340.611V340.611C205.395 351.344 205.15 368.501 194.429 378.93V378.93C183.709 389.359 166.574 389.11 156.16 378.377V378.377ZM188.755 373.085L168.866 369.581L182.13 366.258L182.131 366.259L185.834 353.074L188.755 373.085ZM162.383 345.907L184.294 351.498L180.513 364.592L167.332 368L162.383 345.907Z" fill="#56AB2F"/>
<path fill-rule="evenodd" clip-rule="evenodd" d="M498.668 168.504C504.095 161.843 513.891 160.846 520.544 166.281V166.281C527.198 171.715 528.191 181.524 522.765 188.185V188.185C517.338 194.845 507.543 195.842 500.889 190.408V190.408C494.235 184.973 493.242 175.164 498.668 168.504V168.504Z" fill="white"/>
<path fill-rule="evenodd" clip-rule="evenodd" d="M496.301 167.318C501.723 160.663 511.523 159.66 518.177 165.095V165.095C524.831 170.53 525.82 180.344 520.397 186.999V186.999C514.975 193.655 505.175 194.657 498.521 189.222V189.222C491.867 183.788 490.879 173.974 496.301 167.318V167.318ZM501.476 185.593L502.156 173.996L504.929 181.355L504.928 181.356L512.688 182.598L501.476 185.593ZM515.219 168.723L513.484 181.614L505.771 180.321L502.956 173.014L515.219 168.723Z" fill="#56AB2F"/>
<path d="M469.31 171.847H478.779" stroke="#38C8E8" stroke-width="2" stroke-linecap="round" stroke-linejoin="round"/>
<path d="M484.106 181.328H459.249" stroke="#38C8E8" stroke-width="2" stroke-linecap="round" stroke-linejoin="round"/>
<path d="M122.506 170.662H138.485" stroke="#38C8E8" stroke-width="2" stroke-linecap="round" stroke-linejoin="round"/>
<path d="M151.505 180.143H126.649" stroke="#38C8E8" stroke-width="2" stroke-linecap="round" stroke-linejoin="round"/>
<path fill-rule="evenodd" clip-rule="evenodd" d="M106.755 66.3108C102.716 59.4102 105.024 50.5035 111.93 46.4498V46.4498C118.836 42.3962 127.726 44.7307 131.766 51.6312V51.6312C135.805 58.5317 133.497 67.4385 126.591 71.4921V71.4921C119.684 75.5458 110.795 73.2113 106.755 66.3108V66.3108ZM125.335 59.5543L120.337 62.4879C120.485 61.7853 120.611 61.0782 120.715 60.3677C120.999 58.5793 121.271 56.7891 121.532 54.9972C121.553 54.8509 121.586 54.6987 121.619 54.5445C121.712 54.1085 121.808 53.6604 121.677 53.306C121.447 52.6614 121.071 52.0659 120.684 51.4533C120.524 51.203 120.369 50.95 120.217 50.6945L117.116 52.515L115.843 50.3417L113.357 51.8007L114.662 54.0291L111.816 55.6995L113.375 58.3615L118.168 55.548C118.11 55.8872 118.051 56.2049 117.995 56.5132C117.923 56.9055 117.855 57.2823 117.79 57.6682C117.507 59.4567 117.235 61.2469 116.974 63.0388C116.957 63.1981 116.924 63.367 116.891 63.5378C116.811 63.9504 116.728 64.3756 116.854 64.7151C117.085 65.3609 117.462 65.9579 117.844 66.5622C117.997 66.8055 118.151 67.0495 118.297 67.2988L121.374 65.4932L122.662 67.6946L125.251 66.1755C125.009 65.8177 124.77 65.458 124.533 65.0966C124.3 64.7418 124.066 64.387 123.818 64.0221L126.894 62.2169L125.335 59.5545L125.335 59.5543Z" fill="#56AB2F"/>
<path d="M133.159 78.22L139.077 84.1457" stroke="#38C8E8" stroke-width="2" stroke-linecap="round" stroke-linejoin="round"/>
<path d="M430.842 62.2204C430.842 44.2436 445.415 29.6288 463.392 29.6288V29.6288C481.369 29.6288 495.942 44.2436 495.942 62.2204V62.2204C495.942 80.1973 481.369 94.8121 463.392 94.8121V94.8121C445.415 94.8121 430.842 80.1973 430.842 62.2204V62.2204Z" fill="white"/>
<path fill-rule="evenodd" clip-rule="evenodd" d="M462.209 33.1842C445.539 33.1842 432.026 46.7362 432.026 63.4056C432.026 80.075 445.539 93.6269 462.209 93.6269C478.878 93.6269 492.391 80.075 492.391 63.4056C492.391 46.7362 478.878 33.1842 462.209 33.1842ZM469.234 52.158C473.351 53.5779 476.362 55.7065 475.77 59.6659C475.342 62.5644 473.737 63.9676 471.607 64.4595C474.532 65.9845 476.021 68.3232 474.603 72.3775C472.843 77.4128 468.662 77.8378 463.102 76.7842L461.752 82.199L458.492 81.3853L459.823 76.0431C458.978 75.833 458.115 75.6098 457.225 75.368L455.888 80.7353L452.632 79.9217L453.981 74.4967C453.677 74.4187 453.371 74.3388 453.062 74.2582L453.062 74.2581L453.061 74.258C452.598 74.1371 452.13 74.0149 451.656 73.896L447.413 72.8368L449.032 69.0996C449.032 69.0996 451.434 69.7394 451.402 69.692C452.325 69.9207 452.735 69.3182 452.896 68.9164L455.029 60.3568C455.109 60.3761 455.187 60.3958 455.263 60.4148L455.373 60.4424C455.243 60.3903 455.125 60.3568 455.034 60.3336L456.555 54.2233C456.595 53.5296 456.357 52.6546 455.036 52.3245C455.087 52.2901 452.668 51.7349 452.668 51.7349L453.535 48.2478L458.032 49.3721L458.028 49.3888C458.704 49.5571 459.401 49.7171 460.11 49.8789L461.447 44.5171L464.706 45.3308L463.396 50.5874C464.271 50.7874 465.151 50.9891 466.008 51.203L467.309 45.9808L470.569 46.7944L469.234 52.158ZM468.32 70.1263C467.396 73.8459 461.581 72.3081 458.92 71.6045L458.92 71.6045C458.681 71.5412 458.467 71.4847 458.285 71.4393L460.075 64.2522C460.297 64.3077 460.569 64.3687 460.876 64.4378C463.628 65.056 469.267 66.3231 468.32 70.1263ZM461.429 61.1025C463.647 61.6952 468.486 62.9881 469.329 59.6074C470.189 56.1494 465.487 55.107 463.19 54.598C462.932 54.5407 462.704 54.4902 462.517 54.4437L460.894 60.9622C461.047 61.0005 461.227 61.0486 461.429 61.1025Z" fill="#56AB2F"/>
<path fill-rule="evenodd" clip-rule="evenodd" d="M83.6559 161.552C76.0224 168.302 75.3038 179.975 82.0412 187.613C88.7785 195.252 100.436 195.981 108.07 189.23C115.703 182.48 116.422 170.807 109.684 163.168C102.947 155.53 91.2894 154.801 83.6559 161.552ZM94.5367 167.396C96.9956 166.379 99.2341 166.134 100.562 168.187C101.537 169.688 101.369 170.98 100.592 172.068C102.548 171.582 104.174 172.05 105.162 174.481C106.39 177.499 104.647 179.387 101.676 181.156L103.245 184.182L101.423 185.13L99.8749 182.144C99.403 182.39 98.9174 182.638 98.4123 182.887L99.9683 185.886L98.1482 186.833L96.5749 183.802C96.404 183.889 96.2314 183.977 96.0576 184.065L96.0574 184.065L96.0572 184.065C95.7963 184.197 95.5327 184.331 95.2678 184.468L92.8968 185.702L92.1286 183.335C92.1286 183.335 93.4872 182.655 93.4532 182.646C93.9683 182.377 93.9125 181.935 93.8242 181.686L91.3433 176.903C91.3875 176.879 91.4312 176.857 91.4733 176.835L91.4739 176.834L91.5356 176.802C91.455 176.831 91.3875 176.864 91.3364 176.89L89.565 173.476C89.3031 173.142 88.8404 172.838 88.1023 173.221C88.1118 173.185 86.7797 173.91 86.7797 173.91L85.7684 171.962L88.2817 170.656L88.2868 170.665C88.6644 170.469 89.0479 170.26 89.4382 170.047L87.8845 167.05L89.7054 166.103L91.229 169.04C91.7104 168.778 92.1951 168.514 92.674 168.264L91.16 165.346L92.9819 164.399L94.5367 167.396ZM101.376 175.994C102.455 178.072 99.1709 179.722 97.6683 180.477L97.6682 180.477C97.5331 180.545 97.4123 180.606 97.3105 180.659L95.2275 176.643C95.3516 176.578 95.5006 176.496 95.6693 176.403C97.1791 175.572 100.273 173.869 101.376 175.994ZM94.5754 174.652C95.8306 174.025 98.5686 172.658 97.589 170.769C96.5864 168.837 94.0119 170.264 92.7545 170.96C92.6131 171.039 92.4883 171.108 92.3843 171.162L94.2738 174.805C94.3595 174.76 94.4613 174.709 94.5754 174.652Z" fill="#56AB2F"/>
<path d="M197.667 328.879L216.013 310.51" stroke="#38C8E8" stroke-width="2" stroke-linecap="round" stroke-linejoin="round"/>
<path d="M209.503 330.657L234.951 305.176" stroke="#38C8E8" stroke-width="2" stroke-linecap="round" stroke-linejoin="round"/>
<path d="M417.822 106.071L431.434 92.4418" stroke="#38C8E8" stroke-width="2" stroke-linecap="round" stroke-linejoin="round"/>
<path d="M440.903 95.9973L418.414 118.515" stroke="#38C8E8" stroke-width="2" stroke-linecap="round" stroke-linejoin="round"/>
<path d="M136.118 70.5165L149.138 83.5531" stroke="#38C8E8" stroke-width="2" stroke-linecap="round" stroke-linejoin="round"/>
<path d="M450.964 311.695L459.249 319.991" stroke="#38C8E8" stroke-width="2" stroke-linecap="round" stroke-linejoin="round"/>
<path d="M435.577 308.732L455.699 328.879" stroke="#38C8E8" stroke-width="2" stroke-linecap="round" stroke-linejoin="round"/>
<path d="M519.023 291.547L523.758 296.288" stroke="#38C8E8" stroke-width="2" stroke-linecap="round" stroke-linejoin="round"/>
<path d="M507.187 290.362L515.472 298.658" stroke="#38C8E8" stroke-width="2" stroke-linecap="round" stroke-linejoin="round"/>
<path d="M248.407 153.002L256.682 168.421L265.246 153.306L264.951 169.673L256.611 175.031L248.111 169.369L248.407 153.002Z" fill="white"/>
<path d="M271.698 160.332C273.365 160.35 274.64 160.764 275.525 161.573C276.41 162.37 276.844 163.568 276.826 165.167L276.761 171.307L273.841 171.276L273.855 169.936C273.258 170.929 272.159 171.418 270.559 171.401C269.733 171.392 269.014 171.244 268.404 170.957C267.807 170.671 267.351 170.279 267.036 169.783C266.722 169.286 266.568 168.724 266.574 168.098C266.585 167.098 266.967 166.315 267.72 165.75C268.486 165.185 269.656 164.91 271.229 164.927L273.709 164.954C273.716 164.274 273.515 163.752 273.105 163.387C272.696 163.01 272.078 162.816 271.252 162.807C270.678 162.801 270.111 162.889 269.549 163.069C269 163.237 268.531 163.472 268.141 163.774L267.044 161.582C267.635 161.175 268.339 160.863 269.155 160.645C269.984 160.427 270.831 160.323 271.698 160.332ZM271.362 169.309C271.895 169.315 272.37 169.2 272.785 168.964C273.202 168.715 273.499 168.352 273.677 167.874L273.689 166.774L271.549 166.751C270.269 166.737 269.625 167.15 269.616 167.99C269.611 168.39 269.761 168.712 270.065 168.955C270.383 169.185 270.815 169.303 271.362 169.309ZM283.202 171.536C282.309 171.527 281.437 171.411 280.586 171.188C279.735 170.952 279.058 170.665 278.555 170.326L279.619 168.098C280.096 168.409 280.673 168.669 281.351 168.876C282.029 169.07 282.694 169.171 283.348 169.178C284.667 169.192 285.331 168.872 285.338 168.219C285.341 167.912 285.164 167.69 284.805 167.553C284.447 167.416 283.894 167.297 283.149 167.195C282.27 167.053 281.545 166.892 280.974 166.712C280.402 166.533 279.906 166.221 279.484 165.776C279.075 165.332 278.875 164.703 278.884 163.889C278.891 163.21 279.091 162.612 279.483 162.096C279.889 161.567 280.467 161.16 281.217 160.874C281.98 160.589 282.875 160.452 283.901 160.463C284.661 160.471 285.413 160.566 286.158 160.747C286.916 160.916 287.541 161.149 288.031 161.448L286.967 163.656C286.026 163.113 284.996 162.835 283.876 162.823C283.209 162.816 282.708 162.904 282.373 163.087C282.038 163.27 281.868 163.508 281.865 163.801C281.862 164.135 282.039 164.37 282.398 164.507C282.756 164.644 283.328 164.777 284.113 164.906C284.992 165.062 285.71 165.23 286.268 165.409C286.826 165.575 287.31 165.88 287.718 166.324C288.127 166.769 288.327 167.384 288.319 168.171C288.311 168.838 288.105 169.429 287.7 169.944C287.294 170.46 286.703 170.861 285.927 171.146C285.164 171.417 284.256 171.548 283.202 171.536ZM297.154 171.006C296.845 171.229 296.463 171.399 296.008 171.514C295.567 171.616 295.1 171.664 294.607 171.659C293.327 171.645 292.337 171.308 291.637 170.647C290.951 169.986 290.615 169.022 290.628 167.756L290.676 163.336L289.016 163.318L289.042 160.918L290.701 160.936L290.73 158.316L293.849 158.35L293.821 160.97L296.501 160.998L296.475 163.398L293.796 163.37L293.748 167.749C293.744 168.203 293.853 168.557 294.077 168.813C294.315 169.055 294.647 169.179 295.073 169.184C295.566 169.189 295.988 169.06 296.337 168.797L297.154 171.006ZM309.164 166.315C309.164 166.355 309.141 166.634 309.095 167.154L300.956 167.067C301.095 167.735 301.436 168.265 301.979 168.658C302.521 169.05 303.199 169.251 304.012 169.26C304.572 169.266 305.066 169.191 305.495 169.035C305.937 168.867 306.346 168.605 306.723 168.249L308.364 170.066C307.338 171.215 305.852 171.779 303.905 171.759C302.692 171.746 301.621 171.501 300.693 171.024C299.765 170.534 299.052 169.866 298.554 169.021C298.057 168.176 297.814 167.22 297.825 166.153C297.837 165.1 298.093 164.156 298.596 163.321C299.111 162.473 299.805 161.821 300.677 161.363C301.562 160.893 302.544 160.663 303.624 160.675C304.678 160.686 305.629 160.923 306.477 161.386C307.325 161.848 307.985 162.509 308.456 163.367C308.94 164.212 309.176 165.195 309.164 166.315ZM303.619 163.035C302.912 163.027 302.317 163.221 301.833 163.616C301.348 164.011 301.049 164.554 300.935 165.246L306.235 165.303C306.135 164.622 305.848 164.079 305.372 163.674C304.897 163.255 304.312 163.042 303.619 163.035ZM318.101 171.991C316.674 171.976 315.384 171.655 314.231 171.029C313.091 170.39 312.194 169.521 311.539 168.42C310.897 167.307 310.584 166.057 310.599 164.67C310.614 163.283 310.954 162.047 311.619 160.961C312.297 159.861 313.213 159.011 314.367 158.41C315.533 157.796 316.836 157.497 318.276 157.512C319.49 157.525 320.581 157.75 321.549 158.187C322.531 158.624 323.351 159.247 324.009 160.054L321.909 161.951C320.974 160.848 319.807 160.289 318.407 160.274C317.54 160.264 316.765 160.449 316.081 160.829C315.397 161.195 314.858 161.716 314.464 162.391C314.083 163.067 313.888 163.839 313.879 164.705C313.87 165.572 314.048 166.347 314.414 167.031C314.793 167.715 315.321 168.254 315.997 168.648C316.673 169.029 317.444 169.224 318.311 169.233C319.71 169.248 320.89 168.707 321.848 167.611L323.907 169.553C323.232 170.359 322.399 170.97 321.408 171.386C320.416 171.803 319.314 172.004 318.101 171.991ZM330.598 172.045C329.465 172.033 328.447 171.789 327.546 171.312C326.658 170.823 325.965 170.155 325.467 169.31C324.969 168.465 324.726 167.509 324.738 166.442C324.749 165.375 325.013 164.425 325.528 163.59C326.044 162.756 326.751 162.11 327.649 161.653C328.561 161.183 329.584 160.954 330.717 160.966C331.85 160.978 332.861 161.229 333.749 161.718C334.637 162.195 335.33 162.855 335.828 163.701C336.325 164.546 336.569 165.502 336.557 166.569C336.546 167.635 336.282 168.586 335.766 169.421C335.251 170.255 334.544 170.907 333.645 171.378C332.747 171.835 331.731 172.057 330.598 172.045ZM330.625 169.485C331.425 169.494 332.082 169.234 332.594 168.706C333.12 168.165 333.388 167.442 333.397 166.535C333.407 165.628 333.155 164.906 332.64 164.367C332.14 163.815 331.489 163.534 330.689 163.526C329.889 163.517 329.227 163.783 328.701 164.324C328.175 164.852 327.907 165.569 327.898 166.476C327.888 167.382 328.14 168.112 328.654 168.664C329.168 169.203 329.825 169.477 330.625 169.485ZM338.7 161.212L341.82 161.245L341.704 172.004L338.585 171.971L338.7 161.212ZM340.276 159.728C339.703 159.722 339.238 159.551 338.882 159.213C338.525 158.876 338.35 158.461 338.355 157.968C338.36 157.474 338.545 157.063 338.908 156.734C339.272 156.404 339.74 156.242 340.314 156.249C340.887 156.255 341.352 156.42 341.708 156.744C342.065 157.067 342.241 157.469 342.235 157.949C342.23 158.469 342.045 158.901 341.681 159.243C341.318 159.573 340.849 159.735 340.276 159.728ZM351.257 161.186C352.59 161.201 353.659 161.612 354.464 162.421C355.282 163.23 355.682 164.421 355.665 165.994L355.599 172.154L352.479 172.12L352.54 166.44C352.55 165.587 352.37 164.952 352.001 164.535C351.632 164.104 351.094 163.885 350.388 163.877C349.601 163.869 348.972 164.109 348.5 164.597C348.028 165.072 347.787 165.789 347.777 166.749L347.72 172.069L344.6 172.035L344.715 161.276L347.695 161.308L347.682 162.568C348.1 162.119 348.617 161.778 349.233 161.545C349.849 161.298 350.524 161.178 351.257 161.186Z" fill="white"/>
<circle cx="92.5" cy="175.5" r="23.5" fill="#2AD2BE"/>
<path d="M79.5907 160.93L92.8179 184.955L105.986 161.123L105.798 186.778L92.8179 195.316L79.4031 186.585L79.5907 160.93Z" fill="#F3FCFB"/>
<circle cx="92.5" cy="175.5" r="23.5" fill="#2AD2BE"/>
<path d="M79.5907 160.93L92.8179 184.955L105.986 161.123L105.798 186.778L92.8179 195.316L79.4031 186.585L79.5907 160.93Z" fill="#F3FCFB"/>
<circle cx="175.5" cy="360.5" r="28.5" fill="#2AD2BE"/>
<path d="M159.844 342.83L175.885 371.967L191.855 343.064L191.628 374.178L175.885 384.532L159.617 373.944L159.844 342.83Z" fill="#F3FCFB"/>
<circle cx="465" cy="64" r="34" fill="#2AD2BE"/>
<path d="M446.323 42.92L465.46 77.6798L484.511 43.1993L484.24 80.3173L465.46 92.6702L446.051 80.0381L446.323 42.92Z" fill="#F3FCFB"/>
<circle cx="512.5" cy="173.5" r="23.5" fill="#2AD2BE"/>
<path d="M499.591 158.93L512.818 182.955L525.986 159.123L525.798 184.778L512.818 193.316L499.403 184.585L499.591 158.93Z" fill="#F3FCFB"/>
<circle cx="531.5" cy="316.5" r="15.5" fill="#2AD2BE"/>
<path d="M522.985 306.89L531.71 322.736L540.395 307.017L540.271 323.939L531.71 329.57L522.862 323.811L522.985 306.89Z" fill="#F3FCFB"/>
<circle cx="474.5" cy="344.5" r="21.5" fill="#2AD2BE"/>
<path d="M462.689 331.17L474.791 353.15L486.838 331.347L486.666 354.818L474.791 362.63L462.518 354.642L462.689 331.17Z" fill="#F3FCFB"/>
<circle cx="119.5" cy="56.5" r="21.5" fill="#2AD2BE"/>
<path d="M107.689 43.17L119.791 65.1505L131.838 43.3467L131.666 66.8183L119.791 74.6297L107.518 66.6417L107.689 43.17Z" fill="#F3FCFB"/>
<path d="M291.765 180.082L287.773 192.753L285.883 192.786L282.271 182.785L279.008 192.905L277.082 192.939L272.652 180.414L274.506 180.381L278.085 190.563L281.453 180.261L283.109 180.232L286.761 190.466L290.056 180.111L291.765 180.082ZM296.519 182.97C297.839 182.947 298.853 183.253 299.56 183.889C300.279 184.525 300.65 185.484 300.672 186.768L300.772 192.527L299.134 192.556L299.112 191.296C298.832 191.745 298.424 192.094 297.888 192.343C297.364 192.58 296.737 192.705 296.005 192.718C294.937 192.737 294.074 192.494 293.418 191.989C292.773 191.484 292.443 190.812 292.428 189.972C292.414 189.132 292.708 188.455 293.311 187.94C293.914 187.414 294.882 187.139 296.213 187.116L298.949 187.068L298.943 186.726C298.93 185.982 298.704 185.416 298.265 185.028C297.827 184.639 297.187 184.452 296.347 184.467C295.784 184.477 295.233 184.582 294.697 184.784C294.16 184.973 293.708 185.227 293.342 185.545L292.599 184.262C293.084 183.857 293.667 183.547 294.347 183.331C295.028 183.104 295.752 182.983 296.519 182.97ZM296.269 191.381C296.929 191.37 297.497 191.216 297.972 190.92C298.446 190.611 298.787 190.185 298.994 189.642L298.971 188.31L296.307 188.356C294.843 188.382 294.12 188.886 294.137 189.87C294.145 190.35 294.338 190.725 294.715 190.994C295.091 191.264 295.61 191.393 296.269 191.381ZM303.738 179.118L305.465 179.088L305.697 192.442L303.969 192.472L303.738 179.118ZM308.764 179.03L310.492 179L310.724 192.354L308.996 192.384L308.764 179.03ZM322.561 187.432C322.564 187.564 322.555 187.738 322.534 187.955L314.796 188.089C314.918 188.927 315.296 189.599 315.929 190.104C316.573 190.597 317.364 190.835 318.3 190.819C319.439 190.799 320.351 190.399 321.033 189.619L322.006 190.718C321.583 191.23 321.05 191.623 320.407 191.898C319.775 192.173 319.064 192.318 318.272 192.331C317.264 192.349 316.367 192.16 315.58 191.766C314.792 191.36 314.176 190.788 313.732 190.052C313.299 189.315 313.074 188.479 313.058 187.543C313.042 186.619 313.231 185.782 313.626 185.031C314.033 184.28 314.593 183.694 315.306 183.274C316.031 182.841 316.849 182.617 317.761 182.601C318.673 182.585 319.486 182.781 320.201 183.189C320.928 183.584 321.496 184.15 321.905 184.887C322.326 185.624 322.545 186.472 322.561 187.432ZM317.786 184.059C316.958 184.073 316.267 184.337 315.712 184.851C315.168 185.364 314.856 186.03 314.774 186.847L320.893 186.741C320.783 185.939 320.442 185.291 319.869 184.797C319.308 184.29 318.614 184.044 317.786 184.059ZM330.396 191.455C330.148 191.675 329.839 191.849 329.469 191.975C329.099 192.089 328.716 192.15 328.32 192.157C327.36 192.174 326.612 191.929 326.075 191.422C325.538 190.915 325.261 190.182 325.244 189.222L325.153 183.985L323.534 184.013L323.509 182.591L325.129 182.563L325.092 180.475L326.82 180.445L326.856 182.533L329.592 182.485L329.617 183.907L326.881 183.955L326.971 189.12C326.98 189.636 327.113 190.03 327.369 190.301C327.638 190.573 328.012 190.704 328.492 190.696C329.02 190.687 329.468 190.529 329.834 190.222L330.396 191.455Z" fill="white"/>
<defs>
<linearGradient id="paint0_linear" x1="256.657" y1="79.5963" x2="194.009" y2="-8.22015" gradientUnits="userSpaceOnUse">
<stop stop-color="#38C8E8"/>
<stop offset="1" stop-color="#38C8E8" stop-opacity="0"/>
</linearGradient>
<linearGradient id="paint1_linear" x1="88.1806" y1="101.923" x2="76.3443" y2="101.923" gradientUnits="userSpaceOnUse">
<stop stop-color="#EEEEFF"/>
<stop offset="1" stop-color="#EEEEFF" stop-opacity="0"/>
</linearGradient>
<linearGradient id="paint2_linear" x1="450.372" y1="125.626" x2="438.536" y2="125.626" gradientUnits="userSpaceOnUse">
<stop stop-color="#EEEEFF"/>
<stop offset="1" stop-color="#EEEEFF" stop-opacity="0"/>
</linearGradient>
<linearGradient id="paint3_linear" x1="536.777" y1="74.6645" x2="524.941" y2="74.6645" gradientUnits="userSpaceOnUse">
<stop stop-color="#EEEEFF"/>
<stop offset="1" stop-color="#EEEEFF" stop-opacity="0"/>
</linearGradient>
<linearGradient id="paint4_linear" x1="162.749" y1="304.584" x2="150.913" y2="304.584" gradientUnits="userSpaceOnUse">
<stop stop-color="#EEEEFF"/>
<stop offset="1" stop-color="#EEEEFF" stop-opacity="0"/>
</linearGradient>
<linearGradient id="paint5_linear" x1="425.323" y1="263.132" x2="129.425" y2="230.154" gradientUnits="userSpaceOnUse">
<stop/>
<stop offset="1" stop-opacity="0"/>
</linearGradient>
<linearGradient id="paint6_linear" x1="383.716" y1="212.463" x2="350.255" y2="209.466" gradientUnits="userSpaceOnUse">
<stop stop-color="#DADAFF"/>
<stop offset="1" stop-color="#EEEEFF" stop-opacity="0"/>
</linearGradient>
<linearGradient id="paint7_linear" x1="356.882" y1="69.7198" x2="186.679" y2="53.7938" gradientUnits="userSpaceOnUse">
<stop stop-color="#30C1B0"/>
<stop offset="1" stop-color="#EEEEFF" stop-opacity="0"/>
</linearGradient>
<linearGradient id="paint8_linear" x1="425.773" y1="237.881" x2="417.393" y2="229.511" gradientUnits="userSpaceOnUse">
<stop stop-color="#EEEEFF"/>
<stop offset="1" stop-color="#EEEEFF" stop-opacity="0"/>
</linearGradient>
<linearGradient id="paint9_linear" x1="347.615" y1="352.782" x2="-89.2879" y2="295.497" gradientUnits="userSpaceOnUse">
<stop stop-color="#30C1B0"/>
<stop offset="1" stop-color="#EEEEFF" stop-opacity="0"/>
</linearGradient>
<linearGradient id="paint10_linear" x1="416.948" y1="401.585" x2="344.887" y2="285.267" gradientUnits="userSpaceOnUse">
<stop stop-color="#38C8E8"/>
<stop offset="1" stop-color="#38C8E8" stop-opacity="0"/>
</linearGradient>
<linearGradient id="paint11_linear" x1="597.414" y1="234.803" x2="457.071" y2="220.339" gradientUnits="userSpaceOnUse">
<stop stop-color="#30C1B0"/>
<stop offset="1" stop-color="#EEEEFF" stop-opacity="0"/>
</linearGradient>
</defs>
</svg>
