<svg width="269" height="495" viewBox="0 0 269 495" fill="none" xmlns="http://www.w3.org/2000/svg">
<path d="M269 127.299V128.061C268.983 129.974 268.928 131.879 268.835 133.776C267.184 166.232 253.183 196.828 229.7 219.293C206.217 241.759 175.032 254.392 142.534 254.605C110.037 254.817 78.6886 242.593 54.914 220.437C31.1393 198.28 16.7388 167.87 14.6634 135.439C14.4902 132.745 14.4036 130.032 14.4036 127.298C14.3579 100.933 22.5407 75.2101 37.8109 53.7167C39.0319 51.9847 40.302 50.2845 41.6212 48.6161C42.5304 47.4557 43.4657 46.3213 44.4096 45.1955C65.8987 19.738 96.5097 3.71699 129.675 0.569769C162.841 -2.57746 195.919 7.3998 221.813 28.361C223.346 29.5993 224.853 30.881 226.325 32.1886C227.502 33.2364 228.66 34.3074 229.797 35.4014C252.196 56.8267 265.983 85.7062 268.558 116.595C268.853 120.128 269 123.696 269 127.299Z" fill="#2AD2BE"/>
<path d="M41.6212 48.6161C41.6836 48.6423 41.7419 48.6773 41.7944 48.7201C42.4785 49.2829 41.6212 50.3654 41.7251 51.2574C41.8463 52.4004 43.3704 52.6516 44.5222 52.7642C45.6739 52.8854 47.1288 53.812 46.5832 54.8338C43.6909 55.8297 40.7639 54.8512 37.8109 53.7167C22.5406 75.2102 14.358 100.933 14.4036 127.299C14.4036 130.035 14.4902 132.748 14.6634 135.439C14.9055 135.615 15.1707 135.758 15.4515 135.863C16.3174 136.192 17.322 136.131 18.1187 136.599C18.7508 136.971 19.1751 137.63 19.8073 137.976C21.6172 138.963 24.1285 137.067 25.8172 138.244C26.2536 138.642 26.6671 139.064 27.0555 139.509C28.6142 140.86 31.1775 139.95 32.9787 140.964C34.1391 141.613 34.7367 142.912 35.3602 144.09C36.9103 147.034 39.4216 149.926 42.7383 150.16C43.7843 150.112 44.8325 150.147 45.8731 150.264C46.8949 150.498 47.8995 151.39 47.735 152.42C47.4492 154.196 48.3238 156.135 48.09 157.911C47.6657 161.158 43.0673 162.578 42.6776 165.826C42.6764 166.54 42.6359 167.254 42.5564 167.965C42.3486 168.813 41.7078 169.506 41.4826 170.355C41.0496 171.957 42.2014 173.559 43.457 174.633C44.7214 175.715 46.2282 176.65 46.921 178.157C47.6484 179.759 47.2933 181.621 47.5271 183.362C48.0467 187.163 51.3287 189.978 54.706 191.796C55.7883 192.249 56.7493 192.949 57.5118 193.84C58.3778 195.096 58.2912 196.75 58.5856 198.248C59.2957 201.911 62.3785 204.933 62.4651 208.665C62.5258 211.324 61.0536 213.731 60.1703 216.234C59.2617 218.858 58.9915 221.66 59.3823 224.409C64.3199 228.597 69.5684 232.403 75.0824 235.796C75.3823 235.353 75.6022 234.861 75.7319 234.342C75.8366 233.767 75.7644 233.175 75.5246 232.643C75.2849 232.111 74.8891 231.664 74.3896 231.363C75.3203 231.011 76.167 230.468 76.875 229.769C77.2228 229.411 77.4526 228.956 77.5331 228.463C77.6136 227.971 77.5411 227.465 77.3253 227.015C78.8494 227.206 80.6593 227.301 81.6638 226.132C82.4692 225.197 82.4172 223.794 82.0968 222.608C81.7764 221.413 81.2395 220.261 81.2308 219.022C84.762 219.194 88.3013 219.076 91.813 218.667C91.3049 216.955 90.1494 215.507 88.5916 214.632C90.185 214.364 91.6312 212.458 92.1335 210.926C92.5678 209.362 92.5917 207.712 92.2028 206.137C92.0823 205.732 92.0644 205.303 92.1508 204.89C92.407 204.341 92.8573 203.906 93.4151 203.669C96.0477 202.153 98.6802 200.641 101.313 199.131C101.783 198.894 102.21 198.581 102.577 198.204C103.4 197.226 103.279 195.762 102.854 194.559C102.43 193.355 101.754 192.221 101.59 190.956C101.105 187.172 105.158 184.453 106.526 180.885C106.991 179.461 107.242 177.975 107.271 176.477C107.383 174.866 107.392 173.005 106.162 171.974C104.976 170.978 103.131 171.203 101.893 170.277C100.759 169.428 100.369 167.791 99.1305 167.107C98.0048 166.484 96.6019 166.882 95.3462 166.588C93.1466 166.077 91.7611 163.54 89.5095 163.306C88.2452 163.167 86.8077 163.791 85.7685 163.055C84.8506 162.396 84.816 161.089 84.6428 159.98C84.3353 158.254 83.5066 156.663 82.2681 155.421C81.0296 154.18 79.4407 153.347 77.715 153.035C76.4074 152.827 74.9872 152.905 73.8701 152.187C72.7443 151.459 72.2334 150.1 71.3414 149.086C69.9212 147.467 67.6697 146.887 65.5654 146.393C62.7076 145.726 59.8528 145.057 57.0009 144.384C55.4854 144.02 53.5283 143.83 52.7056 145.164C52.4622 145.671 52.293 146.21 52.2034 146.766C51.8941 147.765 51.2772 148.641 50.4406 149.27C49.604 149.898 48.5905 150.246 47.5445 150.264C46.8283 149.041 45.6683 148.142 44.3057 147.753C43.4154 147.603 42.5359 147.395 41.6732 147.129C41.2226 146.909 40.8217 146.598 40.4952 146.217C40.1687 145.836 39.9234 145.393 39.7742 144.914C39.6251 144.434 39.5753 143.93 39.6278 143.431C39.6803 142.932 39.8341 142.449 40.0797 142.011C40.5708 141.133 40.7597 140.117 40.6173 139.12C40.4749 138.124 40.0092 137.201 39.2917 136.495C37.8369 135.188 35.7325 134.867 33.7754 134.997C33.2645 133.88 34.1219 132.624 35.0398 131.81C35.9664 131.005 37.0835 130.208 37.2827 128.996C37.6031 127.091 35.1697 125.644 33.3252 126.207C31.4806 126.779 30.3029 128.572 29.5235 130.338C29.1455 131.38 28.6301 132.368 27.9908 133.274C27.6632 133.722 27.218 134.071 26.7045 134.282C26.191 134.493 25.6291 134.557 25.0811 134.469C23.557 134.079 22.9768 132.269 22.639 130.745C22.0979 128.708 21.8242 126.609 21.825 124.501C21.8383 122.373 22.6836 120.334 24.1805 118.821C26.7005 116.5 30.58 116.725 33.9833 117.097C33.6187 116.611 33.444 116.009 33.4919 115.403C33.5397 114.797 33.8068 114.23 34.2431 113.807C34.6985 113.402 35.2458 113.115 35.8374 112.97C36.4289 112.825 37.0469 112.827 37.6377 112.975C38.6637 113.188 39.5882 113.74 40.2616 114.543C41.2315 115.72 41.5086 117.323 42.236 118.656C42.9721 119.998 44.6174 121.141 45.9597 120.423C47.1288 119.799 47.3106 118.188 47.0248 116.898C46.7304 115.617 46.1156 114.361 46.2195 113.045C46.4187 110.542 49.0253 109.026 51.3201 107.996C53.6149 106.965 56.2388 105.571 56.6025 103.077C56.6193 102.592 56.7129 102.113 56.8796 101.657C57.1336 101.25 57.4886 100.916 57.9101 100.687C64.6041 96.2621 71.4193 91.7763 79.0745 89.3602C79.4729 89.2304 79.5162 89.3689 79.9232 89.2736C80.4947 88.9446 80.1137 88.0353 79.5681 87.6716C79.0225 87.3079 78.2952 87.0221 78.1566 86.3813C78.0613 85.9137 78.3384 85.446 78.4077 84.9698C78.4258 84.6821 78.3731 84.3943 78.2542 84.1318C78.1352 83.8692 77.9536 83.6398 77.7254 83.4638C77.4972 83.2877 77.2293 83.1703 76.9451 83.1218C76.661 83.0734 76.3693 83.0954 76.0956 83.1859C75.4808 82.3718 76.6931 81.4279 77.6803 81.1508C80.6362 80.3411 83.6697 79.8476 86.7297 79.6787C87.0829 79.6203 87.4455 79.6813 87.7602 79.8519C87.9853 80.069 88.1187 80.364 88.1332 80.6764C88.1477 80.9887 88.0422 81.2948 87.8382 81.5318C87.4216 81.9946 86.9603 82.4152 86.4613 82.7875C85.9644 83.2701 85.6097 83.8798 85.4356 84.5501C85.2615 85.2205 85.2748 85.9258 85.4741 86.5891C87.0762 87.4031 88.8081 88.2431 90.5833 87.9574C92.3499 87.6716 93.9173 85.6799 93.086 84.0951C92.3153 82.6143 89.9858 82.2766 89.5875 80.6572C89.1198 78.7607 91.8043 77.0721 91.1981 75.2189C90.9383 74.4049 90.1243 73.9199 89.5008 73.3397C88.7671 72.6173 88.268 71.6905 88.0688 70.6803C87.8695 69.67 87.9792 68.6232 88.3837 67.6762C87.3699 67.8534 86.3285 67.7854 85.3463 67.4781C84.3641 67.1708 83.4696 66.633 82.7376 65.9097C81.3867 64.5501 80.3129 62.3938 78.3904 62.4631C76.6325 62.515 75.117 64.5674 73.4716 63.9439C73.0646 63.788 72.6403 63.4763 72.2506 63.6581C72.1221 63.7408 72.014 63.8515 71.9345 63.982C71.855 64.1125 71.8062 64.2594 71.7917 64.4115C71.376 66.4119 72.0948 68.6894 71.0036 70.4214C69.8173 72.3005 67.0721 72.5603 65.6346 74.2576C64.8552 75.1756 64.5521 76.4139 63.8334 77.3838C63.1146 78.3537 61.5992 78.9772 60.7332 78.1285C61.1573 77.2592 61.2734 76.2715 61.0626 75.3275C60.8517 74.3834 60.3265 73.5391 59.5728 72.9327C58.7752 72.4092 57.9137 71.9901 57.0095 71.6857C55.9994 71.2594 55.0384 70.7252 54.1431 70.0923C53.697 69.8206 53.3344 69.431 53.0953 68.9666C52.9061 68.3825 52.9307 67.7503 53.1646 67.1827C53.603 65.932 54.3741 64.8244 55.3948 63.9792C56.4156 63.1339 57.6475 62.5828 58.958 62.3852C60.101 62.2293 61.4346 62.2813 62.1967 61.4066C62.595 60.9477 62.8029 60.2462 63.3917 60.0644C63.7627 59.9869 64.1488 60.0325 64.4915 60.1943C65.9204 60.6966 67.3406 61.1988 68.7695 61.7011C69.2459 61.9196 69.7722 62.0063 70.2936 61.9522C70.5519 61.9189 70.7879 61.7885 70.9536 61.5874C71.1193 61.3863 71.2022 61.1297 71.1855 60.8698C71.0469 60.1597 69.9558 59.8219 70.0597 59.1032C70.1102 58.8683 70.2347 58.6559 70.4148 58.497C71.9593 56.8542 73.8478 55.573 75.9452 54.7451C78.0425 53.9173 80.2969 53.5631 82.5471 53.7081C83.084 54.6001 82.2353 55.6479 81.5166 56.4013C80.8065 57.1634 80.235 58.5143 81.1009 59.0945C81.4503 59.2777 81.8411 59.3672 82.2354 59.3543C83.2884 59.4955 84.3118 59.8055 85.2663 60.2722C86.7471 60.913 88.2019 61.6231 89.6221 62.3852C89.4131 61.4567 89.4488 60.4899 89.726 59.5794C89.8825 59.1325 90.1998 58.7599 90.616 58.5342C91.0323 58.3084 91.5177 58.2458 91.9776 58.3584C92.8262 58.6875 93.2592 59.8132 94.1685 59.9172C95.3722 60.0557 95.8485 58.2718 95.3462 57.1634C94.8439 56.0549 93.8394 55.137 93.7615 53.916C93.7008 53.102 94.0126 52.0888 93.3631 51.5952C93.1322 51.4422 92.8678 51.3471 92.5924 51.318C87.1541 50.3222 81.7129 49.3234 76.2688 48.3218C75.2989 48.1399 73.9047 48.2785 73.8614 49.257C73.8354 49.8112 74.329 50.3568 74.1125 50.8591C73.8787 51.396 73.1167 51.3527 72.5624 51.5432C72.146 51.7321 71.8024 52.0515 71.5837 52.453C71.365 52.8546 71.2829 53.3164 71.35 53.7687C71.4981 54.6692 71.8474 55.5247 72.3719 56.2714C71.3067 55.8298 69.7047 55.7518 68.6395 55.3015C68.4846 54.0682 68.1702 52.8601 67.7043 51.7077C67.6776 51.5243 67.6112 51.349 67.5095 51.194C67.4078 51.0391 67.2734 50.9083 67.1157 50.8109C66.958 50.7135 66.7809 50.6518 66.5968 50.6302C66.4128 50.6086 66.2262 50.6276 66.0503 50.6859C64.6474 50.9024 63.2445 51.1102 61.8416 51.3267C61.4893 51.3434 61.152 51.4741 60.8804 51.6991C60.3349 52.2793 60.8717 53.2059 60.8544 54.0026C60.8037 54.448 60.6155 54.8667 60.316 55.2003C60.0165 55.534 59.6205 55.7661 59.1831 55.8644C58.3017 56.0434 57.3923 56.0315 56.5159 55.8298C54.5501 55.5267 52.593 55.2236 50.6273 54.9205C52.3624 54.3676 53.9056 53.3348 55.0784 51.9415C55.8578 51.0236 56.2734 49.309 55.1477 48.876C54.8152 48.7847 54.4683 48.7582 54.1258 48.7981C51.4586 48.8154 49.3543 46.5898 46.8603 45.6459C46.0761 45.3534 45.2466 45.201 44.4096 45.1956L41.6212 48.6161Z" fill="white" fill-opacity="0.7"/>
<path d="M268.835 133.776C268.53 134.186 268.129 134.515 267.667 134.734C267.205 134.953 266.696 135.055 266.185 135.032C263.475 134.798 262.332 130.892 259.647 130.451C259.41 130.39 259.159 130.414 258.937 130.52C258.539 130.736 258.47 131.273 258.444 131.724C258.331 133.958 258.236 136.279 259.11 138.34C260.383 141.353 263.683 143.882 262.99 147.077C259.266 145.354 257.327 141.171 256.452 137.162C255.569 133.153 255.43 128.944 253.854 125.151C252.65 126.684 250.139 125.419 249.048 123.809C248.009 122.285 247.368 120.518 246.363 118.968C245.359 117.426 243.817 116.041 241.981 115.954C240.05 115.868 238.37 117.193 236.898 118.448C235.618 119.394 234.542 120.59 233.737 121.964C232.707 124.042 232.975 126.485 232.923 128.797C232.871 131.291 232.343 133.932 230.637 135.768C228.931 137.595 225.788 138.236 223.909 136.582C223 135.635 222.353 134.468 222.029 133.196C219.986 127.242 218.286 121.176 216.937 115.028C216.626 116.431 215.387 118.241 214.21 117.418C213.946 117.194 213.734 116.916 213.586 116.604C211.387 112.889 207.325 110.655 203.212 109.312C199.107 107.979 194.786 107.355 190.724 105.883C188.447 105.056 186.271 103.972 184.238 102.653C183.722 103.413 183.421 104.299 183.366 105.217C183.311 106.134 183.505 107.05 183.927 107.866C184.383 108.665 185.091 109.291 185.939 109.646C186.788 110.002 187.731 110.067 188.62 109.832C189.521 109.537 190.283 108.914 191.175 108.602C192.067 108.299 193.27 108.446 193.66 109.312C194.041 110.135 193.47 111.131 193.755 111.997C194.18 113.304 196.163 113.408 196.856 114.603C197.059 115.077 197.106 115.603 196.989 116.104C196.872 116.606 196.598 117.057 196.206 117.392C195.409 118.042 194.53 118.583 193.591 119.003C190.681 120.622 188.612 123.384 186.066 125.532C183.52 127.688 179.926 129.256 176.895 127.879C177.614 124.216 173.258 121.531 172.452 117.885C172.184 116.682 172.323 115.409 171.95 114.24C171.405 112.542 169.898 111.382 168.668 110.1C167.174 108.527 166.01 106.671 165.244 104.641C164.478 102.611 164.126 100.448 164.208 98.2798C164.278 96.773 164.555 95.2402 164.208 93.7681C163.871 92.3046 162.65 90.8844 161.143 90.945C157.705 91.1009 153.366 91.3607 151.565 88.425C150.916 87.3772 150.639 85.8444 151.574 85.0391C152.232 84.4762 153.202 84.5282 154.059 84.6148C156.648 84.8659 159.229 85.1257 161.818 85.3768C163.628 85.55 165.585 85.6972 167.144 84.7533C168.703 83.8094 169.378 81.2894 167.932 80.1723C166.884 79.3583 164.996 79.4016 164.685 78.1113C164.433 77.0288 165.629 75.8078 164.979 74.8985C164.52 74.2577 163.481 74.4309 162.849 74.9159C162.297 75.4886 161.697 76.013 161.056 76.4833C159.818 77.1241 158.346 76.5092 157.012 76.0936C155.678 75.6779 153.895 75.6433 153.254 76.8816C152.526 78.2585 153.886 80.0771 153.176 81.4626C152.223 83.2898 149.019 82.2506 147.686 83.8267C146.161 85.628 148.725 88.3298 148.214 90.6333C147.556 90.9595 146.825 91.1095 146.092 91.0685C145.358 91.0275 144.648 90.797 144.031 90.3995C143.425 89.9873 142.942 89.4185 142.634 88.7535C142.326 88.0886 142.205 87.3526 142.282 86.6238C142.403 85.5847 142.949 84.5195 142.585 83.541C142.193 82.7852 141.545 82.1931 140.758 81.8696C138.246 80.4754 135.735 79.087 133.224 77.7043C132.522 79.0033 133.406 80.6053 134.514 81.5838C135.614 82.5537 136.999 83.2898 137.727 84.5715C138.187 85.4597 138.291 86.4903 138.018 87.4527C137.744 88.4152 137.114 89.2369 136.255 89.75C136.146 89.8248 136.022 89.8751 135.892 89.8975C135.762 89.92 135.629 89.9139 135.501 89.8799C135.381 89.8094 135.276 89.7157 135.193 89.6041C135.11 89.4926 135.05 89.3655 135.016 89.2304C133.691 85.8271 131.691 82.4758 128.504 80.7006C125.309 78.9167 120.728 79.289 118.632 82.2766C118.138 82.9867 117.801 83.8007 117.368 84.5541C115.073 88.5463 110.137 90.4341 105.53 90.3129C105.079 90.3418 104.63 90.2363 104.24 90.0098C103.495 89.4989 103.529 88.4077 103.642 87.5071C103.807 86.2341 103.962 84.9698 104.127 83.6968C104.131 82.9196 104.431 82.1731 104.967 81.6098C105.824 80.9344 107.054 81.3587 108.145 81.3414C108.969 81.3047 109.761 81.0147 110.413 80.5109C111.066 80.0072 111.547 79.3143 111.791 78.527C112.01 77.7324 112.009 76.893 111.786 76.0994C111.563 75.3058 111.128 74.5881 110.527 74.0239C110.033 73.5563 109.366 72.9674 109.626 72.3353C109.732 72.1611 109.874 72.0121 110.043 71.8984C110.212 71.7848 110.403 71.7093 110.605 71.6771C112.553 71.1142 114.623 70.967 116.536 70.2916C118.459 69.6248 120.321 68.2565 120.78 66.2735C120.918 65.6673 120.979 64.9312 121.524 64.6281C121.8 64.5176 122.094 64.4589 122.39 64.4549C123.432 64.3057 124.379 63.7725 125.048 62.9601C125.716 62.1477 126.056 61.1149 126.001 60.0644C126.919 59.4236 128.21 59.8999 129.102 60.584C129.985 61.2681 130.773 62.1687 131.855 62.4632C133.873 63.0174 135.822 61.2248 137.917 61.2162C138.801 61.2162 139.71 61.5279 140.533 61.2248C141.373 60.9217 141.875 60.0904 142.516 59.4756C143.165 58.8521 144.291 58.4797 144.888 59.1465C144.715 57.8908 144.551 56.6438 144.377 55.3968C145.398 55.6538 146.461 55.6893 147.496 55.5011C148.531 55.3129 149.514 54.9053 150.379 54.3057C148.196 53.5696 146.023 52.8336 143.841 52.0975C143.611 52.041 143.4 51.9278 143.226 51.7684C142.749 51.2575 143.226 50.4608 143.607 49.8806C144.533 48.4864 144.689 46.1915 143.165 45.4987C142.126 45.0225 140.94 45.594 139.944 46.1482C138.35 47.0315 136.757 47.9235 135.164 48.8068C135.016 49.716 136.125 50.2356 136.809 50.8418C137.226 51.2116 137.521 51.699 137.655 52.2397C137.79 52.7805 137.758 53.3493 137.563 53.8714C137.368 54.3934 137.019 54.8442 136.563 55.1644C136.107 55.4846 135.565 55.6592 135.008 55.6653C135.321 56.075 135.54 56.5497 135.646 57.0547C135.752 57.5597 135.744 58.0821 135.623 58.5836C134.557 58.6615 133.484 58.7395 132.41 58.8174C132.231 58.853 132.048 58.8529 131.869 58.8173C131.691 58.7816 131.522 58.711 131.371 58.6096C131.024 58.3065 131.076 57.7696 130.99 57.3193C130.847 56.7811 130.546 56.2979 130.126 55.9321C129.707 55.5663 129.187 55.3346 128.634 55.2669C127.531 55.1429 126.414 55.246 125.352 55.57C124.89 55.7327 124.385 55.7204 123.932 55.5354C123.675 55.3653 123.48 55.116 123.378 54.8253C123.189 54.2315 123.157 53.5991 123.284 52.9892C123.412 52.3794 123.695 51.8127 124.105 51.3441C124.937 50.4206 125.853 49.5769 126.842 48.8241C129.082 46.8624 130.729 44.3126 131.596 41.4633C133.362 40.7186 135.19 39.7141 136.965 38.9693C138.392 38.3079 139.887 37.8055 141.425 37.4712C142.871 37.2503 144.337 37.1806 145.798 37.2634C147.789 37.298 149.79 37.3326 151.782 37.3759C153.56 37.3012 155.336 37.5567 157.021 38.1293C158.657 38.8048 160.104 40.2683 160.216 42.0349C160.25 42.2362 160.232 42.4429 160.164 42.6354C160.096 42.8278 159.98 42.9997 159.826 43.1347C159.597 43.2618 159.335 43.3218 159.073 43.3079C157.419 43.3598 156.718 43.7755 155.064 43.8361C156.111 44.9532 157.289 46.1309 158.813 46.3301C161.498 46.6765 163.429 43.8967 164.667 41.4807C164.712 42.0956 164.994 42.669 165.455 43.0783C165.917 43.4876 166.519 43.7005 167.135 43.6716C167.799 43.5575 168.432 43.31 168.997 42.9441C174.324 40.0332 180.29 38.4917 186.36 38.4584C186.3 37.9989 186.414 37.5336 186.678 37.1528C186.942 36.772 187.338 36.5028 187.789 36.3974C189.027 36.1549 190.136 37.2201 190.733 38.3285C191.322 39.437 191.694 40.7186 192.647 41.5499C193.591 42.3812 195.418 42.338 195.79 41.1429C196.154 39.9912 194.95 39.004 193.955 38.3199C192.95 37.6444 191.902 36.3887 192.578 35.3842C197.67 34.2497 202.805 33.124 208.027 32.8988C208.914 32.9257 209.798 32.7725 210.625 32.4485C211.034 32.2751 211.375 31.9715 211.594 31.5848C211.813 31.1981 211.898 30.7498 211.837 30.3096C210.697 30.5755 209.505 30.4968 208.41 30.0836C207.315 29.6704 206.368 28.9413 205.689 27.9887C211.049 27.5471 216.66 27.1574 221.813 28.3611L226.325 32.1887C225.467 33.0807 224.324 33.9207 224.948 34.8126C225.153 35.0175 225.403 35.173 225.677 35.2675C225.952 35.362 226.244 35.393 226.532 35.3582C227.624 35.3755 228.715 35.4015 229.797 35.4015C252.196 56.8268 265.983 85.7064 268.558 116.595C266.74 116.526 265.068 118.829 265.302 120.839C265.579 123.168 267.259 125.038 268.463 127.048C268.662 127.374 268.841 127.712 269 128.061L268.835 133.776Z" fill="white" fill-opacity="0.7"/>
<path d="M100.529 252.597C112.611 252.597 122.405 242.802 122.405 230.72C122.405 218.638 112.611 208.844 100.529 208.844C88.4473 208.844 78.653 218.638 78.653 230.72C78.653 242.802 88.4473 252.597 100.529 252.597Z" fill="#2F2E41"/>
<path d="M90.0863 241.772C90.0863 241.772 82.9608 257.55 80.9249 258.059C78.8891 258.568 97.7206 267.729 97.7206 267.729C97.7206 267.729 101.283 248.389 102.81 247.371C104.337 246.353 90.0863 241.772 90.0863 241.772Z" fill="#FFB9B9"/>
<path d="M47.8427 371.049L34.6095 408.203L48.8603 413.802L73.2908 365.45L47.8427 371.049Z" fill="#FFB9B9"/>
<path d="M94.1578 372.067C94.1578 372.067 120.624 409.221 122.151 409.73C123.678 410.239 134.366 401.077 134.366 401.077C134.366 401.077 121.133 369.013 117.061 367.486C112.989 365.959 94.1578 372.067 94.1578 372.067Z" fill="#FFB9B9"/>
<path d="M32.5735 401.586L11.7061 456.045C11.7061 456.045 13.233 459.099 11.7061 459.608C10.1792 460.117 6.61649 468.26 6.61649 468.769C6.61649 469.278 3.05378 469.787 3.05378 471.314C3.05378 472.841 0 485.056 0 485.056C0 485.056 5.59857 497.271 9.16133 493.708C12.7241 490.146 14.2509 483.02 14.2509 483.02L19.3405 469.787C19.3405 469.787 18.8316 462.662 22.3943 461.644C25.957 460.626 27.9929 447.902 27.9929 447.902C27.9929 447.902 33.5915 442.303 34.6094 440.776C35.6273 439.249 53.4409 412.275 51.9141 411.766C50.3872 411.257 32.5735 401.586 32.5735 401.586Z" fill="#2F2E41"/>
<path d="M119.097 408.712L134.366 398.533C134.366 398.533 160.832 446.884 160.832 447.902C160.832 448.92 159.814 451.974 160.832 452.991C161.85 454.009 170.502 470.296 176.101 471.823C181.699 473.35 182.717 479.457 178.137 480.475C173.556 481.493 167.448 484.038 165.921 480.475C165.029 478.379 164.009 476.34 162.868 474.368C162.868 474.368 157.778 475.895 157.269 474.877C156.682 473.377 156.172 471.848 155.742 470.296C155.742 470.296 151.671 463.171 151.671 460.626C151.671 458.081 149.126 457.572 149.126 457.572C149.126 457.572 143.527 444.339 139.964 442.303C136.402 440.267 133.348 430.088 133.348 430.088L119.097 408.712Z" fill="#2F2E41"/>
<path d="M100.774 253.479C108.926 253.479 115.534 246.87 115.534 238.719C115.534 230.567 108.926 223.959 100.774 223.959C92.6227 223.959 86.0145 230.567 86.0145 238.719C86.0145 246.87 92.6227 253.479 100.774 253.479Z" fill="#FFB9B9"/>
<path d="M57.0038 328.296C57.0038 328.296 35.1588 386.328 38.2125 386.328C41.2663 386.328 125.749 388.166 128.294 384.094C130.839 380.023 106.373 339.493 105.355 338.984C104.337 338.475 57.0038 328.296 57.0038 328.296Z" fill="#2F2E41"/>
<path d="M35.1183 207.163L19.8495 183.751C19.8495 183.751 23.6253 159.191 18.5357 163.772C13.4461 168.352 11.8354 186.85 11.8354 186.85L29.5197 213.779L35.1183 207.163Z" fill="#FFB9B9"/>
<path d="M173.556 249.916L187.298 248.898C187.298 248.898 203.585 231.593 204.603 237.192C205.62 242.79 191.37 255.005 191.37 255.005L172.538 257.041L173.556 249.916Z" fill="#FFB9B9"/>
<path d="M73.2906 255.005V249.916C73.2906 249.916 60.0576 241.263 60.5665 239.737C61.0754 238.21 59.5486 237.192 59.5486 237.192C59.5486 237.192 58.0217 235.156 58.0217 234.647C58.0217 234.138 55.9859 233.629 55.9859 233.629L43.2618 218.869C43.2618 218.869 36.1364 204.618 34.6095 205.127C33.0826 205.636 24.9392 208.69 25.9571 210.726C26.9751 212.762 55.4769 256.532 55.4769 256.532C55.4769 256.532 57.0038 266.203 59.5486 266.203C62.0934 266.203 73.2906 255.005 73.2906 255.005Z" fill="#38C8E8"/>
<path d="M107.391 261.113C107.391 261.113 118.588 260.604 119.097 261.113C119.606 261.622 126.732 261.113 126.732 261.113C126.732 261.113 146.072 256.532 147.599 255.005C149.126 253.478 174.574 246.862 175.592 249.916C176.61 252.97 179.155 259.077 176.61 260.095C174.065 261.113 105.355 278.418 105.355 278.418L107.391 261.113Z" fill="#38C8E8"/>
<path d="M92.8765 216.748C97.8759 216.748 101.929 212.695 101.929 207.696C101.929 202.696 97.8759 198.644 92.8765 198.644C87.8771 198.644 83.8243 202.696 83.8243 207.696C83.8243 212.695 87.8771 216.748 92.8765 216.748Z" fill="#2F2E41"/>
<path d="M80.8069 202.793C80.807 200.555 81.6358 198.397 83.1333 196.734C84.6307 195.072 86.6908 194.023 88.9162 193.789C88.6029 193.757 88.2882 193.74 87.9732 193.74C85.5725 193.74 83.27 194.694 81.5724 196.392C79.8748 198.089 78.921 200.392 78.921 202.793C78.921 205.193 79.8748 207.496 81.5724 209.193C83.27 210.891 85.5725 211.845 87.9732 211.845C88.2882 211.845 88.6029 211.828 88.9162 211.796C86.6908 211.563 84.6307 210.513 83.1333 208.851C81.6358 207.188 80.807 205.03 80.8069 202.793V202.793Z" fill="#2F2E41"/>
<path d="M103.074 235.134C111.406 235.134 118.161 231.081 118.161 226.082C118.161 221.083 111.406 217.03 103.074 217.03C94.7416 217.03 87.9869 221.083 87.9869 226.082C87.9869 231.081 94.7416 235.134 103.074 235.134Z" fill="#2F2E41"/>
<path d="M85.7601 249.661C85.7601 249.661 81.1794 253.224 80.1615 253.733C79.1436 254.242 73.036 249.152 72.0181 249.152C71.0002 249.152 57.7672 264.421 57.7672 264.421C57.7672 264.421 60.2264 267.254 57.7672 281.726C56.8449 287.153 55.0151 310.358 55.0151 313.411C55.0151 316.465 45.0431 323.97 54.2044 330.586C63.3657 337.203 107.136 344.328 107.645 340.256C108.154 336.185 102.556 325.497 105.101 320.407C107.645 315.317 107.645 296.486 107.645 296.486L110.699 276.636L113.244 260.858C113.244 260.858 101.283 257.55 100.265 257.55C99.2475 257.55 94.6669 264.676 85.7601 249.661Z" fill="#38C8E8"/>
</svg>
