<svg width="432" height="420" viewBox="0 0 432 420" fill="none" xmlns="http://www.w3.org/2000/svg">
<g opacity="0.1">
<path opacity="0.1" d="M198.44 180.37C205.077 177.978 199.253 179.928 198.105 180.31C198.212 180.352 198.326 180.373 198.44 180.37V180.37Z" fill="#00FFFF"/>
</g>
<g opacity="0.1">
<path opacity="0.1" d="M198.105 180.304L197.926 180.251V180.37L198.105 180.304Z" fill="#00FFFF"/>
</g>
<path d="M191.592 314.519C189.934 314.519 188.258 314.493 186.613 314.442L186.65 313.247C189.012 313.32 191.423 313.341 193.796 313.308L193.812 314.504C193.073 314.514 192.334 314.519 191.592 314.519ZM201.007 314.242L200.937 313.048C203.303 312.909 205.699 312.712 208.058 312.465L208.183 313.654C205.805 313.904 203.391 314.102 201.007 314.242V314.242ZM179.424 314.056C177.039 313.873 174.628 313.633 172.259 313.343L172.405 312.156C174.756 312.444 177.148 312.682 179.515 312.863L179.424 314.056ZM215.324 312.741L215.145 311.559C217.495 311.202 219.864 310.788 222.182 310.327L222.415 311.5C220.078 311.964 217.692 312.381 215.324 312.741V312.741ZM165.135 312.303C162.779 311.904 160.4 311.445 158.066 310.938L158.32 309.769C160.636 310.272 162.997 310.728 165.335 311.124L165.135 312.303ZM229.443 309.934L229.156 308.773C231.463 308.203 233.783 307.572 236.052 306.899L236.392 308.046C234.106 308.724 231.768 309.36 229.443 309.934ZM151.067 309.249C148.756 308.634 146.43 307.958 144.153 307.238L144.514 306.098C146.773 306.812 149.081 307.483 151.374 308.092L151.067 309.249ZM243.245 305.84L242.853 304.71C245.092 303.932 247.343 303.09 249.546 302.209L249.99 303.319C247.771 304.208 245.502 305.055 243.245 305.84ZM137.322 304.903C135.077 304.078 132.818 303.187 130.609 302.257L131.073 301.154C133.265 302.078 135.507 302.961 137.735 303.781L137.322 304.903ZM256.597 300.497L256.102 299.409C258.252 298.432 260.413 297.389 262.525 296.309L263.069 297.374C260.941 298.462 258.763 299.513 256.597 300.497ZM269.392 293.957L268.8 292.918C270.862 291.742 272.92 290.505 274.917 289.242L275.555 290.252C273.544 291.525 271.47 292.772 269.392 293.957V293.957ZM281.544 286.269L280.86 285.289C282.801 283.932 284.739 282.512 286.618 281.067L287.347 282.015C285.454 283.471 283.501 284.902 281.544 286.269V286.269ZM99.2751 284.585C97.3449 283.183 95.4168 281.714 93.5438 280.218L94.29 279.284C96.1487 280.768 98.0622 282.225 99.9775 283.616L99.2751 284.585ZM292.951 277.501L292.18 276.587C293.99 275.06 295.791 273.469 297.534 271.857L298.346 272.735C296.59 274.359 294.775 275.963 292.951 277.501V277.501ZM88.0187 275.597C86.221 274.022 84.4351 272.385 82.7107 270.73L83.5387 269.867C85.2502 271.51 87.0224 273.135 88.8063 274.697L88.0187 275.597ZM303.519 267.727L302.667 266.887C304.336 265.197 305.986 263.447 307.571 261.688L308.46 262.488C306.862 264.261 305.2 266.024 303.519 267.727V267.727ZM77.6311 265.627C75.9818 263.893 74.3529 262.1 72.7897 260.299L73.6931 259.516C75.2443 261.303 76.8606 263.082 78.4976 264.803L77.6311 265.627ZM313.158 257.029L312.234 256.27C313.741 254.436 315.225 252.543 316.645 250.644L317.603 251.359C316.172 253.274 314.676 255.181 313.158 257.029ZM68.1968 254.759C66.7157 252.887 65.2573 250.955 63.862 249.016L64.8325 248.317C66.2172 250.241 67.6645 252.159 69.1346 254.017L68.1968 254.759ZM321.785 245.492L320.796 244.821C322.13 242.857 323.436 240.836 324.678 238.813L325.697 239.439C324.445 241.477 323.129 243.514 321.785 245.492ZM59.7949 243.083C58.4919 241.085 57.2166 239.03 56.004 236.972L57.0341 236.365C58.2376 238.407 59.5032 240.447 60.7963 242.429L59.7949 243.083ZM329.328 233.21L328.282 232.632C329.43 230.555 330.545 228.421 331.598 226.29L332.67 226.82C331.61 228.967 330.485 231.117 329.328 233.21H329.328ZM335.715 220.282L334.619 219.802C335.572 217.626 336.487 215.397 337.339 213.178L338.456 213.607C337.597 215.843 336.675 218.089 335.715 220.282H335.715ZM46.3677 217.702C45.4509 215.501 44.573 213.25 43.7584 211.01L44.8825 210.602C45.6906 212.825 46.5619 215.058 47.4713 217.242L46.3677 217.702ZM340.886 206.81L339.751 206.434C340.497 204.185 341.201 201.886 341.844 199.602L342.995 199.925C342.348 202.228 341.638 204.544 340.886 206.81V206.81ZM41.4548 204.189C40.7433 201.91 40.0747 199.582 39.4677 197.268L40.6245 196.965C41.2268 199.261 41.8904 201.571 42.5964 203.833L41.4548 204.189ZM344.784 192.951L343.619 192.68C344.154 190.375 344.644 188.021 345.074 185.685L346.25 185.901C345.817 188.256 345.323 190.627 344.784 192.951ZM37.8023 190.263C37.3037 187.928 36.8523 185.548 36.4611 183.19L37.6406 182.993C38.0292 185.334 38.4771 187.696 38.972 190.013L37.8023 190.263ZM347.39 178.793L346.205 178.63C346.526 176.288 346.798 173.9 347.012 171.531L348.203 171.639C347.987 174.026 347.713 176.432 347.39 178.793ZM35.4456 176.062C35.1635 173.695 34.932 171.284 34.7571 168.896L35.9501 168.809C36.1232 171.179 36.3533 173.571 36.6333 175.921L35.4456 176.062ZM348.69 164.457L347.496 164.403C347.602 162.033 347.656 159.63 347.656 157.26H348.852C348.852 159.648 348.798 162.069 348.69 164.457ZM34.3948 161.705C34.3539 160.239 34.3332 158.743 34.3329 157.26C34.3329 156.339 34.3408 155.421 34.3565 154.504L35.5524 154.525C35.5367 155.435 35.5288 156.346 35.5288 157.26C35.5291 158.732 35.5498 160.217 35.5901 161.672L34.3948 161.705ZM35.8362 147.386L34.6427 147.311C34.7919 144.921 34.998 142.508 35.2546 140.138L36.4435 140.266C36.1886 142.619 35.9845 145.014 35.8362 147.386H35.8362ZM346.884 140.09C346.645 137.732 346.317 136.583 345.97 134.235L347.153 134.061C347.502 136.426 347.802 138.231 348.043 140.607L346.884 140.09ZM37.3746 133.183L36.1927 133C36.5591 130.634 36.9848 128.25 37.4581 125.912L38.6301 126.149C38.1606 128.469 37.7381 130.835 37.3746 133.183H37.3746ZM344.763 127.194C344.307 124.861 343.792 122.513 343.233 120.214L344.395 119.932C344.958 122.248 345.477 124.614 345.937 126.964L344.763 127.194ZM40.2072 119.181L39.0473 118.89C39.628 116.574 40.2712 114.238 40.9591 111.948L42.1041 112.292C41.4218 114.565 40.7836 116.882 40.2072 119.181ZM341.383 113.313C340.716 111.036 339.987 108.745 339.217 106.504L340.348 106.115C341.124 108.373 341.859 110.682 342.531 112.976L341.383 113.313ZM44.324 105.48L43.1958 105.083C43.9905 102.822 44.8486 100.551 45.7461 98.3316L46.855 98.7801C45.9642 100.982 45.1126 103.236 44.324 105.48V105.48ZM336.739 99.8022C335.867 97.6014 334.932 95.3927 333.962 93.2371L335.053 92.746C336.031 94.9182 336.972 97.1439 337.851 99.3613L336.739 99.8022ZM49.6915 92.2067L48.6048 91.7075C49.6036 89.5323 50.6666 87.351 51.7644 85.2244L52.8272 85.7727C51.7376 87.8833 50.6827 90.0479 49.6915 92.2067ZM330.886 86.8039C329.816 84.6927 328.682 82.5771 327.516 80.5167L328.556 79.9276C329.732 82.004 330.874 84.1357 331.953 86.2632L330.886 86.8039ZM56.2551 79.4914L55.2187 78.8946C56.4116 76.8231 57.6697 74.7496 58.9581 72.7321L59.966 73.3756C58.6875 75.3779 57.4388 77.4356 56.2551 79.4914ZM323.86 74.3878C322.597 72.3762 321.274 70.3721 319.928 68.4311L320.91 67.7497C322.266 69.7056 323.6 71.7248 324.873 73.7519L323.86 74.3878ZM63.9525 67.4376L62.975 66.7485C64.3537 64.7932 65.7951 62.8444 67.2602 60.9559L68.205 61.6888C66.7513 63.5632 65.3204 65.4972 63.9525 67.4376ZM315.726 62.6587C314.285 60.7711 312.784 58.8947 311.264 57.0815L312.181 56.3134C313.712 58.1405 315.224 60.031 316.676 61.9328L315.726 62.6587ZM72.7144 56.1417L71.804 55.3663C73.3512 53.5491 74.9637 51.7403 76.5967 49.9903L77.4708 50.806C75.8504 52.5429 74.2501 54.3382 72.7144 56.1417ZM306.553 51.712C304.946 49.9634 303.28 48.2303 301.6 46.5614L302.444 45.713C304.136 47.395 305.815 49.141 307.433 50.9027L306.553 51.712ZM82.4637 45.6943L81.6275 44.8394C83.3375 43.1665 85.1072 41.5125 86.8867 39.9236L87.6831 40.8158C85.9171 42.3925 84.1609 44.0339 82.4637 45.6943V45.6943ZM296.419 41.6404C294.659 40.0436 292.841 38.4688 291.017 36.9596L291.779 36.0381C293.617 37.5587 295.449 39.1455 297.223 40.7546L296.419 41.6404ZM93.1181 36.18L92.3631 35.2527C94.2127 33.7465 96.1241 32.261 98.0447 30.8374L98.7571 31.7979C96.8509 33.211 94.9537 34.6852 93.1181 36.18H93.1181ZM104.588 27.6789L103.92 26.6868C105.9 25.3548 107.938 24.0506 109.978 22.8095L110.599 23.8314C108.575 25.0629 106.553 26.3574 104.588 27.6789H104.588ZM116.779 20.2635L116.205 19.2142C118.299 18.0682 120.446 16.9564 122.587 15.9092L123.113 16.9836C120.988 18.0227 118.857 19.126 116.779 20.2635ZM261.105 17.4928C258.977 16.4327 256.797 15.4084 254.626 14.4488L255.11 13.3551C257.298 14.322 259.494 15.3541 261.638 16.4224L261.105 17.4928ZM129.588 13.9983L129.112 12.901C131.301 11.9524 133.54 11.0427 135.766 10.1969L136.191 11.3151C133.981 12.1542 131.76 13.057 129.588 13.9983ZM248.012 11.7054C245.798 10.8468 243.531 10.0275 241.276 9.27074L241.656 8.13675C243.929 8.89966 246.213 9.72504 248.444 10.5907L248.012 11.7054ZM142.927 8.93294L142.555 7.79661C144.827 7.05152 147.146 6.34992 149.446 5.71198L149.766 6.86408C147.483 7.49735 145.182 8.19342 142.927 8.93294H142.927ZM234.451 7.15487C232.17 6.50467 229.843 5.89913 227.536 5.35519L227.811 4.19143C230.136 4.73945 232.48 5.34965 234.779 6.00453L234.451 7.15487ZM156.693 5.11258L156.427 3.94676C158.757 3.4145 161.13 2.92955 163.481 2.50562L163.693 3.68224C161.36 4.10325 159.005 4.58441 156.693 5.11258ZM220.546 3.87669C218.217 3.43959 215.845 3.05072 213.496 2.72079L213.662 1.53658C216.029 1.86913 218.42 2.26095 220.767 2.70123L220.546 3.87669ZM170.752 2.5754L170.594 1.39002C172.961 1.07411 175.369 0.808421 177.749 0.601125L177.853 1.79234C175.491 1.99847 173.102 2.2618 170.752 2.5754ZM206.399 1.88928C204.044 1.66738 201.646 1.49629 199.272 1.38155L199.331 0.186826C201.722 0.302738 204.138 0.474995 206.511 0.698669L206.399 1.88928ZM184.984 1.33367L184.934 0.138971C187.132 0.047294 189.372 0.000585986 191.592 0L192.134 0.000871334L192.13 1.19676L191.592 1.19589C189.389 1.19645 187.165 1.24286 184.984 1.33367V1.33367Z" fill="#2AD2BE"/>
<path d="M357.578 188.966L363.557 281.647C363.557 281.647 377.908 318.122 377.31 352.803C377.31 352.803 371.928 366.555 376.114 368.947C380.3 371.339 382.691 373.133 380.3 374.927C377.908 376.721 376.114 380.906 377.908 382.102C379.702 383.298 380.3 385.092 379.702 385.092H361.763C361.763 385.092 365.351 376.123 359.969 373.731C354.588 371.339 357.578 365.36 357.578 365.36L317.515 248.162L285.824 355.792C285.824 355.792 291.206 359.38 287.02 361.174C282.834 362.968 281.041 359.38 282.834 362.968C284.628 366.555 282.237 368.349 282.237 368.947C282.237 369.545 264.298 367.153 264.298 367.153C264.298 367.153 273.267 359.38 269.082 357.586C264.896 355.792 263.102 353.999 264.298 352.803C265.494 351.607 270.278 340.246 270.278 340.246C270.278 340.246 272.669 297.194 273.267 295.4C273.865 293.606 273.267 285.235 273.267 281.049C273.267 276.864 272.669 260.121 274.463 255.936C276.257 251.75 278.051 200.327 287.618 194.347C297.185 188.368 357.578 188.966 357.578 188.966Z" fill="#2F2E41"/>
<path d="M281.639 365.958C281.639 365.958 293.597 390.473 285.226 393.463C276.855 396.453 266.092 394.061 263.7 397.649C261.308 401.236 234.999 405.422 234.401 396.453C233.803 387.484 263.102 370.741 263.102 370.741L266.919 364.595L281.639 365.958Z" fill="#2F2E41"/>
<path d="M378.506 383.896C378.506 383.896 390.465 408.412 382.093 411.401C373.722 414.391 362.959 411.999 360.567 415.587C358.176 419.175 331.866 423.36 331.268 414.391C330.67 405.422 359.969 388.679 359.969 388.679L363.786 382.534L378.506 383.896Z" fill="#2F2E41"/>
<path d="M323.196 76.253C334.093 76.253 342.928 67.4186 342.928 56.5208C342.928 45.623 334.093 36.7886 323.196 36.7886C312.298 36.7886 303.463 45.623 303.463 56.5208C303.463 67.4186 312.298 76.253 323.196 76.253Z" fill="#A0616A"/>
<path d="M336.65 66.9848L334.258 84.3252L316.32 98.078L311.536 91.5006V68.7786L336.65 66.9848Z" fill="#A0616A"/>
<path d="M308.546 89.1088C308.546 89.1088 327.082 90.9027 336.649 84.3253L355.784 197.337C355.784 197.337 288.216 202.718 285.226 199.131V163.852L297.185 106.449L308.546 89.1088Z" fill="#3F3D56"/>
<path d="M335.003 78.9221L341.433 84.3253C341.433 84.3253 367.743 88.5109 365.949 95.6862L358.774 180.594L361.165 209.296C361.165 209.296 340.835 203.914 325.289 209.296C309.742 214.677 322.093 93.6512 322.093 93.6512C322.093 93.6512 336.346 80.6943 335.003 78.9221Z" fill="#2AD2BE"/>
<path d="M311.536 85.467C311.536 85.467 292.402 99.2739 290.01 108.243C287.618 117.212 279.845 211.688 279.845 211.688C279.845 211.688 283.432 209.894 285.226 212.884C287.02 215.873 314.526 90.1965 311.536 85.467Z" fill="#2AD2BE"/>
<path d="M303.473 55.6611C303.473 55.6611 301.337 52.4569 302.158 49.0063C302.649 47.0471 302.843 45.0254 302.734 43.0087C302.734 43.0087 304.459 37.4218 306.184 34.2998C307.91 31.1778 307.088 29.8632 312.51 28.8773C317.933 27.8914 315.715 20.8257 330.01 28.4665C330.493 29.1399 331.164 29.6554 331.939 29.9478C332.714 30.2403 333.558 30.2966 334.365 30.1097C337.322 29.5346 338.391 33.6425 338.391 33.6425C338.391 33.6425 340.362 32.4923 341.102 34.1355C341.841 35.7786 347.114 33.1493 347.114 44.2407C347.114 55.3322 341.114 65.2397 341.114 65.2397C341.114 65.2397 341.554 46.5826 331.777 44.6929C322 42.8033 311.483 37.2986 308.937 44.3643C307.562 48.3299 305.728 52.1212 303.473 55.6611V55.6611Z" fill="#2F2E41"/>
<path d="M341.328 60.0971C342.393 60.0971 343.257 58.9459 343.257 57.5258C343.257 56.1057 342.393 54.9545 341.328 54.9545C340.263 54.9545 339.4 56.1057 339.4 57.5258C339.4 58.9459 340.263 60.0971 341.328 60.0971Z" fill="#A0616A"/>
<path d="M260.286 242.437C255.555 239.591 249.849 239.809 247.681 240.026C248.507 242.042 250.985 247.186 255.716 250.033C260.459 252.885 266.157 252.661 268.322 252.445C267.497 250.43 265.018 245.284 260.286 242.437Z" fill="#38C8E8"/>
<path d="M282.52 298.897H252.948C251.183 298.897 249.491 299.598 248.243 300.846C246.995 302.094 246.294 303.786 246.294 305.551C246.294 307.315 246.995 309.008 248.243 310.256C249.491 311.503 251.183 312.204 252.948 312.204H282.52C284.283 312.203 285.974 311.501 287.22 310.253C288.467 309.006 289.167 307.314 289.167 305.551C289.167 303.787 288.467 302.096 287.22 300.848C285.974 299.6 284.283 298.899 282.52 298.897Z" fill="#38C8E8"/>
<path d="M270.396 254.132L270.96 254.032L270.784 253.486L270.524 252.68C270.419 252.352 267.904 244.711 261.306 240.742C257.997 238.751 254.359 238.102 251.527 237.954C248.694 237.806 246.632 238.156 246.44 238.19C246.44 238.19 246.44 238.19 246.44 238.19L245.607 238.338L245.043 238.438L245.218 238.984L245.478 239.79C245.478 239.79 245.478 239.79 245.478 239.79C245.585 240.12 248.1 247.759 254.696 251.727C258.577 254.063 262.91 254.551 265.874 254.552C267.105 254.562 268.335 254.471 269.551 254.281L269.551 254.282L269.562 254.28L270.396 254.132ZM417.572 312.206V312.204L417.572 298.897V298.895C417.565 296.413 416.575 294.033 414.819 292.278C413.064 290.522 410.685 289.533 408.202 289.525H408.2L386.021 289.525L386.02 289.525C383.537 289.533 381.158 290.522 379.402 292.278C377.647 294.033 376.657 296.413 376.65 298.895V298.897V312.204V312.206C376.657 314.689 377.647 317.068 379.402 318.823C381.158 320.579 383.537 321.569 386.02 321.576H386.021H408.2H408.202C410.685 321.569 413.064 320.579 414.819 318.823C416.575 317.068 417.565 314.689 417.572 312.206ZM250.631 229.164H416.432C418.295 229.164 420.139 229.531 421.861 230.244C423.582 230.956 425.146 232.001 426.463 233.319C427.781 234.636 428.826 236.2 429.539 237.921C430.252 239.643 430.619 241.488 430.619 243.351V324.132C430.619 325.995 430.252 327.84 429.539 329.561C428.826 331.282 427.781 332.846 426.463 334.164C425.146 335.481 423.582 336.526 421.861 337.239C420.139 337.952 418.295 338.319 416.432 338.319H250.631C246.868 338.319 243.26 336.824 240.599 334.164C237.938 331.503 236.444 327.895 236.444 324.132V243.351C236.444 241.488 236.811 239.643 237.524 237.921C238.237 236.2 239.282 234.636 240.599 233.319C241.916 232.001 243.48 230.956 245.202 230.243C246.923 229.531 248.768 229.164 250.631 229.164ZM252.948 314.183H282.52C284.809 314.183 287.005 313.273 288.624 311.655C290.242 310.036 291.152 307.84 291.152 305.551C291.152 303.261 290.242 301.066 288.624 299.447C287.005 297.828 284.809 296.918 282.52 296.918H252.948C250.658 296.918 248.463 297.828 246.844 299.447C245.225 301.066 244.315 303.261 244.315 305.551C244.315 307.84 245.225 310.036 246.844 311.655C248.463 313.273 250.658 314.183 252.948 314.183Z" fill="#38C8E8" stroke="#2AD2BE"/>
<path d="M393.045 309.617H383.434C382.747 309.617 382.089 309.889 381.604 310.375C381.119 310.86 380.846 311.518 380.846 312.204C380.846 312.891 381.119 313.549 381.604 314.034C382.089 314.519 382.747 314.792 383.434 314.792H393.045C393.731 314.792 394.389 314.519 394.874 314.034C395.36 313.549 395.632 312.891 395.632 312.204C395.632 311.518 395.36 310.86 394.874 310.375C394.389 309.889 393.731 309.617 393.045 309.617V309.617ZM393.045 313.313H383.434C383.288 313.314 383.143 313.285 383.009 313.23C382.874 313.174 382.751 313.092 382.648 312.989C382.545 312.886 382.463 312.764 382.407 312.629C382.351 312.495 382.322 312.35 382.322 312.204C382.322 312.058 382.351 311.914 382.407 311.779C382.463 311.645 382.545 311.522 382.648 311.419C382.751 311.316 382.874 311.235 383.009 311.179C383.143 311.123 383.288 311.095 383.434 311.095H393.045C393.19 311.095 393.335 311.123 393.47 311.179C393.605 311.235 393.727 311.316 393.83 311.419C393.934 311.522 394.016 311.645 394.071 311.779C394.127 311.914 394.156 312.058 394.156 312.204C394.156 312.35 394.127 312.495 394.071 312.629C394.016 312.764 393.934 312.886 393.83 312.989C393.727 313.092 393.605 313.174 393.47 313.23C393.335 313.285 393.19 313.314 393.045 313.313V313.313Z" fill="#2AD2BE"/>
<path d="M410.788 309.617H401.177C400.837 309.616 400.5 309.683 400.186 309.813C399.871 309.942 399.585 310.133 399.345 310.373C399.104 310.614 398.913 310.899 398.783 311.213C398.653 311.527 398.585 311.864 398.585 312.204C398.585 312.544 398.653 312.881 398.783 313.195C398.913 313.51 399.104 313.795 399.345 314.035C399.585 314.276 399.871 314.466 400.186 314.596C400.5 314.726 400.837 314.792 401.177 314.792H410.788C411.474 314.792 412.132 314.519 412.617 314.034C413.103 313.549 413.375 312.891 413.375 312.204C413.375 311.518 413.103 310.86 412.617 310.375C412.132 309.889 411.474 309.617 410.788 309.617ZM410.788 313.313H401.177C401.031 313.314 400.887 313.285 400.752 313.23C400.617 313.174 400.494 313.092 400.391 312.989C400.288 312.886 400.206 312.764 400.15 312.629C400.094 312.495 400.065 312.35 400.065 312.204C400.065 312.058 400.094 311.914 400.15 311.779C400.206 311.645 400.288 311.522 400.391 311.419C400.494 311.316 400.617 311.235 400.752 311.179C400.887 311.123 401.031 311.095 401.177 311.095H410.788C411.081 311.096 411.363 311.213 411.57 311.421C411.778 311.629 411.894 311.911 411.894 312.204C411.894 312.498 411.778 312.78 411.57 312.988C411.363 313.195 411.081 313.313 410.788 313.313V313.313Z" fill="#2AD2BE"/>
<path d="M393.045 302.963H383.434C382.747 302.963 382.089 303.236 381.604 303.721C381.119 304.206 380.846 304.864 380.846 305.551C380.846 306.237 381.119 306.895 381.604 307.38C382.089 307.866 382.747 308.138 383.434 308.138H393.045C393.385 308.139 393.722 308.072 394.036 307.942C394.35 307.813 394.636 307.622 394.877 307.382C395.118 307.141 395.308 306.856 395.439 306.542C395.569 306.228 395.636 305.891 395.636 305.551C395.636 305.21 395.569 304.874 395.439 304.56C395.308 304.245 395.118 303.96 394.877 303.72C394.636 303.479 394.35 303.289 394.036 303.159C393.722 303.029 393.385 302.963 393.045 302.963V302.963ZM393.045 306.66H383.434C383.14 306.66 382.858 306.543 382.65 306.335C382.442 306.127 382.325 305.845 382.325 305.551C382.325 305.257 382.442 304.974 382.65 304.766C382.858 304.559 383.14 304.442 383.434 304.442H393.045C393.339 304.442 393.621 304.559 393.829 304.766C394.037 304.974 394.154 305.257 394.154 305.551C394.154 305.845 394.037 306.127 393.829 306.335C393.621 306.543 393.339 306.66 393.045 306.66V306.66Z" fill="#2AD2BE"/>
<path d="M410.788 302.963H401.177C400.837 302.963 400.5 303.029 400.186 303.159C399.871 303.289 399.585 303.479 399.345 303.72C399.104 303.96 398.913 304.245 398.783 304.56C398.653 304.874 398.585 305.21 398.585 305.551C398.585 305.891 398.653 306.228 398.783 306.542C398.913 306.856 399.104 307.141 399.345 307.382C399.585 307.622 399.871 307.813 400.186 307.942C400.5 308.072 400.837 308.139 401.177 308.138H410.788C411.474 308.138 412.132 307.866 412.617 307.38C413.103 306.895 413.375 306.237 413.375 305.551C413.375 304.864 413.103 304.206 412.617 303.721C412.132 303.236 411.474 302.963 410.788 302.963ZM410.788 306.66H401.177C400.883 306.66 400.601 306.543 400.393 306.335C400.185 306.127 400.068 305.845 400.068 305.551C400.068 305.257 400.185 304.974 400.393 304.766C400.601 304.559 400.883 304.442 401.177 304.442H410.788C411.082 304.442 411.364 304.559 411.572 304.766C411.78 304.974 411.897 305.257 411.897 305.551C411.897 305.845 411.78 306.127 411.572 306.335C411.364 306.543 411.082 306.66 410.788 306.66Z" fill="#2AD2BE"/>
<path d="M410.788 296.309H401.177C400.837 296.309 400.5 296.375 400.186 296.505C399.871 296.635 399.585 296.826 399.345 297.066C399.104 297.306 398.913 297.592 398.783 297.906C398.653 298.22 398.585 298.557 398.585 298.897C398.585 299.237 398.653 299.574 398.783 299.888C398.913 300.202 399.104 300.488 399.345 300.728C399.585 300.968 399.871 301.159 400.186 301.289C400.5 301.419 400.837 301.485 401.177 301.485H410.788C411.473 301.483 412.131 301.21 412.615 300.725C413.099 300.24 413.371 299.583 413.371 298.897C413.371 298.211 413.099 297.554 412.615 297.069C412.131 296.584 411.473 296.31 410.788 296.309V296.309ZM410.788 300.006H401.177C400.883 300.006 400.601 299.889 400.393 299.681C400.185 299.473 400.068 299.191 400.068 298.897C400.068 298.603 400.185 298.321 400.393 298.113C400.601 297.905 400.883 297.788 401.177 297.788H410.788C411.082 297.788 411.364 297.905 411.572 298.113C411.78 298.321 411.897 298.603 411.897 298.897C411.897 299.191 411.78 299.473 411.572 299.681C411.364 299.889 411.082 300.006 410.788 300.006Z" fill="#2AD2BE"/>
<path d="M364.155 210.492L359.869 224.479C359.869 224.479 358.774 250.554 344.423 246.966C330.072 243.379 348.608 212.883 348.608 212.883L352.794 206.306L364.155 210.492Z" fill="#A0616A"/>
<path d="M282.834 210.492L278.548 224.479C278.548 224.479 277.453 250.554 263.102 246.966C248.752 243.379 267.288 212.883 267.288 212.883L271.473 206.306L282.834 210.492Z" fill="#A0616A"/>
<path d="M361.165 91.5006C361.165 91.5006 370.732 89.1088 373.722 105.253C376.712 121.398 380.299 167.44 380.299 167.44L365.949 215.873C365.949 215.873 351.598 208.1 348.608 209.296L359.901 167.248L350.402 124.388C350.402 124.388 358.773 91.5006 361.165 91.5006Z" fill="#2AD2BE"/>
<path opacity="0.15" d="M347.255 125.206L359.812 167.062L347.255 209.516L354.43 167.062L347.255 125.206Z" fill="black"/>
<path d="M290.01 124.388L268.484 209.296C268.484 209.296 279.838 213.043 284.024 216.033L290.01 124.388Z" fill="#2AD2BE"/>
<path d="M127.362 399.602C85.1417 405.899 42.2206 405.899 0 399.602V385.252C42.2654 390.912 85.0969 390.912 127.362 385.252V399.602Z" fill="#2AD2BE"/>
<path d="M127.362 377.478C85.1417 383.775 42.2206 383.775 0 377.478V363.128C42.2654 368.788 85.0969 368.788 127.362 363.128V377.478Z" fill="#2AD2BE"/>
<path d="M127.362 355.354C85.1417 361.651 42.2206 361.651 0 355.354V341.004C42.2654 346.664 85.0969 346.664 127.362 341.004V355.354Z" fill="#2AD2BE"/>
<circle cx="66.6709" cy="280.735" r="56.5058" fill="#F1F1F1"/>
<path d="M39.7042 246.103L67.1781 296.005L94.5293 246.504L94.1396 299.792L67.1781 317.526L39.3145 299.391L39.7042 246.103Z" fill="#2AD2BE" fill-opacity="0.5"/>
<path d="M39.8165 299.121L40.1902 248.022L66.7401 296.246L67.1773 297.04L67.6158 296.247L94.0149 248.468L93.6416 299.521L67.1767 316.928L39.8165 299.121Z" stroke="#2AD2BE" stroke-opacity="0.5"/>
</svg>
