<svg width="485" height="294" viewBox="0 0 485 294" fill="none" xmlns="http://www.w3.org/2000/svg">
<path d="M246.53 56.5303C246.823 56.2374 246.823 55.7626 246.53 55.4697L241.757 50.6967C241.464 50.4038 240.99 50.4038 240.697 50.6967C240.404 50.9896 240.404 51.4645 240.697 51.7574L244.939 56L240.697 60.2426C240.404 60.5355 240.404 61.0104 240.697 61.3033C240.99 61.5962 241.464 61.5962 241.757 61.3033L246.53 56.5303ZM96 56.75H246V55.25H96V56.75Z" fill="#D81212"/>
<path d="M432.53 56.5303C432.823 56.2374 432.823 55.7626 432.53 55.4697L427.757 50.6967C427.464 50.4038 426.99 50.4038 426.697 50.6967C426.404 50.9896 426.404 51.4645 426.697 51.7574L430.939 56L426.697 60.2426C426.404 60.5355 426.404 61.0104 426.697 61.3033C426.99 61.5962 427.464 61.5962 427.757 61.3033L432.53 56.5303ZM282 56.75H432V55.25H282V56.75Z" fill="#D81212"/>
<path d="M69.056 85.108V88H68.444V85.108L65.06 79.6H65.732L68.768 84.544L71.804 79.6H72.44L69.056 85.108ZM75.5052 88.048C74.9132 88.048 74.3772 87.912 73.8972 87.64C73.4252 87.368 73.0532 86.992 72.7812 86.512C72.5092 86.024 72.3732 85.476 72.3732 84.868C72.3732 84.26 72.5092 83.716 72.7812 83.236C73.0532 82.748 73.4252 82.368 73.8972 82.096C74.3772 81.824 74.9132 81.688 75.5052 81.688C76.0972 81.688 76.6292 81.824 77.1012 82.096C77.5812 82.368 77.9572 82.748 78.2292 83.236C78.5012 83.716 78.6372 84.26 78.6372 84.868C78.6372 85.476 78.5012 86.024 78.2292 86.512C77.9572 86.992 77.5812 87.368 77.1012 87.64C76.6292 87.912 76.0972 88.048 75.5052 88.048ZM75.5052 87.508C75.9852 87.508 76.4132 87.396 76.7892 87.172C77.1732 86.948 77.4732 86.636 77.6892 86.236C77.9132 85.836 78.0252 85.38 78.0252 84.868C78.0252 84.356 77.9132 83.9 77.6892 83.5C77.4732 83.1 77.1732 82.788 76.7892 82.564C76.4132 82.34 75.9852 82.228 75.5052 82.228C75.0252 82.228 74.5932 82.34 74.2092 82.564C73.8332 82.788 73.5332 83.1 73.3092 83.5C73.0932 83.9 72.9852 84.356 72.9852 84.868C72.9852 85.38 73.0932 85.836 73.3092 86.236C73.5332 86.636 73.8332 86.948 74.2092 87.172C74.5932 87.396 75.0252 87.508 75.5052 87.508ZM85.9826 81.736V88H85.4066V86.656C85.1986 87.096 84.8906 87.44 84.4826 87.688C84.0746 87.928 83.5946 88.048 83.0426 88.048C82.2266 88.048 81.5866 87.82 81.1226 87.364C80.6586 86.908 80.4266 86.252 80.4266 85.396V81.736H81.0266V85.348C81.0266 86.052 81.2066 86.588 81.5666 86.956C81.9266 87.324 82.4346 87.508 83.0906 87.508C83.7946 87.508 84.3506 87.288 84.7586 86.848C85.1746 86.408 85.3826 85.816 85.3826 85.072V81.736H85.9826Z" fill="#82899B"/>
<path d="M257.66 85.636H252.788L251.72 88H251.06L254.924 79.6H255.536L259.4 88H258.74L257.66 85.636ZM257.432 85.12L255.224 80.272L253.028 85.12H257.432ZM266.314 81.736V87.328C266.314 88.368 266.062 89.136 265.558 89.632C265.054 90.128 264.294 90.376 263.278 90.376C262.702 90.376 262.158 90.288 261.646 90.112C261.134 89.936 260.722 89.692 260.41 89.38L260.734 88.924C261.046 89.212 261.422 89.436 261.862 89.596C262.302 89.756 262.77 89.836 263.266 89.836C264.098 89.836 264.714 89.636 265.114 89.236C265.514 88.844 265.714 88.232 265.714 87.4V86.344C265.458 86.8 265.102 87.152 264.646 87.4C264.19 87.648 263.678 87.772 263.11 87.772C262.526 87.772 261.994 87.644 261.514 87.388C261.042 87.124 260.67 86.76 260.398 86.296C260.126 85.832 259.99 85.308 259.99 84.724C259.99 84.14 260.126 83.616 260.398 83.152C260.67 82.688 261.042 82.328 261.514 82.072C261.994 81.816 262.526 81.688 263.11 81.688C263.686 81.688 264.206 81.816 264.67 82.072C265.134 82.328 265.49 82.688 265.738 83.152V81.736H266.314ZM263.158 87.232C263.646 87.232 264.086 87.128 264.478 86.92C264.87 86.704 265.174 86.408 265.39 86.032C265.614 85.648 265.726 85.212 265.726 84.724C265.726 84.236 265.614 83.804 265.39 83.428C265.174 83.052 264.87 82.76 264.478 82.552C264.086 82.336 263.646 82.228 263.158 82.228C262.67 82.228 262.23 82.336 261.838 82.552C261.454 82.76 261.15 83.052 260.926 83.428C260.71 83.804 260.602 84.236 260.602 84.724C260.602 85.212 260.71 85.648 260.926 86.032C261.15 86.408 261.454 86.704 261.838 86.92C262.23 87.128 262.67 87.232 263.158 87.232ZM274.146 85.012H268.758C268.774 85.5 268.898 85.936 269.13 86.32C269.362 86.696 269.674 86.988 270.066 87.196C270.466 87.404 270.914 87.508 271.41 87.508C271.818 87.508 272.194 87.436 272.538 87.292C272.89 87.14 273.182 86.92 273.414 86.632L273.762 87.028C273.49 87.356 273.146 87.608 272.73 87.784C272.322 87.96 271.878 88.048 271.398 88.048C270.774 88.048 270.218 87.912 269.73 87.64C269.242 87.368 268.858 86.992 268.578 86.512C268.306 86.032 268.17 85.484 268.17 84.868C268.17 84.26 268.298 83.716 268.554 83.236C268.818 82.748 269.178 82.368 269.634 82.096C270.09 81.824 270.602 81.688 271.17 81.688C271.738 81.688 272.246 81.824 272.694 82.096C273.15 82.36 273.506 82.732 273.762 83.212C274.026 83.692 274.158 84.236 274.158 84.844L274.146 85.012ZM271.17 82.216C270.73 82.216 270.334 82.316 269.982 82.516C269.63 82.708 269.346 82.984 269.13 83.344C268.922 83.696 268.802 84.096 268.77 84.544H273.57C273.546 84.096 273.426 83.696 273.21 83.344C272.994 82.992 272.71 82.716 272.358 82.516C272.006 82.316 271.61 82.216 271.17 82.216ZM279.074 81.688C279.858 81.688 280.478 81.916 280.934 82.372C281.39 82.828 281.618 83.484 281.618 84.34V88H281.018V84.388C281.018 83.684 280.838 83.148 280.478 82.78C280.126 82.412 279.63 82.228 278.99 82.228C278.254 82.228 277.674 82.448 277.25 82.888C276.826 83.328 276.614 83.92 276.614 84.664V88H276.014V81.736H276.59V83.092C276.806 82.652 277.126 82.308 277.55 82.06C277.982 81.812 278.49 81.688 279.074 81.688ZM287.196 87.604C287.044 87.748 286.852 87.86 286.62 87.94C286.396 88.012 286.16 88.048 285.912 88.048C285.368 88.048 284.948 87.9 284.652 87.604C284.356 87.3 284.208 86.88 284.208 86.344V82.252H283.056V81.736H284.208V80.368H284.808V81.736H286.8V82.252H284.808V86.284C284.808 86.692 284.904 87.004 285.096 87.22C285.296 87.428 285.588 87.532 285.972 87.532C286.364 87.532 286.688 87.416 286.944 87.184L287.196 87.604Z" fill="#82899B"/>
<path d="M437.296 91L435.292 88.192C434.996 88.232 434.724 88.252 434.476 88.252H432.076V91H431.464V82.6H434.476C435.532 82.6 436.36 82.852 436.96 83.356C437.56 83.852 437.86 84.544 437.86 85.432C437.86 86.096 437.688 86.656 437.344 87.112C437.008 87.56 436.524 87.876 435.892 88.06L437.992 91H437.296ZM434.476 87.712C435.372 87.712 436.056 87.516 436.528 87.124C437 86.724 437.236 86.16 437.236 85.432C437.236 84.704 437 84.144 436.528 83.752C436.056 83.352 435.372 83.152 434.476 83.152H432.076V87.712H434.476ZM445.201 88.012H439.813C439.829 88.5 439.953 88.936 440.185 89.32C440.417 89.696 440.729 89.988 441.121 90.196C441.521 90.404 441.969 90.508 442.465 90.508C442.873 90.508 443.249 90.436 443.593 90.292C443.945 90.14 444.237 89.92 444.469 89.632L444.817 90.028C444.545 90.356 444.201 90.608 443.785 90.784C443.377 90.96 442.933 91.048 442.453 91.048C441.829 91.048 441.273 90.912 440.785 90.64C440.297 90.368 439.913 89.992 439.633 89.512C439.361 89.032 439.225 88.484 439.225 87.868C439.225 87.26 439.353 86.716 439.609 86.236C439.873 85.748 440.233 85.368 440.689 85.096C441.145 84.824 441.657 84.688 442.225 84.688C442.793 84.688 443.301 84.824 443.749 85.096C444.205 85.36 444.561 85.732 444.817 86.212C445.081 86.692 445.213 87.236 445.213 87.844L445.201 88.012ZM442.225 85.216C441.785 85.216 441.389 85.316 441.037 85.516C440.685 85.708 440.401 85.984 440.185 86.344C439.977 86.696 439.857 87.096 439.825 87.544H444.625C444.601 87.096 444.481 86.696 444.265 86.344C444.049 85.992 443.765 85.716 443.413 85.516C443.061 85.316 442.665 85.216 442.225 85.216ZM449.553 91.048C448.945 91.048 448.401 90.912 447.921 90.64C447.441 90.368 447.065 89.992 446.793 89.512C446.521 89.024 446.385 88.476 446.385 87.868C446.385 87.252 446.521 86.704 446.793 86.224C447.065 85.736 447.441 85.36 447.921 85.096C448.401 84.824 448.945 84.688 449.553 84.688C450.057 84.688 450.513 84.788 450.921 84.988C451.337 85.18 451.673 85.464 451.929 85.84L451.485 86.164C451.261 85.852 450.981 85.62 450.645 85.468C450.317 85.308 449.953 85.228 449.553 85.228C449.065 85.228 448.625 85.34 448.233 85.564C447.849 85.78 447.545 86.088 447.321 86.488C447.105 86.888 446.997 87.348 446.997 87.868C446.997 88.388 447.105 88.848 447.321 89.248C447.545 89.648 447.849 89.96 448.233 90.184C448.625 90.4 449.065 90.508 449.553 90.508C449.953 90.508 450.317 90.432 450.645 90.28C450.981 90.12 451.261 89.884 451.485 89.572L451.929 89.896C451.673 90.272 451.337 90.56 450.921 90.76C450.513 90.952 450.057 91.048 449.553 91.048ZM458.648 84.736L455.432 91.852C455.192 92.404 454.912 92.796 454.592 93.028C454.28 93.26 453.908 93.376 453.476 93.376C453.188 93.376 452.916 93.328 452.66 93.232C452.412 93.136 452.2 92.996 452.024 92.812L452.324 92.356C452.644 92.684 453.032 92.848 453.488 92.848C453.792 92.848 454.052 92.764 454.268 92.596C454.484 92.428 454.684 92.14 454.868 91.732L455.204 90.976L452.384 84.736H453.02L455.528 90.34L458.036 84.736H458.648ZM462.268 91.048C461.66 91.048 461.116 90.912 460.636 90.64C460.156 90.368 459.78 89.992 459.508 89.512C459.236 89.024 459.1 88.476 459.1 87.868C459.1 87.252 459.236 86.704 459.508 86.224C459.78 85.736 460.156 85.36 460.636 85.096C461.116 84.824 461.66 84.688 462.268 84.688C462.772 84.688 463.228 84.788 463.636 84.988C464.052 85.18 464.388 85.464 464.644 85.84L464.2 86.164C463.976 85.852 463.696 85.62 463.36 85.468C463.032 85.308 462.668 85.228 462.268 85.228C461.78 85.228 461.34 85.34 460.948 85.564C460.564 85.78 460.26 86.088 460.036 86.488C459.82 86.888 459.712 87.348 459.712 87.868C459.712 88.388 459.82 88.848 460.036 89.248C460.26 89.648 460.564 89.96 460.948 90.184C461.34 90.4 461.78 90.508 462.268 90.508C462.668 90.508 463.032 90.432 463.36 90.28C463.696 90.12 463.976 89.884 464.2 89.572L464.644 89.896C464.388 90.272 464.052 90.56 463.636 90.76C463.228 90.952 462.772 91.048 462.268 91.048ZM466.335 82.096H466.935V91H466.335V82.096ZM474.755 88.012H469.367C469.383 88.5 469.507 88.936 469.739 89.32C469.971 89.696 470.283 89.988 470.675 90.196C471.075 90.404 471.523 90.508 472.019 90.508C472.427 90.508 472.803 90.436 473.147 90.292C473.499 90.14 473.791 89.92 474.023 89.632L474.371 90.028C474.099 90.356 473.755 90.608 473.339 90.784C472.931 90.96 472.487 91.048 472.007 91.048C471.383 91.048 470.827 90.912 470.339 90.64C469.851 90.368 469.467 89.992 469.187 89.512C468.915 89.032 468.779 88.484 468.779 87.868C468.779 87.26 468.907 86.716 469.163 86.236C469.427 85.748 469.787 85.368 470.243 85.096C470.699 84.824 471.211 84.688 471.779 84.688C472.347 84.688 472.855 84.824 473.303 85.096C473.759 85.36 474.115 85.732 474.371 86.212C474.635 86.692 474.767 87.236 474.767 87.844L474.755 88.012ZM471.779 85.216C471.339 85.216 470.943 85.316 470.591 85.516C470.239 85.708 469.955 85.984 469.739 86.344C469.531 86.696 469.411 87.096 469.379 87.544H474.179C474.155 87.096 474.035 86.696 473.819 86.344C473.603 85.992 473.319 85.716 472.967 85.516C472.615 85.316 472.219 85.216 471.779 85.216ZM477.2 86.104C477.392 85.648 477.692 85.3 478.1 85.06C478.508 84.812 479.004 84.688 479.588 84.688V85.276L479.444 85.264C478.748 85.264 478.204 85.484 477.812 85.924C477.42 86.356 477.224 86.96 477.224 87.736V91H476.624V84.736H477.2V86.104Z" fill="#82899B"/>
<circle cx="77" cy="56" r="13" fill="url(#paint0_linear)"/>
<circle cx="265" cy="56" r="13" fill="url(#paint1_linear)"/>
<circle cx="453" cy="56" r="13" fill="url(#paint2_linear)"/>
<path d="M160.696 3.6L157.852 12H157.204L154.6 4.464L151.984 12H151.336L148.48 3.6H149.128L151.684 11.16L154.312 3.6H154.9L157.516 11.172L160.096 3.6H160.696ZM163.9 5.688C164.676 5.688 165.272 5.888 165.688 6.288C166.104 6.68 166.312 7.26 166.312 8.028V12H165.736V10.884C165.536 11.252 165.244 11.54 164.86 11.748C164.476 11.948 164.016 12.048 163.48 12.048C162.784 12.048 162.232 11.884 161.824 11.556C161.424 11.228 161.224 10.796 161.224 10.26C161.224 9.74 161.408 9.32 161.776 9C162.152 8.672 162.748 8.508 163.564 8.508H165.712V8.004C165.712 7.42 165.552 6.976 165.232 6.672C164.92 6.368 164.46 6.216 163.852 6.216C163.436 6.216 163.036 6.288 162.652 6.432C162.276 6.576 161.956 6.768 161.692 7.008L161.392 6.576C161.704 6.296 162.08 6.08 162.52 5.928C162.96 5.768 163.42 5.688 163.9 5.688ZM163.564 11.556C164.084 11.556 164.524 11.436 164.884 11.196C165.252 10.956 165.528 10.608 165.712 10.152V8.976H163.576C162.96 8.976 162.512 9.088 162.232 9.312C161.96 9.536 161.824 9.844 161.824 10.236C161.824 10.644 161.976 10.968 162.28 11.208C162.584 11.44 163.012 11.556 163.564 11.556ZM170.368 12.048C169.864 12.048 169.384 11.972 168.928 11.82C168.472 11.668 168.116 11.476 167.86 11.244L168.136 10.764C168.392 10.98 168.72 11.16 169.12 11.304C169.528 11.448 169.952 11.52 170.392 11.52C171.024 11.52 171.488 11.416 171.784 11.208C172.088 11 172.24 10.712 172.24 10.344C172.24 10.08 172.156 9.872 171.988 9.72C171.828 9.568 171.628 9.456 171.388 9.384C171.148 9.312 170.816 9.236 170.392 9.156C169.896 9.068 169.496 8.972 169.192 8.868C168.888 8.764 168.628 8.596 168.412 8.364C168.196 8.132 168.088 7.812 168.088 7.404C168.088 6.908 168.292 6.5 168.7 6.18C169.116 5.852 169.704 5.688 170.464 5.688C170.864 5.688 171.26 5.744 171.652 5.856C172.044 5.968 172.364 6.116 172.612 6.3L172.336 6.78C172.08 6.596 171.788 6.456 171.46 6.36C171.132 6.264 170.796 6.216 170.452 6.216C169.868 6.216 169.428 6.324 169.132 6.54C168.836 6.756 168.688 7.04 168.688 7.392C168.688 7.672 168.772 7.892 168.94 8.052C169.108 8.204 169.312 8.32 169.552 8.4C169.8 8.472 170.144 8.552 170.584 8.64C171.072 8.728 171.464 8.824 171.76 8.928C172.064 9.024 172.32 9.184 172.528 9.408C172.736 9.632 172.84 9.94 172.84 10.332C172.84 10.852 172.624 11.268 172.192 11.58C171.76 11.892 171.152 12.048 170.368 12.048ZM177.622 11.604C177.47 11.748 177.278 11.86 177.046 11.94C176.822 12.012 176.586 12.048 176.338 12.048C175.794 12.048 175.374 11.9 175.078 11.604C174.782 11.3 174.634 10.88 174.634 10.344V6.252H173.482V5.736H174.634V4.368H175.234V5.736H177.226V6.252H175.234V10.284C175.234 10.692 175.33 11.004 175.522 11.22C175.722 11.428 176.014 11.532 176.398 11.532C176.79 11.532 177.114 11.416 177.37 11.184L177.622 11.604ZM184.365 9.012H178.977C178.993 9.5 179.117 9.936 179.349 10.32C179.581 10.696 179.893 10.988 180.285 11.196C180.685 11.404 181.133 11.508 181.629 11.508C182.037 11.508 182.413 11.436 182.757 11.292C183.109 11.14 183.401 10.92 183.633 10.632L183.981 11.028C183.709 11.356 183.365 11.608 182.949 11.784C182.541 11.96 182.097 12.048 181.617 12.048C180.993 12.048 180.437 11.912 179.949 11.64C179.461 11.368 179.077 10.992 178.797 10.512C178.525 10.032 178.389 9.484 178.389 8.868C178.389 8.26 178.517 7.716 178.773 7.236C179.037 6.748 179.397 6.368 179.853 6.096C180.309 5.824 180.821 5.688 181.389 5.688C181.957 5.688 182.465 5.824 182.913 6.096C183.369 6.36 183.725 6.732 183.981 7.212C184.245 7.692 184.377 8.236 184.377 8.844L184.365 9.012ZM181.389 6.216C180.949 6.216 180.553 6.316 180.201 6.516C179.849 6.708 179.565 6.984 179.349 7.344C179.141 7.696 179.021 8.096 178.989 8.544H183.789C183.765 8.096 183.645 7.696 183.429 7.344C183.213 6.992 182.929 6.716 182.577 6.516C182.225 6.316 181.829 6.216 181.389 6.216Z" fill="#82899B"/>
<path opacity="0.54" fill-rule="evenodd" clip-rule="evenodd" d="M175.998 24.6666H155.998V44.6666C155.998 46.5066 157.492 48 159.333 48H172.665C174.508 48 175.998 46.5066 175.998 44.6666V24.6666ZM170.165 17.9983H161.832L160.167 19.6666H155.998C155.08 19.6666 154.333 20.4133 154.333 21.3316V23H177.667V21.3316C177.667 20.4133 176.92 19.6666 175.998 19.6666H171.833L170.165 17.9983Z" fill="#E37435"/>
<path d="M352.696 3.6L349.852 12H349.204L346.6 4.464L343.984 12H343.336L340.48 3.6H341.128L343.684 11.16L346.312 3.6H346.9L349.516 11.172L352.096 3.6H352.696ZM355.9 5.688C356.676 5.688 357.272 5.888 357.688 6.288C358.104 6.68 358.312 7.26 358.312 8.028V12H357.736V10.884C357.536 11.252 357.244 11.54 356.86 11.748C356.476 11.948 356.016 12.048 355.48 12.048C354.784 12.048 354.232 11.884 353.824 11.556C353.424 11.228 353.224 10.796 353.224 10.26C353.224 9.74 353.408 9.32 353.776 9C354.152 8.672 354.748 8.508 355.564 8.508H357.712V8.004C357.712 7.42 357.552 6.976 357.232 6.672C356.92 6.368 356.46 6.216 355.852 6.216C355.436 6.216 355.036 6.288 354.652 6.432C354.276 6.576 353.956 6.768 353.692 7.008L353.392 6.576C353.704 6.296 354.08 6.08 354.52 5.928C354.96 5.768 355.42 5.688 355.9 5.688ZM355.564 11.556C356.084 11.556 356.524 11.436 356.884 11.196C357.252 10.956 357.528 10.608 357.712 10.152V8.976H355.576C354.96 8.976 354.512 9.088 354.232 9.312C353.96 9.536 353.824 9.844 353.824 10.236C353.824 10.644 353.976 10.968 354.28 11.208C354.584 11.44 355.012 11.556 355.564 11.556ZM362.368 12.048C361.864 12.048 361.384 11.972 360.928 11.82C360.472 11.668 360.116 11.476 359.86 11.244L360.136 10.764C360.392 10.98 360.72 11.16 361.12 11.304C361.528 11.448 361.952 11.52 362.392 11.52C363.024 11.52 363.488 11.416 363.784 11.208C364.088 11 364.24 10.712 364.24 10.344C364.24 10.08 364.156 9.872 363.988 9.72C363.828 9.568 363.628 9.456 363.388 9.384C363.148 9.312 362.816 9.236 362.392 9.156C361.896 9.068 361.496 8.972 361.192 8.868C360.888 8.764 360.628 8.596 360.412 8.364C360.196 8.132 360.088 7.812 360.088 7.404C360.088 6.908 360.292 6.5 360.7 6.18C361.116 5.852 361.704 5.688 362.464 5.688C362.864 5.688 363.26 5.744 363.652 5.856C364.044 5.968 364.364 6.116 364.612 6.3L364.336 6.78C364.08 6.596 363.788 6.456 363.46 6.36C363.132 6.264 362.796 6.216 362.452 6.216C361.868 6.216 361.428 6.324 361.132 6.54C360.836 6.756 360.688 7.04 360.688 7.392C360.688 7.672 360.772 7.892 360.94 8.052C361.108 8.204 361.312 8.32 361.552 8.4C361.8 8.472 362.144 8.552 362.584 8.64C363.072 8.728 363.464 8.824 363.76 8.928C364.064 9.024 364.32 9.184 364.528 9.408C364.736 9.632 364.84 9.94 364.84 10.332C364.84 10.852 364.624 11.268 364.192 11.58C363.76 11.892 363.152 12.048 362.368 12.048ZM369.622 11.604C369.47 11.748 369.278 11.86 369.046 11.94C368.822 12.012 368.586 12.048 368.338 12.048C367.794 12.048 367.374 11.9 367.078 11.604C366.782 11.3 366.634 10.88 366.634 10.344V6.252H365.482V5.736H366.634V4.368H367.234V5.736H369.226V6.252H367.234V10.284C367.234 10.692 367.33 11.004 367.522 11.22C367.722 11.428 368.014 11.532 368.398 11.532C368.79 11.532 369.114 11.416 369.37 11.184L369.622 11.604ZM376.365 9.012H370.977C370.993 9.5 371.117 9.936 371.349 10.32C371.581 10.696 371.893 10.988 372.285 11.196C372.685 11.404 373.133 11.508 373.629 11.508C374.037 11.508 374.413 11.436 374.757 11.292C375.109 11.14 375.401 10.92 375.633 10.632L375.981 11.028C375.709 11.356 375.365 11.608 374.949 11.784C374.541 11.96 374.097 12.048 373.617 12.048C372.993 12.048 372.437 11.912 371.949 11.64C371.461 11.368 371.077 10.992 370.797 10.512C370.525 10.032 370.389 9.484 370.389 8.868C370.389 8.26 370.517 7.716 370.773 7.236C371.037 6.748 371.397 6.368 371.853 6.096C372.309 5.824 372.821 5.688 373.389 5.688C373.957 5.688 374.465 5.824 374.913 6.096C375.369 6.36 375.725 6.732 375.981 7.212C376.245 7.692 376.377 8.236 376.377 8.844L376.365 9.012ZM373.389 6.216C372.949 6.216 372.553 6.316 372.201 6.516C371.849 6.708 371.565 6.984 371.349 7.344C371.141 7.696 371.021 8.096 370.989 8.544H375.789C375.765 8.096 375.645 7.696 375.429 7.344C375.213 6.992 374.929 6.716 374.577 6.516C374.225 6.316 373.829 6.216 373.389 6.216Z" fill="#82899B"/>
<path opacity="0.54" fill-rule="evenodd" clip-rule="evenodd" d="M367.998 24.6666H347.998V44.6666C347.998 46.5066 349.492 48 351.333 48H364.665C366.508 48 367.998 46.5066 367.998 44.6666V24.6666ZM362.165 17.9983H353.832L352.167 19.6666H347.998C347.08 19.6666 346.333 20.4133 346.333 21.3316V23H369.667V21.3316C369.667 20.4133 368.92 19.6666 367.998 19.6666H363.833L362.165 17.9983Z" fill="#E37435"/>
<path d="M178.47 135.53C178.177 135.237 178.177 134.763 178.47 134.47L183.243 129.697C183.536 129.404 184.01 129.404 184.303 129.697C184.596 129.99 184.596 130.464 184.303 130.757L180.061 135L184.303 139.243C184.596 139.536 184.596 140.01 184.303 140.303C184.01 140.596 183.536 140.596 183.243 140.303L178.47 135.53ZM329 135.75H179V134.25H329V135.75Z" fill="#DAA51E"/>
<path d="M178.47 135.53C178.177 135.237 178.177 134.763 178.47 134.47L183.243 129.697C183.536 129.404 184.01 129.404 184.303 129.697C184.596 129.99 184.596 130.464 184.303 130.757L180.061 135L184.303 139.243C184.596 139.536 184.596 140.01 184.303 140.303C184.01 140.596 183.536 140.596 183.243 140.303L178.47 135.53ZM329 135.75H179V134.25H329V135.75Z" fill="#DAA51E"/>
<path d="M178.47 135.53C178.177 135.237 178.177 134.763 178.47 134.47L183.243 129.697C183.536 129.404 184.01 129.404 184.303 129.697C184.596 129.99 184.596 130.464 184.303 130.757L180.061 135L184.303 139.243C184.596 139.536 184.596 140.01 184.303 140.303C184.01 140.596 183.536 140.596 183.243 140.303L178.47 135.53ZM329 135.75H179V134.25H329V135.75Z" fill="#DAA51E"/>
<path d="M151.056 164.108V167H150.444V164.108L147.06 158.6H147.732L150.768 163.544L153.804 158.6H154.44L151.056 164.108ZM157.505 167.048C156.913 167.048 156.377 166.912 155.897 166.64C155.425 166.368 155.053 165.992 154.781 165.512C154.509 165.024 154.373 164.476 154.373 163.868C154.373 163.26 154.509 162.716 154.781 162.236C155.053 161.748 155.425 161.368 155.897 161.096C156.377 160.824 156.913 160.688 157.505 160.688C158.097 160.688 158.629 160.824 159.101 161.096C159.581 161.368 159.957 161.748 160.229 162.236C160.501 162.716 160.637 163.26 160.637 163.868C160.637 164.476 160.501 165.024 160.229 165.512C159.957 165.992 159.581 166.368 159.101 166.64C158.629 166.912 158.097 167.048 157.505 167.048ZM157.505 166.508C157.985 166.508 158.413 166.396 158.789 166.172C159.173 165.948 159.473 165.636 159.689 165.236C159.913 164.836 160.025 164.38 160.025 163.868C160.025 163.356 159.913 162.9 159.689 162.5C159.473 162.1 159.173 161.788 158.789 161.564C158.413 161.34 157.985 161.228 157.505 161.228C157.025 161.228 156.593 161.34 156.209 161.564C155.833 161.788 155.533 162.1 155.309 162.5C155.093 162.9 154.985 163.356 154.985 163.868C154.985 164.38 155.093 164.836 155.309 165.236C155.533 165.636 155.833 165.948 156.209 166.172C156.593 166.396 157.025 166.508 157.505 166.508ZM167.983 160.736V167H167.407V165.656C167.199 166.096 166.891 166.44 166.483 166.688C166.075 166.928 165.595 167.048 165.043 167.048C164.227 167.048 163.587 166.82 163.123 166.364C162.659 165.908 162.427 165.252 162.427 164.396V160.736H163.027V164.348C163.027 165.052 163.207 165.588 163.567 165.956C163.927 166.324 164.435 166.508 165.091 166.508C165.795 166.508 166.351 166.288 166.759 165.848C167.175 165.408 167.383 164.816 167.383 164.072V160.736H167.983Z" fill="#82899B"/>
<path d="M339.66 164.636H334.788L333.72 167H333.06L336.924 158.6H337.536L341.4 167H340.74L339.66 164.636ZM339.432 164.12L337.224 159.272L335.028 164.12H339.432ZM348.314 160.736V166.328C348.314 167.368 348.062 168.136 347.558 168.632C347.054 169.128 346.294 169.376 345.278 169.376C344.702 169.376 344.158 169.288 343.646 169.112C343.134 168.936 342.722 168.692 342.41 168.38L342.734 167.924C343.046 168.212 343.422 168.436 343.862 168.596C344.302 168.756 344.77 168.836 345.266 168.836C346.098 168.836 346.714 168.636 347.114 168.236C347.514 167.844 347.714 167.232 347.714 166.4V165.344C347.458 165.8 347.102 166.152 346.646 166.4C346.19 166.648 345.678 166.772 345.11 166.772C344.526 166.772 343.994 166.644 343.514 166.388C343.042 166.124 342.67 165.76 342.398 165.296C342.126 164.832 341.99 164.308 341.99 163.724C341.99 163.14 342.126 162.616 342.398 162.152C342.67 161.688 343.042 161.328 343.514 161.072C343.994 160.816 344.526 160.688 345.11 160.688C345.686 160.688 346.206 160.816 346.67 161.072C347.134 161.328 347.49 161.688 347.738 162.152V160.736H348.314ZM345.158 166.232C345.646 166.232 346.086 166.128 346.478 165.92C346.87 165.704 347.174 165.408 347.39 165.032C347.614 164.648 347.726 164.212 347.726 163.724C347.726 163.236 347.614 162.804 347.39 162.428C347.174 162.052 346.87 161.76 346.478 161.552C346.086 161.336 345.646 161.228 345.158 161.228C344.67 161.228 344.23 161.336 343.838 161.552C343.454 161.76 343.15 162.052 342.926 162.428C342.71 162.804 342.602 163.236 342.602 163.724C342.602 164.212 342.71 164.648 342.926 165.032C343.15 165.408 343.454 165.704 343.838 165.92C344.23 166.128 344.67 166.232 345.158 166.232ZM356.146 164.012H350.758C350.774 164.5 350.898 164.936 351.13 165.32C351.362 165.696 351.674 165.988 352.066 166.196C352.466 166.404 352.914 166.508 353.41 166.508C353.818 166.508 354.194 166.436 354.538 166.292C354.89 166.14 355.182 165.92 355.414 165.632L355.762 166.028C355.49 166.356 355.146 166.608 354.73 166.784C354.322 166.96 353.878 167.048 353.398 167.048C352.774 167.048 352.218 166.912 351.73 166.64C351.242 166.368 350.858 165.992 350.578 165.512C350.306 165.032 350.17 164.484 350.17 163.868C350.17 163.26 350.298 162.716 350.554 162.236C350.818 161.748 351.178 161.368 351.634 161.096C352.09 160.824 352.602 160.688 353.17 160.688C353.738 160.688 354.246 160.824 354.694 161.096C355.15 161.36 355.506 161.732 355.762 162.212C356.026 162.692 356.158 163.236 356.158 163.844L356.146 164.012ZM353.17 161.216C352.73 161.216 352.334 161.316 351.982 161.516C351.63 161.708 351.346 161.984 351.13 162.344C350.922 162.696 350.802 163.096 350.77 163.544H355.57C355.546 163.096 355.426 162.696 355.21 162.344C354.994 161.992 354.71 161.716 354.358 161.516C354.006 161.316 353.61 161.216 353.17 161.216ZM361.074 160.688C361.858 160.688 362.478 160.916 362.934 161.372C363.39 161.828 363.618 162.484 363.618 163.34V167H363.018V163.388C363.018 162.684 362.838 162.148 362.478 161.78C362.126 161.412 361.63 161.228 360.99 161.228C360.254 161.228 359.674 161.448 359.25 161.888C358.826 162.328 358.614 162.92 358.614 163.664V167H358.014V160.736H358.59V162.092C358.806 161.652 359.126 161.308 359.55 161.06C359.982 160.812 360.49 160.688 361.074 160.688ZM369.196 166.604C369.044 166.748 368.852 166.86 368.62 166.94C368.396 167.012 368.16 167.048 367.912 167.048C367.368 167.048 366.948 166.9 366.652 166.604C366.356 166.3 366.208 165.88 366.208 165.344V161.252H365.056V160.736H366.208V159.368H366.808V160.736H368.8V161.252H366.808V165.284C366.808 165.692 366.904 166.004 367.096 166.22C367.296 166.428 367.588 166.532 367.972 166.532C368.364 166.532 368.688 166.416 368.944 166.184L369.196 166.604Z" fill="#82899B"/>
<path d="M237.696 175.6L234.852 184H234.204L231.6 176.464L228.984 184H228.336L225.48 175.6H226.128L228.684 183.16L231.312 175.6H231.9L234.516 183.172L237.096 175.6H237.696ZM240.9 177.688C241.676 177.688 242.272 177.888 242.688 178.288C243.104 178.68 243.312 179.26 243.312 180.028V184H242.736V182.884C242.536 183.252 242.244 183.54 241.86 183.748C241.476 183.948 241.016 184.048 240.48 184.048C239.784 184.048 239.232 183.884 238.824 183.556C238.424 183.228 238.224 182.796 238.224 182.26C238.224 181.74 238.408 181.32 238.776 181C239.152 180.672 239.748 180.508 240.564 180.508H242.712V180.004C242.712 179.42 242.552 178.976 242.232 178.672C241.92 178.368 241.46 178.216 240.852 178.216C240.436 178.216 240.036 178.288 239.652 178.432C239.276 178.576 238.956 178.768 238.692 179.008L238.392 178.576C238.704 178.296 239.08 178.08 239.52 177.928C239.96 177.768 240.42 177.688 240.9 177.688ZM240.564 183.556C241.084 183.556 241.524 183.436 241.884 183.196C242.252 182.956 242.528 182.608 242.712 182.152V180.976H240.576C239.96 180.976 239.512 181.088 239.232 181.312C238.96 181.536 238.824 181.844 238.824 182.236C238.824 182.644 238.976 182.968 239.28 183.208C239.584 183.44 240.012 183.556 240.564 183.556ZM247.368 184.048C246.864 184.048 246.384 183.972 245.928 183.82C245.472 183.668 245.116 183.476 244.86 183.244L245.136 182.764C245.392 182.98 245.72 183.16 246.12 183.304C246.528 183.448 246.952 183.52 247.392 183.52C248.024 183.52 248.488 183.416 248.784 183.208C249.088 183 249.24 182.712 249.24 182.344C249.24 182.08 249.156 181.872 248.988 181.72C248.828 181.568 248.628 181.456 248.388 181.384C248.148 181.312 247.816 181.236 247.392 181.156C246.896 181.068 246.496 180.972 246.192 180.868C245.888 180.764 245.628 180.596 245.412 180.364C245.196 180.132 245.088 179.812 245.088 179.404C245.088 178.908 245.292 178.5 245.7 178.18C246.116 177.852 246.704 177.688 247.464 177.688C247.864 177.688 248.26 177.744 248.652 177.856C249.044 177.968 249.364 178.116 249.612 178.3L249.336 178.78C249.08 178.596 248.788 178.456 248.46 178.36C248.132 178.264 247.796 178.216 247.452 178.216C246.868 178.216 246.428 178.324 246.132 178.54C245.836 178.756 245.688 179.04 245.688 179.392C245.688 179.672 245.772 179.892 245.94 180.052C246.108 180.204 246.312 180.32 246.552 180.4C246.8 180.472 247.144 180.552 247.584 180.64C248.072 180.728 248.464 180.824 248.76 180.928C249.064 181.024 249.32 181.184 249.528 181.408C249.736 181.632 249.84 181.94 249.84 182.332C249.84 182.852 249.624 183.268 249.192 183.58C248.76 183.892 248.152 184.048 247.368 184.048ZM254.622 183.604C254.47 183.748 254.278 183.86 254.046 183.94C253.822 184.012 253.586 184.048 253.338 184.048C252.794 184.048 252.374 183.9 252.078 183.604C251.782 183.3 251.634 182.88 251.634 182.344V178.252H250.482V177.736H251.634V176.368H252.234V177.736H254.226V178.252H252.234V182.284C252.234 182.692 252.33 183.004 252.522 183.22C252.722 183.428 253.014 183.532 253.398 183.532C253.79 183.532 254.114 183.416 254.37 183.184L254.622 183.604ZM261.365 181.012H255.977C255.993 181.5 256.117 181.936 256.349 182.32C256.581 182.696 256.893 182.988 257.285 183.196C257.685 183.404 258.133 183.508 258.629 183.508C259.037 183.508 259.413 183.436 259.757 183.292C260.109 183.14 260.401 182.92 260.633 182.632L260.981 183.028C260.709 183.356 260.365 183.608 259.949 183.784C259.541 183.96 259.097 184.048 258.617 184.048C257.993 184.048 257.437 183.912 256.949 183.64C256.461 183.368 256.077 182.992 255.797 182.512C255.525 182.032 255.389 181.484 255.389 180.868C255.389 180.26 255.517 179.716 255.773 179.236C256.037 178.748 256.397 178.368 256.853 178.096C257.309 177.824 257.821 177.688 258.389 177.688C258.957 177.688 259.465 177.824 259.913 178.096C260.369 178.36 260.725 178.732 260.981 179.212C261.245 179.692 261.377 180.236 261.377 180.844L261.365 181.012ZM258.389 178.216C257.949 178.216 257.553 178.316 257.201 178.516C256.849 178.708 256.565 178.984 256.349 179.344C256.141 179.696 256.021 180.096 255.989 180.544H260.789C260.765 180.096 260.645 179.696 260.429 179.344C260.213 178.992 259.929 178.716 259.577 178.516C259.225 178.316 258.829 178.216 258.389 178.216ZM266.977 184.06C266.153 184.06 265.409 183.876 264.745 183.508C264.089 183.14 263.569 182.632 263.185 181.984C262.809 181.336 262.621 180.608 262.621 179.8C262.621 178.992 262.809 178.264 263.185 177.616C263.569 176.968 264.089 176.46 264.745 176.092C265.409 175.724 266.153 175.54 266.977 175.54C267.585 175.54 268.145 175.64 268.657 175.84C269.169 176.032 269.605 176.32 269.965 176.704L269.581 177.1C268.909 176.436 268.049 176.104 267.001 176.104C266.297 176.104 265.657 176.264 265.081 176.584C264.505 176.904 264.053 177.348 263.725 177.916C263.397 178.476 263.233 179.104 263.233 179.8C263.233 180.496 263.397 181.128 263.725 181.696C264.053 182.256 264.505 182.696 265.081 183.016C265.657 183.336 266.297 183.496 267.001 183.496C268.041 183.496 268.901 183.16 269.581 182.488L269.965 182.884C269.605 183.268 269.165 183.56 268.645 183.76C268.133 183.96 267.577 184.06 266.977 184.06ZM273.978 184.048C273.386 184.048 272.85 183.912 272.37 183.64C271.898 183.368 271.526 182.992 271.254 182.512C270.982 182.024 270.846 181.476 270.846 180.868C270.846 180.26 270.982 179.716 271.254 179.236C271.526 178.748 271.898 178.368 272.37 178.096C272.85 177.824 273.386 177.688 273.978 177.688C274.57 177.688 275.102 177.824 275.574 178.096C276.054 178.368 276.43 178.748 276.702 179.236C276.974 179.716 277.11 180.26 277.11 180.868C277.11 181.476 276.974 182.024 276.702 182.512C276.43 182.992 276.054 183.368 275.574 183.64C275.102 183.912 274.57 184.048 273.978 184.048ZM273.978 183.508C274.458 183.508 274.886 183.396 275.262 183.172C275.646 182.948 275.946 182.636 276.162 182.236C276.386 181.836 276.498 181.38 276.498 180.868C276.498 180.356 276.386 179.9 276.162 179.5C275.946 179.1 275.646 178.788 275.262 178.564C274.886 178.34 274.458 178.228 273.978 178.228C273.498 178.228 273.066 178.34 272.682 178.564C272.306 178.788 272.006 179.1 271.782 179.5C271.566 179.9 271.458 180.356 271.458 180.868C271.458 181.38 271.566 181.836 271.782 182.236C272.006 182.636 272.306 182.948 272.682 183.172C273.066 183.396 273.498 183.508 273.978 183.508ZM278.971 177.736H279.571V184H278.971V177.736ZM279.271 176.212C279.135 176.212 279.019 176.168 278.923 176.08C278.827 175.984 278.779 175.868 278.779 175.732C278.779 175.596 278.827 175.48 278.923 175.384C279.019 175.288 279.135 175.24 279.271 175.24C279.407 175.24 279.523 175.288 279.619 175.384C279.715 175.472 279.763 175.584 279.763 175.72C279.763 175.856 279.715 175.972 279.619 176.068C279.523 176.164 279.407 176.212 279.271 176.212ZM285.16 177.688C285.944 177.688 286.564 177.916 287.02 178.372C287.476 178.828 287.704 179.484 287.704 180.34V184H287.104V180.388C287.104 179.684 286.924 179.148 286.564 178.78C286.212 178.412 285.716 178.228 285.076 178.228C284.34 178.228 283.76 178.448 283.336 178.888C282.912 179.328 282.7 179.92 282.7 180.664V184H282.1V177.736H282.676V179.092C282.892 178.652 283.212 178.308 283.636 178.06C284.068 177.812 284.576 177.688 285.16 177.688Z" fill="#82899B"/>
<circle cx="159" cy="135" r="13" fill="url(#paint3_linear)"/>
<circle cx="347" cy="135" r="13" fill="url(#paint4_linear)"/>
<circle cx="256.5" cy="155.5" r="15.5" fill="#2AD2BE"/>
<path d="M247.985 145.89L256.71 161.736L265.395 146.017L265.271 162.939L256.71 168.57L247.862 162.811L247.985 145.89Z" fill="#F3FCFB"/>
<path d="M102.47 232.53C102.177 232.237 102.177 231.763 102.47 231.47L107.243 226.697C107.536 226.404 108.01 226.404 108.303 226.697C108.596 226.99 108.596 227.464 108.303 227.757L104.061 232L108.303 236.243C108.596 236.536 108.596 237.01 108.303 237.303C108.01 237.596 107.536 237.596 107.243 237.303L102.47 232.53ZM433 232.75H103V231.25H433V232.75Z" fill="#05611F"/>
<path d="M102.47 232.53C102.177 232.237 102.177 231.763 102.47 231.47L107.243 226.697C107.536 226.404 108.01 226.404 108.303 226.697C108.596 226.99 108.596 227.464 108.303 227.757L104.061 232L108.303 236.243C108.596 236.536 108.596 237.01 108.303 237.303C108.01 237.596 107.536 237.596 107.243 237.303L102.47 232.53ZM433 232.75H103V231.25H433V232.75Z" fill="#05611F"/>
<path d="M102.47 232.53C102.177 232.237 102.177 231.763 102.47 231.47L107.243 226.697C107.536 226.404 108.01 226.404 108.303 226.697C108.596 226.99 108.596 227.464 108.303 227.757L104.061 232L108.303 236.243C108.596 236.536 108.596 237.01 108.303 237.303C108.01 237.596 107.536 237.596 107.243 237.303L102.47 232.53ZM433 232.75H103V231.25H433V232.75Z" fill="#05611F"/>
<path d="M70.056 261.108V264H69.444V261.108L66.06 255.6H66.732L69.768 260.544L72.804 255.6H73.44L70.056 261.108ZM76.5052 264.048C75.9132 264.048 75.3772 263.912 74.8972 263.64C74.4252 263.368 74.0532 262.992 73.7812 262.512C73.5092 262.024 73.3732 261.476 73.3732 260.868C73.3732 260.26 73.5092 259.716 73.7812 259.236C74.0532 258.748 74.4252 258.368 74.8972 258.096C75.3772 257.824 75.9132 257.688 76.5052 257.688C77.0972 257.688 77.6292 257.824 78.1012 258.096C78.5812 258.368 78.9572 258.748 79.2292 259.236C79.5012 259.716 79.6372 260.26 79.6372 260.868C79.6372 261.476 79.5012 262.024 79.2292 262.512C78.9572 262.992 78.5812 263.368 78.1012 263.64C77.6292 263.912 77.0972 264.048 76.5052 264.048ZM76.5052 263.508C76.9852 263.508 77.4132 263.396 77.7892 263.172C78.1732 262.948 78.4732 262.636 78.6892 262.236C78.9132 261.836 79.0252 261.38 79.0252 260.868C79.0252 260.356 78.9132 259.9 78.6892 259.5C78.4732 259.1 78.1732 258.788 77.7892 258.564C77.4132 258.34 76.9852 258.228 76.5052 258.228C76.0252 258.228 75.5932 258.34 75.2092 258.564C74.8332 258.788 74.5332 259.1 74.3092 259.5C74.0932 259.9 73.9852 260.356 73.9852 260.868C73.9852 261.38 74.0932 261.836 74.3092 262.236C74.5332 262.636 74.8332 262.948 75.2092 263.172C75.5932 263.396 76.0252 263.508 76.5052 263.508ZM86.9826 257.736V264H86.4066V262.656C86.1986 263.096 85.8906 263.44 85.4826 263.688C85.0746 263.928 84.5946 264.048 84.0426 264.048C83.2266 264.048 82.5866 263.82 82.1226 263.364C81.6586 262.908 81.4266 262.252 81.4266 261.396V257.736H82.0266V261.348C82.0266 262.052 82.2066 262.588 82.5666 262.956C82.9266 263.324 83.4346 263.508 84.0906 263.508C84.7946 263.508 85.3506 263.288 85.7586 262.848C86.1746 262.408 86.3826 261.816 86.3826 261.072V257.736H86.9826Z" fill="#82899B"/>
<path d="M228.464 277.6H229.076V286H228.464V277.6ZM234.871 279.688C235.655 279.688 236.275 279.916 236.731 280.372C237.187 280.828 237.415 281.484 237.415 282.34V286H236.815V282.388C236.815 281.684 236.635 281.148 236.275 280.78C235.923 280.412 235.427 280.228 234.787 280.228C234.051 280.228 233.471 280.448 233.047 280.888C232.623 281.328 232.411 281.92 232.411 282.664V286H231.811V279.736H232.387V281.092C232.603 280.652 232.923 280.308 233.347 280.06C233.779 279.812 234.287 279.688 234.871 279.688ZM242.381 286.048C241.773 286.048 241.229 285.912 240.749 285.64C240.269 285.368 239.893 284.992 239.621 284.512C239.349 284.024 239.213 283.476 239.213 282.868C239.213 282.252 239.349 281.704 239.621 281.224C239.893 280.736 240.269 280.36 240.749 280.096C241.229 279.824 241.773 279.688 242.381 279.688C242.885 279.688 243.341 279.788 243.749 279.988C244.165 280.18 244.501 280.464 244.757 280.84L244.313 281.164C244.089 280.852 243.809 280.62 243.473 280.468C243.145 280.308 242.781 280.228 242.381 280.228C241.893 280.228 241.453 280.34 241.061 280.564C240.677 280.78 240.373 281.088 240.149 281.488C239.933 281.888 239.825 282.348 239.825 282.868C239.825 283.388 239.933 283.848 240.149 284.248C240.373 284.648 240.677 284.96 241.061 285.184C241.453 285.4 241.893 285.508 242.381 285.508C242.781 285.508 243.145 285.432 243.473 285.28C243.809 285.12 244.089 284.884 244.313 284.572L244.757 284.896C244.501 285.272 244.165 285.56 243.749 285.76C243.341 285.952 242.885 286.048 242.381 286.048ZM251.74 283.012H246.352C246.368 283.5 246.492 283.936 246.724 284.32C246.956 284.696 247.268 284.988 247.66 285.196C248.06 285.404 248.508 285.508 249.004 285.508C249.412 285.508 249.788 285.436 250.132 285.292C250.484 285.14 250.776 284.92 251.008 284.632L251.356 285.028C251.084 285.356 250.74 285.608 250.324 285.784C249.916 285.96 249.472 286.048 248.992 286.048C248.368 286.048 247.812 285.912 247.324 285.64C246.836 285.368 246.452 284.992 246.172 284.512C245.9 284.032 245.764 283.484 245.764 282.868C245.764 282.26 245.892 281.716 246.148 281.236C246.412 280.748 246.772 280.368 247.228 280.096C247.684 279.824 248.196 279.688 248.764 279.688C249.332 279.688 249.84 279.824 250.288 280.096C250.744 280.36 251.1 280.732 251.356 281.212C251.62 281.692 251.752 282.236 251.752 282.844L251.74 283.012ZM248.764 280.216C248.324 280.216 247.928 280.316 247.576 280.516C247.224 280.708 246.94 280.984 246.724 281.344C246.516 281.696 246.396 282.096 246.364 282.544H251.164C251.14 282.096 251.02 281.696 250.804 281.344C250.588 280.992 250.304 280.716 249.952 280.516C249.6 280.316 249.204 280.216 248.764 280.216ZM256.668 279.688C257.452 279.688 258.072 279.916 258.528 280.372C258.984 280.828 259.212 281.484 259.212 282.34V286H258.612V282.388C258.612 281.684 258.432 281.148 258.072 280.78C257.72 280.412 257.224 280.228 256.584 280.228C255.848 280.228 255.268 280.448 254.844 280.888C254.42 281.328 254.208 281.92 254.208 282.664V286H253.608V279.736H254.184V281.092C254.4 280.652 254.72 280.308 255.144 280.06C255.576 279.812 256.084 279.688 256.668 279.688ZM264.79 285.604C264.638 285.748 264.446 285.86 264.214 285.94C263.99 286.012 263.754 286.048 263.506 286.048C262.962 286.048 262.542 285.9 262.246 285.604C261.95 285.3 261.802 284.88 261.802 284.344V280.252H260.65V279.736H261.802V278.368H262.402V279.736H264.394V280.252H262.402V284.284C262.402 284.692 262.498 285.004 262.69 285.22C262.89 285.428 263.182 285.532 263.566 285.532C263.958 285.532 264.282 285.416 264.538 285.184L264.79 285.604ZM266.463 279.736H267.063V286H266.463V279.736ZM266.763 278.212C266.627 278.212 266.511 278.168 266.415 278.08C266.319 277.984 266.271 277.868 266.271 277.732C266.271 277.596 266.319 277.48 266.415 277.384C266.511 277.288 266.627 277.24 266.763 277.24C266.899 277.24 267.015 277.288 267.111 277.384C267.207 277.472 267.255 277.584 267.255 277.72C267.255 277.856 267.207 277.972 267.111 278.068C267.015 278.164 266.899 278.212 266.763 278.212ZM274.62 279.736L271.788 286H271.176L268.356 279.736H268.992L271.488 285.34L274.008 279.736H274.62ZM281.048 283.012H275.66C275.676 283.5 275.8 283.936 276.032 284.32C276.264 284.696 276.576 284.988 276.968 285.196C277.368 285.404 277.816 285.508 278.312 285.508C278.72 285.508 279.096 285.436 279.44 285.292C279.792 285.14 280.084 284.92 280.316 284.632L280.664 285.028C280.392 285.356 280.048 285.608 279.632 285.784C279.224 285.96 278.78 286.048 278.3 286.048C277.676 286.048 277.12 285.912 276.632 285.64C276.144 285.368 275.76 284.992 275.48 284.512C275.208 284.032 275.072 283.484 275.072 282.868C275.072 282.26 275.2 281.716 275.456 281.236C275.72 280.748 276.08 280.368 276.536 280.096C276.992 279.824 277.504 279.688 278.072 279.688C278.64 279.688 279.148 279.824 279.596 280.096C280.052 280.36 280.408 280.732 280.664 281.212C280.928 281.692 281.06 282.236 281.06 282.844L281.048 283.012ZM278.072 280.216C277.632 280.216 277.236 280.316 276.884 280.516C276.532 280.708 276.248 280.984 276.032 281.344C275.824 281.696 275.704 282.096 275.672 282.544H280.472C280.448 282.096 280.328 281.696 280.112 281.344C279.896 280.992 279.612 280.716 279.26 280.516C278.908 280.316 278.512 280.216 278.072 280.216ZM284.501 286.048C283.997 286.048 283.517 285.972 283.061 285.82C282.605 285.668 282.249 285.476 281.993 285.244L282.269 284.764C282.525 284.98 282.853 285.16 283.253 285.304C283.661 285.448 284.085 285.52 284.525 285.52C285.157 285.52 285.621 285.416 285.917 285.208C286.221 285 286.373 284.712 286.373 284.344C286.373 284.08 286.289 283.872 286.121 283.72C285.961 283.568 285.761 283.456 285.521 283.384C285.281 283.312 284.949 283.236 284.525 283.156C284.029 283.068 283.629 282.972 283.325 282.868C283.021 282.764 282.761 282.596 282.545 282.364C282.329 282.132 282.221 281.812 282.221 281.404C282.221 280.908 282.425 280.5 282.833 280.18C283.249 279.852 283.837 279.688 284.597 279.688C284.997 279.688 285.393 279.744 285.785 279.856C286.177 279.968 286.497 280.116 286.745 280.3L286.469 280.78C286.213 280.596 285.921 280.456 285.593 280.36C285.265 280.264 284.929 280.216 284.585 280.216C284.001 280.216 283.561 280.324 283.265 280.54C282.969 280.756 282.821 281.04 282.821 281.392C282.821 281.672 282.905 281.892 283.073 282.052C283.241 282.204 283.445 282.32 283.685 282.4C283.933 282.472 284.277 282.552 284.717 282.64C285.205 282.728 285.597 282.824 285.893 282.928C286.197 283.024 286.453 283.184 286.661 283.408C286.869 283.632 286.973 283.94 286.973 284.332C286.973 284.852 286.757 285.268 286.325 285.58C285.893 285.892 285.285 286.048 284.501 286.048Z" fill="#82899B"/>
<path d="M438.296 267L436.292 264.192C435.996 264.232 435.724 264.252 435.476 264.252H433.076V267H432.464V258.6H435.476C436.532 258.6 437.36 258.852 437.96 259.356C438.56 259.852 438.86 260.544 438.86 261.432C438.86 262.096 438.688 262.656 438.344 263.112C438.008 263.56 437.524 263.876 436.892 264.06L438.992 267H438.296ZM435.476 263.712C436.372 263.712 437.056 263.516 437.528 263.124C438 262.724 438.236 262.16 438.236 261.432C438.236 260.704 438 260.144 437.528 259.752C437.056 259.352 436.372 259.152 435.476 259.152H433.076V263.712H435.476ZM446.201 264.012H440.813C440.829 264.5 440.953 264.936 441.185 265.32C441.417 265.696 441.729 265.988 442.121 266.196C442.521 266.404 442.969 266.508 443.465 266.508C443.873 266.508 444.249 266.436 444.593 266.292C444.945 266.14 445.237 265.92 445.469 265.632L445.817 266.028C445.545 266.356 445.201 266.608 444.785 266.784C444.377 266.96 443.933 267.048 443.453 267.048C442.829 267.048 442.273 266.912 441.785 266.64C441.297 266.368 440.913 265.992 440.633 265.512C440.361 265.032 440.225 264.484 440.225 263.868C440.225 263.26 440.353 262.716 440.609 262.236C440.873 261.748 441.233 261.368 441.689 261.096C442.145 260.824 442.657 260.688 443.225 260.688C443.793 260.688 444.301 260.824 444.749 261.096C445.205 261.36 445.561 261.732 445.817 262.212C446.081 262.692 446.213 263.236 446.213 263.844L446.201 264.012ZM443.225 261.216C442.785 261.216 442.389 261.316 442.037 261.516C441.685 261.708 441.401 261.984 441.185 262.344C440.977 262.696 440.857 263.096 440.825 263.544H445.625C445.601 263.096 445.481 262.696 445.265 262.344C445.049 261.992 444.765 261.716 444.413 261.516C444.061 261.316 443.665 261.216 443.225 261.216ZM450.553 267.048C449.945 267.048 449.401 266.912 448.921 266.64C448.441 266.368 448.065 265.992 447.793 265.512C447.521 265.024 447.385 264.476 447.385 263.868C447.385 263.252 447.521 262.704 447.793 262.224C448.065 261.736 448.441 261.36 448.921 261.096C449.401 260.824 449.945 260.688 450.553 260.688C451.057 260.688 451.513 260.788 451.921 260.988C452.337 261.18 452.673 261.464 452.929 261.84L452.485 262.164C452.261 261.852 451.981 261.62 451.645 261.468C451.317 261.308 450.953 261.228 450.553 261.228C450.065 261.228 449.625 261.34 449.233 261.564C448.849 261.78 448.545 262.088 448.321 262.488C448.105 262.888 447.997 263.348 447.997 263.868C447.997 264.388 448.105 264.848 448.321 265.248C448.545 265.648 448.849 265.96 449.233 266.184C449.625 266.4 450.065 266.508 450.553 266.508C450.953 266.508 451.317 266.432 451.645 266.28C451.981 266.12 452.261 265.884 452.485 265.572L452.929 265.896C452.673 266.272 452.337 266.56 451.921 266.76C451.513 266.952 451.057 267.048 450.553 267.048ZM459.648 260.736L456.432 267.852C456.192 268.404 455.912 268.796 455.592 269.028C455.28 269.26 454.908 269.376 454.476 269.376C454.188 269.376 453.916 269.328 453.66 269.232C453.412 269.136 453.2 268.996 453.024 268.812L453.324 268.356C453.644 268.684 454.032 268.848 454.488 268.848C454.792 268.848 455.052 268.764 455.268 268.596C455.484 268.428 455.684 268.14 455.868 267.732L456.204 266.976L453.384 260.736H454.02L456.528 266.34L459.036 260.736H459.648ZM463.268 267.048C462.66 267.048 462.116 266.912 461.636 266.64C461.156 266.368 460.78 265.992 460.508 265.512C460.236 265.024 460.1 264.476 460.1 263.868C460.1 263.252 460.236 262.704 460.508 262.224C460.78 261.736 461.156 261.36 461.636 261.096C462.116 260.824 462.66 260.688 463.268 260.688C463.772 260.688 464.228 260.788 464.636 260.988C465.052 261.18 465.388 261.464 465.644 261.84L465.2 262.164C464.976 261.852 464.696 261.62 464.36 261.468C464.032 261.308 463.668 261.228 463.268 261.228C462.78 261.228 462.34 261.34 461.948 261.564C461.564 261.78 461.26 262.088 461.036 262.488C460.82 262.888 460.712 263.348 460.712 263.868C460.712 264.388 460.82 264.848 461.036 265.248C461.26 265.648 461.564 265.96 461.948 266.184C462.34 266.4 462.78 266.508 463.268 266.508C463.668 266.508 464.032 266.432 464.36 266.28C464.696 266.12 464.976 265.884 465.2 265.572L465.644 265.896C465.388 266.272 465.052 266.56 464.636 266.76C464.228 266.952 463.772 267.048 463.268 267.048ZM467.335 258.096H467.935V267H467.335V258.096ZM475.755 264.012H470.367C470.383 264.5 470.507 264.936 470.739 265.32C470.971 265.696 471.283 265.988 471.675 266.196C472.075 266.404 472.523 266.508 473.019 266.508C473.427 266.508 473.803 266.436 474.147 266.292C474.499 266.14 474.791 265.92 475.023 265.632L475.371 266.028C475.099 266.356 474.755 266.608 474.339 266.784C473.931 266.96 473.487 267.048 473.007 267.048C472.383 267.048 471.827 266.912 471.339 266.64C470.851 266.368 470.467 265.992 470.187 265.512C469.915 265.032 469.779 264.484 469.779 263.868C469.779 263.26 469.907 262.716 470.163 262.236C470.427 261.748 470.787 261.368 471.243 261.096C471.699 260.824 472.211 260.688 472.779 260.688C473.347 260.688 473.855 260.824 474.303 261.096C474.759 261.36 475.115 261.732 475.371 262.212C475.635 262.692 475.767 263.236 475.767 263.844L475.755 264.012ZM472.779 261.216C472.339 261.216 471.943 261.316 471.591 261.516C471.239 261.708 470.955 261.984 470.739 262.344C470.531 262.696 470.411 263.096 470.379 263.544H475.179C475.155 263.096 475.035 262.696 474.819 262.344C474.603 261.992 474.319 261.716 473.967 261.516C473.615 261.316 473.219 261.216 472.779 261.216ZM478.2 262.104C478.392 261.648 478.692 261.3 479.1 261.06C479.508 260.812 480.004 260.688 480.588 260.688V261.276L480.444 261.264C479.748 261.264 479.204 261.484 478.812 261.924C478.42 262.356 478.224 262.96 478.224 263.736V267H477.624V260.736H478.2V262.104Z" fill="#82899B"/>
<circle cx="78" cy="232" r="13" fill="url(#paint5_linear)"/>
<circle cx="454" cy="232" r="13" fill="url(#paint6_linear)"/>
<path opacity="0.54" fill-rule="evenodd" clip-rule="evenodd" d="M245.667 269.014C243.367 269.014 241.521 270.878 241.521 273.18C241.521 275.48 243.367 277.347 245.667 277.347C247.969 277.347 249.833 275.48 249.833 273.18C249.833 270.878 247.969 269.014 245.667 269.014ZM266.5 269.014C264.2 269.014 262.354 270.878 262.354 273.18C262.354 275.48 264.2 277.347 266.5 277.347C268.802 277.347 270.667 275.48 270.667 273.18C270.667 270.878 268.802 269.014 266.5 269.014ZM237.333 235.68H233.165V239.845H237.333L244.829 255.653L242.01 260.76C241.685 261.358 241.5 262.041 241.5 262.764C241.5 265.064 243.367 266.93 245.667 266.93H270.667V262.764H246.548C246.26 262.764 246.029 262.533 246.029 262.243L246.092 261.991L247.962 258.597H263.481C265.048 258.597 266.415 257.733 267.127 256.453L274.573 242.935C274.74 242.639 274.835 242.295 274.835 241.93C274.835 240.778 273.902 239.845 272.75 239.845H241.944L241.098 238.066C240.433 236.655 238.996 235.68 237.333 235.68Z" fill="#0D9484"/>
<rect x="1" y="25" width="51" height="58" fill="black"/>
<path d="M30.36 38V66H22.44V44.12H17.24V38H30.36Z" fill="#CCCCCC"/>
<rect y="109" width="51" height="58" fill="black"/>
<path d="M37 143.72V150H15.2V145.04L25.68 135.24C26.6933 134.28 27.3733 133.467 27.72 132.8C28.0667 132.107 28.24 131.413 28.24 130.72C28.24 129.813 27.9333 129.107 27.32 128.6C26.7067 128.093 25.8133 127.84 24.64 127.84C23.6 127.84 22.64 128.08 21.76 128.56C20.9067 129.013 20.2 129.68 19.64 130.56L13.76 127.28C14.8533 125.467 16.3867 124.04 18.36 123C20.3333 121.96 22.6667 121.44 25.36 121.44C27.4933 121.44 29.3733 121.787 31 122.48C32.6533 123.173 33.9333 124.173 34.84 125.48C35.7733 126.76 36.24 128.253 36.24 129.96C36.24 131.48 35.9067 132.92 35.24 134.28C34.6 135.613 33.3467 137.133 31.48 138.84L26.2 143.72H37Z" fill="#CCCCCC"/>
<rect x="1" y="197" width="51" height="58" fill="black"/>
<path d="M28.72 222.2C31.04 222.68 32.8133 223.64 34.04 225.08C35.2933 226.493 35.92 228.213 35.92 230.24C35.92 231.893 35.4667 233.427 34.56 234.84C33.68 236.253 32.32 237.4 30.48 238.28C28.6667 239.133 26.4133 239.56 23.72 239.56C21.7467 239.56 19.7867 239.32 17.84 238.84C15.92 238.36 14.2533 237.68 12.84 236.8L15.72 230.84C16.8133 231.587 18.04 232.16 19.4 232.56C20.7867 232.96 22.1467 233.16 23.48 233.16C24.84 233.16 25.92 232.907 26.72 232.4C27.52 231.893 27.92 231.173 27.92 230.24C27.92 228.427 26.4933 227.52 23.64 227.52H20.32V222.52L25.32 217.12H14.28V211H34.52V215.96L28.72 222.2Z" fill="#CCCCCC"/>
<defs>
<linearGradient id="paint0_linear" x1="92.621" y1="79.379" x2="64" y2="39.2083" gradientUnits="userSpaceOnUse">
<stop stop-color="#28BC00"/>
<stop offset="1" stop-color="#28BC00" stop-opacity="0"/>
</linearGradient>
<linearGradient id="paint1_linear" x1="280.621" y1="79.379" x2="252" y2="39.2083" gradientUnits="userSpaceOnUse">
<stop stop-color="#28BC00"/>
<stop offset="1" stop-color="#28BC00" stop-opacity="0"/>
</linearGradient>
<linearGradient id="paint2_linear" x1="468.621" y1="79.379" x2="440" y2="39.2083" gradientUnits="userSpaceOnUse">
<stop stop-color="#28BC00"/>
<stop offset="1" stop-color="#28BC00" stop-opacity="0"/>
</linearGradient>
<linearGradient id="paint3_linear" x1="174.621" y1="158.379" x2="146" y2="118.208" gradientUnits="userSpaceOnUse">
<stop stop-color="#28BC00"/>
<stop offset="1" stop-color="#28BC00" stop-opacity="0"/>
</linearGradient>
<linearGradient id="paint4_linear" x1="362.621" y1="158.379" x2="334" y2="118.208" gradientUnits="userSpaceOnUse">
<stop stop-color="#28BC00"/>
<stop offset="1" stop-color="#28BC00" stop-opacity="0"/>
</linearGradient>
<linearGradient id="paint5_linear" x1="93.621" y1="255.379" x2="65" y2="215.208" gradientUnits="userSpaceOnUse">
<stop stop-color="#28BC00"/>
<stop offset="1" stop-color="#28BC00" stop-opacity="0"/>
</linearGradient>
<linearGradient id="paint6_linear" x1="469.621" y1="255.379" x2="441" y2="215.208" gradientUnits="userSpaceOnUse">
<stop stop-color="#28BC00"/>
<stop offset="1" stop-color="#28BC00" stop-opacity="0"/>
</linearGradient>
</defs>
</svg>
